{
.appVersion = "3087";
.formatVersion = 3;
DisplayStrings = (
y,
"/.notdef fdajiljifeiefoqiofaijiguiwjio",
f,
fdjiajgeuryeiuufodosnvnzmgmiwhuya,
"/.notdef  ABCDEFGHIJKLMNOPQRSTUVWXYZabcdefghijklmnopqrstuvwxyz"
);
axes = (
{
name = Weight;
tag = wght;
}
);
customParameters = (
{
name = panose;
value = (
0,
0,
0,
0,
0,
0,
0,
0,
0,
0
);
},
{
name = unicodeRanges;
value = (
0,
1
);
},
{
name = codePageRanges;
value = (
"1252"
);
},
{
name = blueScale;
value = 0.037;
},
{
name = glyphOrder;
value = (
.notdef,
space,
A,
B,
C,
D,
E,
F,
G,
H,
I,
J,
K,
L,
M,
N,
O,
P,
Q,
R,
S,
T,
U,
V,
W,
X,
Y,
Z,
a,
b,
c,
d,
e,
f,
g,
h,
i,
j,
k,
l,
m,
n,
o,
p,
q,
r,
s,
t,
u,
v,
w,
x,
y,
z,
zero,
one,
two,
three,
four,
five,
six,
seven,
eight,
nine,
period,
comma,
hyphen
);
}
);
date = "2022-02-24 12:25:30 +0000";
familyName = Rain_2200309;
fontMaster = (
{
axesValues = (
10
);
customParameters = (
{
name = typoAscender;
value = 800;
},
{
name = typoDescender;
value = -200;
},
{
name = typoLineGap;
value = 200;
},
{
name = winAscent;
value = 1000;
},
{
name = winDescent;
value = 200;
},
{
name = hheaAscender;
value = 1000;
},
{
name = hheaDescender;
value = -200;
},
{
name = strikeoutPosition;
value = 250;
},
{
name = strikeoutSize;
value = 50;
},
{
name = underlinePosition;
value = -125;
}
);
iconName = Light_Condensed;
id = m01;
metricValues = (
{
over = 16;
pos = 800;
},
{
over = 16;
pos = 700;
},
{
over = 16;
pos = 500;
},
{
over = -16;
},
{
over = -16;
pos = -200;
},
{
over = -16;
}
);
name = Mild;
},
{
axesValues = (
100
);
customParameters = (
{
name = typoAscender;
value = 800;
},
{
name = typoDescender;
value = -200;
},
{
name = typoLineGap;
value = 200;
},
{
name = winAscent;
value = 1000;
},
{
name = winDescent;
value = 200;
},
{
name = hheaAscender;
value = 1000;
},
{
name = hheaDescender;
value = -200;
},
{
name = strikeoutPosition;
value = 250;
},
{
name = strikeoutSize;
value = 50;
},
{
name = underlinePosition;
value = -125;
}
);
id = m002;
metricValues = (
{
over = 16;

glyphs = (
{
glyphname = .notdef;
lastChange = "2022-03-10 19:58:56 +0000";
layers = (
{
hints = (
{
horizontal = 1;
place = (42, 96);
place = (42, 96);
type = Stem;
},
{
horizontal = 1;
place = (62, 91);
place = (62, 91);
type = Stem;
},
{
horizontal = 1;
place = (78, 87);
place = (78, 87);
type = Stem;
},
{
horizontal = 1;
place = (90, 91);
place = (90, 91);
type = Stem;
},
{
horizontal = 1;
place = (106, 94);
place = (106, 94);
type = Stem;
},
{
horizontal = 1;
place = (124, 87);
place = (124, 87);
type = Stem;
},
{
horizontal = 1;
place = (140, 86);
place = (140, 86);
type = Stem;
},
{
horizontal = 1;
place = (151, 87);
place = (151, 87);
type = Stem;
},
{
horizontal = 1;
place = (163, 89);
place = (163, 89);
type = Stem;
},
{
horizontal = 1;
place = (177, 87);
place = (177, 87);
type = Stem;
},
{
horizontal = 1;
place = (189, 89);
place = (189, 89);
type = Stem;
},
{
horizontal = 1;
place = (203, 87);
place = (203, 87);
type = Stem;
},
{
horizontal = 1;
place = (215, 89);
place = (215, 89);
type = Stem;
},
{
horizontal = 1;
place = (229, 95);
place = (229, 95);
type = Stem;
},
{
place = (101, 97);
place = (101, 97);
type = Stem;
},
{
place = (122, 89);
place = (122, 89);
type = Stem;
},
{
place = (135, 89);
place = (135, 89);
type = Stem;
},
{
place = (149, 97);
place = (149, 97);
type = Stem;
},
{
place = (101, 110);
place = (101, 110);
type = Stem;
},
{
place = (135, 111);
place = (135, 111);
type = Stem;
},
{
horizontal = 1;
place = (165, 87);
place = (165, 87);
type = Stem;
},
{
place = (101, 97);
place = (101, 97);
type = Stem;
},
{
place = (122, 124);
place = (122, 124);
type = Stem;
},
{
place = (101, 123);
place = (101, 123);
type = Stem;
}
);
layerId = m01;
shapes = (
{
closed = 1;
nodes = (
(123,130,o),
(128,124,o),
(126,113,cs),
(126,111,o),
(127,108,o),
(127,105,cs),
(127,102,o),
(127,97,o),
(126,94,cs),
(121,80,o),
(111,78,o),
(101,88,cs),
(99,90,o),
(97,92,o),
(94,94,cs),
(90,97,o),
(87,101,o),
(86,107,cs),
(85,110,o),
(83,112,o),
(82,115,cs),
(75,124,o),
(77,133,o),
(89,134,cs),
(97,136,o),
(105,134,o),
(113,134,c)
);
}
);
width = 500;
},
{
hints = (
{
horizontal = 1;
place = (-200, 69);
place = (-200, 69);
type = Stem;
},
{
horizontal = 1;
place = (-98, 47);
place = (-98, 47);
type = Stem;
},
{
horizontal = 1;
place = (-18, 23);
place = (-18, 23);
type = Stem;
},
{
horizontal = 1;
place = (38, 47);
place = (38, 47);
type = Stem;
},
{
horizontal = 1;
place = (118, 60);
place = (118, 60);
type = Stem;
},
{
horizontal = 1;
place = (211, 24);
place = (211, 24);
type = Stem;
},
{
horizontal = 1;
place = (291, 22);
place = (291, 22);
type = Stem;
},
{
horizontal = 1;
place = (347, 23);
place = (347, 23);
type = Stem;
},
{
horizontal = 1;
place = (403, 37);
place = (403, 37);
type = Stem;
},
{
horizontal = 1;
place = (473, 27);
place = (473, 27);
type = Stem;
},
{
horizontal = 1;
place = (534, 36);
place = (534, 36);
type = Stem;
},
{
horizontal = 1;
place = (604, 26);
place = (604, 26);
type = Stem;
},
{
horizontal = 1;
place = (663, 37);
place = (663, 37);
type = Stem;
},
{
horizontal = 1;
place = (733, 67);
place = (733, 67);
type = Stem;
},
{
place = (93, 74);
place = (93, 74);
type = Stem;
},
{
place = (200, 33);
place = (200, 33);
type = Stem;
},
{
place = (267, 33);
place = (267, 33);
type = Stem;
},
{
place = (333, 77);
place = (333, 77);
type = Stem;
},
{
place = (93, 140);
place = (93, 140);
type = Stem;
},
{
place = (267, 143);
place = (267, 143);
type = Stem;
},
{
horizontal = 1;
place = (413, 27);
place = (413, 27);
type = Stem;
},
{
place = (93, 75);
place = (93, 75);
type = Stem;
},
{
place = (200, 210);
place = (200, 210);
type = Stem;
},
{
place = (93, 207);
place = (93, 207);
type = Stem;
}
);
layerId = m002;
shapes = (
{
closed = 1;
nodes = (
(205,218,o),
(228,186,o),
(222,134,cs),
(220,121,o),
(225,107,o),
(225,94,cs),
(224,75,o),
(223,54,o),
(218,36,cs),
(195,-33,o),
(147,-44,o),
(94,6,cs),
(83,17,o),
(73,27,o),
(60,36,cs),
(39,53,o),
(24,74,o),
(18,101,cs),
(14,115,o),
(6,127,o),
(-2,140,cs),
(-35,188,o),
(-23,231,o),
(34,239,cs),
(74,245,o),
(115,239,o),
(157,238,c)
);
}
);
width = 500;
},
{
hints = (
{
horizontal = 1;
place = (-785, 22);
place = (-785, 22);
type = Stem;
},
{
horizontal = 1;
place = (-479, -44);
place = (-479, -44);
type = Stem;
},
{
horizontal = 1;
place = (-239, -116);
place = (-239, -116);
type = Stem;
},
{
horizontal = 1;
place = (-71, -44);
place = (-71, -44);
type = Stem;
},
{
horizontal = 1;
place = (169, -5);
place = (169, -5);
type = Stem;
},
{
horizontal = 1;
place = (448, -113);
place = (448, -113);
type = Stem;
},
{
horizontal = 1;
place = (688, -119);
place = (688, -119);
type = Stem;
},
{
horizontal = 1;
place = (856, -116);
place = (856, -116);
type = Stem;
},
{
horizontal = 1;
place = (1024, -74);
place = (1024, -74);
type = Stem;
},
{
horizontal = 1;
place = (1234, -104);
place = (1234, -104);
type = Stem;
},
{
horizontal = 1;
place = (1417, -77);
place = (1417, -77);
type = Stem;
},
{
horizontal = 1;
place = (1627, -107);
place = (1627, -107);
type = Stem;
},
{
horizontal = 1;
place = (1804, -74);
place = (1804, -74);
type = Stem;
},
{
horizontal = 1;
place = (2014, 16);
place = (2014, 16);
type = Stem;
},
{
place = (94, 37);
place = (94, 37);
type = Stem;
},
{
place = (415, -86);
place = (415, -86);
type = Stem;
},
{
place = (616, -86);
place = (616, -86);
type = Stem;
},
{
place = (814, 46);
place = (814, 46);
type = Stem;
},
{
place = (94, 235);
place = (94, 235);
type = Stem;
},
{
place = (616, 244);
place = (616, 244);
type = Stem;
},
{
horizontal = 1;
place = (1054, -104);
place = (1054, -104);
type = Stem;
},
{
place = (94, 40);
place = (94, 40);
type = Stem;
},
{
place = (415, 445);
place = (415, 445);
type = Stem;
},
{
place = (94, 436);
place = (94, 436);
type = Stem;
}
);
layerId = m003;
shapes = (
{
closed = 1;
nodes = (
(675,437,o),
(744,341,o),
(726,185,cs),
(720,146,o),
(735,104,o),
(735,65,cs),
(732,8,o),
(729,-55,o),
(714,-109,cs),
(645,-316,o),
(501,-349,o),
(342,-199,cs),
(309,-166,o),
(279,-136,o),
(240,-109,cs),
(177,-58,o),
(132,5,o),
(114,86,cs),
(102,128,o),
(78,164,o),
(54,203,cs),
(-45,347,o),
(-9,476,o),
(162,500,cs),
(282,518,o),
(405,500,o),
(531,497,c)
);
}
);
width = 735;
}
);
note = .notdef;
},
{
glyphname = A;
lastChange = "2022-03-10 19:58:56 +0000";
layers = (
{
hints = (
{
horizontal = 1;
place = (182, 269);
place = (182, 269);
type = Stem;
},
{
place = (182, 273);
place = (182, 273);
type = Stem;
}
);
layerId = m01;
shapes = (
{
closed = 1;
nodes = (
(182,195,o),
(179,208,o),
(187,221,cs),
(189,225,o),
(191,230,o),
(193,234,cs),
(196,240,o),
(201,244,o),
(206,247,cs),
(214,250,o),
(221,253,o),
(228,256,cs),
(232,257,o),
(236,258,o),
(239,257,cs),
(244,255,o),
(247,257,o),
(250,260,c),
(254,256,o),
(258,252,o),
(262,248,cs),
(272,239,o),
(275,227,o),
(271,214,cs),
(267,201,o),
(261,189,o),
(251,179,cs),
(247,174,o),
(242,173,o),
(238,173,cs),
(233,173,o),
(228,175,o),
(223,177,cs),
(221,177,o),
(219,179,o),
(217,178,cs),
(210,176,o),
(204,178,o),
(197,180,cs),
(194,181,o),
(190,181,o),
(186,182,c)
);
}
);
width = 555;
},
{
hints = (
{
horizontal = 1;
place = (0, 433);
place = (0, 433);
type = Stem;
},
{
place = (0, 455);
place = (0, 455);
type = Stem;
}
);
layerId = m002;
shapes = (
{
closed = 1;
nodes = (
(0,109,o),
(-14,175,o),
(25,241,cs),
(37,261,o),
(46,282,o),
(55,303,cs),
(68,335,o),
(95,353,o),
(122,367,cs),
(158,386,o),
(195,401,o),
(232,415,cs),
(248,421,o),
(270,424,o),
(285,418,cs),
(310,407,o),
(325,417,o),
(338,433,c),
(360,412,o),
(379,394,o),
(399,376,cs),
(448,328,o),
(467,267,o),
(447,205,cs),
(427,140,o),
(394,79,o),
(344,27,cs),
(324,6,o),
(301,0,o),
(278,0,cs),
(253,0,o),
(228,11,o),
(203,17,cs),
(194,19,o),
(183,28,o),
(176,25,cs),
(140,12,o),
(108,25,o),
(74,35,cs),
(59,40,o),
(42,40,o),
(20,43,c)
);
}
);
width = 555;
},
{
hints = (
{
horizontal = 1;
place = (-395, 904);
place = (-395, 904);
type = Stem;
},
{
place = (-395, 970);
place = (-395, 970);
type = Stem;
}
);
layerId = m003;
shapes = (
{
closed = 1;
nodes = (
(-1,-106,o),
(-43,92,o),
(74,290,cs),
(110,350,o),
(137,413,o),
(164,476,cs),
(203,572,o),
(284,626,o),
(365,668,cs),
(473,725,o),
(584,770,o),
(695,812,cs),
(743,830,o),
(809,839,o),
(854,821,cs),
(929,788,o),
(974,818,o),
(1013,866,c),
(1079,803,o),
(1136,749,o),
(1196,695,cs),
(1343,551,o),
(1400,368,o),
(1340,182,cs),
(1280,-13,o),
(1181,-196,o),
(1031,-352,cs),
(971,-415,o),
(902,-433,o),
(833,-433,cs),
(758,-433,o),
(683,-400,o),
(608,-382,cs),
(581,-376,o),
(548,-349,o),
(527,-358,cs),
(419,-397,o),
(323,-358,o),
(221,-328,cs),
(176,-313,o),
(125,-313,o),
(59,-304,c)
);
}
);
width = 1364;
}
);
note = A;
unicode = 65;
},
{
glyphname = B;
lastChange = "2022-03-10 19:58:56 +0000";
layers = (
{
hints = (
{
horizontal = 1;
place = (78, 141);
place = (78, 141);
type = Stem;
},
{
place = (78, 117);
place = (78, 117);
type = Stem;
}
);
layerId = m01;
shapes = (
{
closed = 1;
nodes = (
(91,183,o),
(92,177,o),
(95,173,cs),
(98,169,o),
(104,167,o),
(108,163,cs),
(115,156,o),
(119,147,o),
(116,137,cs),
(115,130,o),
(109,125,o),
(104,126,cs),
(99,126,o),
(95,129,o),
(94,136,cs),
(93,139,o),
(93,142,o),
(94,144,cs),
(96,152,o),
(93,156,o),
(88,161,cs),
(85,164,o),
(82,167,o),
(80,171,cs),
(78,175,o),
(77,178,o),
(82,181,cs),
(84,182,o),
(86,185,o),
(88,188,c)
);
}
);
width = 295;
},
{
hints = (
{
horizontal = 1;
place = (0, 314);
place = (0, 314);
type = Stem;
},
{
place = (0, 195);
place = (0, 195);
type = Stem;
}
);
layerId = m002;
shapes = (
{
closed = 1;
nodes = (
(63,285,o),
(69,256,o),
(85,236,cs),
(101,216,o),
(129,207,o),
(148,189,cs),
(186,153,o),
(205,109,o),
(190,55,cs),
(182,24,o),
(155,-1,o),
(127,0,cs),
(103,0,o),
(85,19,o),
(78,54,cs),
(76,67,o),
(74,82,o),
(77,94,cs),
(89,130,o),
(73,154,o),
(49,177,cs),
(33,192,o),
(19,209,o),
(8,227,cs),
(-3,245,o),
(-5,264,o),
(19,278,cs),
(31,284,o),
(38,299,o),
(51,314,c)
);
}
);
width = 295;
},
{
hints = (
{
horizontal = 1;
place = (-135, 807);
place = (-135, 807);
type = Stem;
},
{
place = (-135, 450);
place = (-135, 450);
type = Stem;
}
);
layerId = m003;
shapes = (
{
closed = 1;
nodes = (
(189,541,o),
(207,454,o),
(255,394,cs),
(303,334,o),
(387,307,o),
(444,253,cs),
(558,145,o),
(615,13,o),
(570,-149,cs),
(546,-242,o),
(465,-317,o),
(381,-314,cs),
(309,-314,o),
(255,-257,o),
(234,-152,cs),
(228,-113,o),
(222,-68,o),
(231,-32,cs),
(267,76,o),
(219,148,o),
(147,217,cs),
(99,262,o),
(57,313,o),
(24,367,cs),
(-9,421,o),
(-15,478,o),
(57,520,cs),
(93,538,o),
(114,583,o),
(153,628,c)
);
}
);
width = 585;
}
);
note = B;
unicode = 66;
},
{
glyphname = C;
lastChange = "2022-03-10 19:58:56 +0000";
layers = (
{
hints = (
{
horizontal = 1;
place = (281, 519);
place = (281, 519);
type = Stem;
},
{
place = (280, 421);
place = (280, 421);
type = Stem;
}
);
layerId = m01;
shapes = (
{
closed = 1;
nodes = (
(357,560,o),
(354,560,o),
(351,560,cs),
(348,561,o),
(344,562,o),
(342,564,cs),
(336,570,o),
(329,571,o),
(322,573,cs),
(320,573,o),
(317,574,o),
(315,573,cs),
(311,570,o),
(307,571,o),
(303,574,cs),
(297,578,o),
(289,579,o),
(280,577,c),
(281,587,o),
(281,597,o),
(284,606,cs),
(285,607,o),
(287,609,o),
(289,610,cs),
(293,611,o),
(297,612,o),
(301,613,cs),
(307,614,o),
(311,617,o),
(312,624,cs),
(313,634,o),
(313,644,o),
(314,653,cs),
(314,659,o),
(314,665,o),
(316,671,cs),
(318,675,o),
(319,680,o),
(317,684,cs),
(313,691,o),
(315,697,o),
(317,703,cs),
(320,712,o),
(327,715,o),
(336,712,cs),
(344,709,o),
(352,707,o),
(360,705,cs),
(366,703,o),
(370,706,o),
(375,709,cs),
(379,712,o),
(383,715,o),
(388,717,cs),
(393,719,o),
(397,717,o),
(399,712,cs),
(401,708,o),
(404,704,o),
(406,700,cs),
(410,692,o),
(414,684,o),
(418,676,cs),
(421,670,o),
(421,666,o),
(420,659,cs),
(415,639,o),
(412,619,o),
(415,598,cs),
(417,584,o),
(412,572,o),
(405,561,cs),
(403,558,o),
(401,556,o),
(400,553,cs),
(397,542,o),
(392,531,o),
(386,520,cs),
(381,513,o),
(378,503,o),
(381,493,cs),
(384,481,o),
(380,478,o),
(368,479,cs),
(367,479,o),
(366,479,o),
(364,479,cs),
(360,479,o),
(355,477,o),
(351,482,cs),
(348,488,o),
(344,494,o),
(345,501,cs),
(345,508,o),
(347,515,o),
(348,521,cs),
(348,523,o),
(349,525,o),
(350,525,cs),
(355,530,o),
(357,536,o),
(359,541,cs),
(362,547,o),
(362,553,o),
(360,559,c)
);
}
);
width = 801;
},
{
hints = (
{
horizontal = 1;
place = (1, 1194);
place = (1, 1194);
type = Stem;
},
{
place = (0, 701);
place = (0, 701);
type = Stem;
}
);
layerId = m002;
shapes = (
{
closed = 1;
nodes = (
(381,406,o),
(366,406,o),
(352,410,cs),
(336,414,o),
(316,416,o),
(307,427,cs),
(279,457,o),
(244,463,o),
(208,472,cs),
(198,474,o),
(183,477,o),
(175,472,cs),
(153,460,o),
(133,463,o),
(114,476,cs),
(81,498,o),
(44,502,o),
(0,494,c),
(4,545,o),
(1,592,o),
(18,636,cs),
(21,645,o),
(35,652,o),
(45,656,cs),
(63,663,o),
(82,670,o),
(102,673,cs),
(135,677,o),
(155,695,o),
(158,727,cs),
(162,776,o),
(162,826,o),
(166,875,cs),
(168,904,o),
(170,934,o),
(180,962,cs),
(188,985,o),
(193,1006,o),
(182,1029,cs),
(165,1061,o),
(171,1093,o),
(183,1125,cs),
(199,1169,o),
(235,1182,o),
(280,1166,cs),
(319,1152,o),
(359,1142,o),
(398,1131,cs),
(427,1123,o),
(449,1137,o),
(471,1153,cs),
(492,1168,o),
(515,1182,o),
(539,1192,cs),
(562,1201,o),
(581,1191,o),
(593,1169,cs),
(604,1148,o),
(616,1128,o),
(627,1107,cs),
(647,1068,o),
(667,1027,o),
(688,987,cs),
(702,960,o),
(704,936,o),
(697,903,cs),
(674,803,o),
(658,701,o),
(674,597,cs),
(684,528,o),
(659,467,o),
(621,411,cs),
(613,398,o),
(603,386,o),
(599,373,cs),
(581,316,o),
(558,262,o),
(527,210,cs),
(503,171,o),
(488,125,o),
(501,73,cs),
(517,12,o),
(499,-4,o),
(439,2,cs),
(432,3,o),
(426,5,o),
(419,5,cs),
(397,4,o),
(373,-7,o),
(355,19,cs),
(336,48,o),
(318,79,o),
(321,115,cs),
(323,148,o),
(331,181,o),
(337,214,cs),
(338,221,o),
(342,231,o),
(348,235,cs),
(375,256,o),
(381,287,o),
(395,315,cs),
(409,344,o),
(409,372,o),
(396,404,c)
);
}
);
width = 801;
},
{
hints = (
{
horizontal = 1;
place = (-638, 2000);
place = (-638, 2000);
type = Stem;
},
{
place = (-641, 1462);
place = (-641, 1462);
type = Stem;
}
);
layerId = m003;
shapes = (
{
closed = 1;
nodes = (
(1143,22,o),
(1098,22,o),
(1056,34,cs),
(1008,46,o),
(948,52,o),
(921,85,cs),
(837,175,o),
(732,193,o),
(624,220,cs),
(594,226,o),
(549,235,o),
(525,220,cs),
(459,184,o),
(399,193,o),
(342,232,cs),
(243,298,o),
(132,310,o),
(0,286,c),
(12,439,o),
(3,580,o),
(54,712,cs),
(63,739,o),
(105,760,o),
(135,772,cs),
(189,793,o),
(246,814,o),
(306,823,cs),
(405,835,o),
(465,889,o),
(474,985,cs),
(486,1132,o),
(486,1282,o),
(498,1429,cs),
(504,1516,o),
(510,1606,o),
(540,1690,cs),
(564,1759,o),
(579,1822,o),
(546,1891,cs),
(495,1987,o),
(513,2083,o),
(549,2179,cs),
(597,2311,o),
(705,2350,o),
(840,2302,cs),
(957,2260,o),
(1077,2230,o),
(1194,2197,cs),
(1281,2173,o),
(1347,2215,o),
(1413,2263,cs),
(1476,2308,o),
(1545,2350,o),
(1617,2380,cs),
(1686,2407,o),
(1743,2377,o),
(1779,2311,cs),
(1812,2248,o),
(1848,2188,o),
(1881,2125,cs),
(1941,2008,o),
(2001,1885,o),
(2064,1765,cs),
(2106,1684,o),
(2112,1612,o),
(2091,1513,cs),
(2022,1213,o),
(1974,907,o),
(2022,595,cs),
(2052,388,o),
(1977,205,o),
(1863,37,cs),
(1839,-2,o),
(1809,-38,o),
(1797,-77,cs),
(1743,-248,o),
(1674,-410,o),
(1581,-566,cs),
(1509,-683,o),
(1464,-821,o),
(1503,-977,cs),
(1551,-1160,o),
(1497,-1208,o),
(1317,-1190,cs),
(1296,-1187,o),
(1278,-1181,o),
(1257,-1181,cs),
(1191,-1184,o),
(1119,-1217,o),
(1065,-1139,cs),
(1008,-1052,o),
(954,-959,o),
(963,-851,cs),
(969,-752,o),
(993,-653,o),
(1011,-554,cs),
(1014,-533,o),
(1026,-503,o),
(1044,-491,cs),
(1125,-428,o),
(1143,-335,o),
(1185,-251,cs),
(1227,-164,o),
(1227,-80,o),
(1188,16,c)
);
}
);
width = 2103;
}
);
note = C;
unicode = 67;
},
{
glyphname = D;
lastChange = "2022-03-10 19:58:56 +0000";
layers = (
{
hints = (
{
horizontal = 1;
place = (117, 82);
place = (117, 82);
type = Stem;
},
{
place = (79, 118);
place = (79, 118);
type = Stem;
}
);
layerId = m01;
shapes = (
{
closed = 1;
nodes = (
(79,134,ls),
(81,133,o),
(84,134,o),
(86,132,cs),
(91,129,o),
(95,131,o),
(98,134,cs),
(104,139,o),
(107,139,o),
(112,133,cs),
(119,124,o),
(119,114,o),
(115,103,c),
(115,103,o),
(114,102,o),
(114,102,c),
(109,92,o),
(107,90,o),
(98,92,cs),
(87,95,o),
(83,100,o),
(83,110,cs),
(82,118,o),
(80,126,o),
(79,134,cs),
(79,134,ls),
(79,134,o),
(79,134,o),
(79,134,c)
);
}
);
width = 297;
},
{
hints = (
{
horizontal = 1;
place = (194, 18);
place = (194, 18);
type = Stem;
},
{
place = (0, 196);
place = (0, 196);
type = Stem;
}
);
layerId = m002;
shapes = (
{
closed = 1;
nodes = (
(1,210,ls),
(13,208,o),
(28,210,o),
(37,204,cs),
(61,185,o),
(80,196,o),
(98,211,cs),
(127,237,o),
(142,237,o),
(166,208,cs),
(204,162,o),
(203,112,o),
(183,59,c),
(181,56,o),
(179,53,o),
(178,50,c),
(151,0,o),
(140,-7,o),
(99,3,cs),
(44,17,o),
(24,42,o),
(20,90,cs),
(17,130,o),
(8,170,o),
(1,210,cs),
(1,212,ls),
(1,211,o),
(0,210,o),
(0,210,c)
);
}
);
width = 297;
},
{
hints = (
{
horizontal = 1;
place = (445, -83);
place = (445, -83);
type = Stem;
},
{
place = (-137, 451);
place = (-137, 451);
type = Stem;
}
);
layerId = m003;
shapes = (
{
closed = 1;
nodes = (
(3,401,ls),
(39,395,o),
(84,401,o),
(111,383,cs),
(183,326,o),
(240,359,o),
(294,404,cs),
(381,482,o),
(426,482,o),
(498,395,cs),
(612,257,o),
(609,107,o),
(549,-52,c),
(543,-61,o),
(537,-70,o),
(534,-79,c),
(453,-229,o),
(420,-250,o),
(297,-220,cs),
(132,-178,o),
(72,-103,o),
(60,41,cs),
(51,161,o),
(24,281,o),
(3,401,cs),
(3,407,ls),
(3,404,o),
(0,401,o),
(0,401,c)
);
}
);
width = 590;
}
);
note = D;
unicode = 68;
},
{
glyphname = E;
lastChange = "2022-03-10 19:58:56 +0000";
layers = (
{
hints = (
{
horizontal = 1;
place = (302, 412);
place = (302, 412);
type = Stem;
},
{
place = (302, 452);
place = (302, 452);
type = Stem;
}
);
layerId = m01;
shapes = (
{
closed = 1;
nodes = (
(411,223,o),
(408,224,o),
(404,226,c),
(406,228,o),
(407,228,o),
(409,229,c),
(408,230,o),
(408,231,o),
(408,231,cs),
(404,233,o),
(400,235,o),
(397,238,cs),
(392,242,o),
(388,246,o),
(381,241,cs),
(378,239,o),
(373,239,o),
(369,238,cs),
(366,236,o),
(363,234,o),
(359,233,c),
(359,227,l),
(358,227,o),
(358,227,o),
(357,227,cs),
(353,229,o),
(350,230,o),
(346,232,cs),
(342,235,o),
(337,238,o),
(337,245,cs),
(337,251,o),
(334,256,o),
(332,261,cs),
(331,264,o),
(330,266,o),
(330,269,cs),
(329,271,o),
(328,273,o),
(327,275,cs),
(326,277,o),
(324,279,o),
(323,282,cs),
(321,285,o),
(319,288,o),
(316,291,cs),
(304,300,o),
(299,313,o),
(303,327,c),
(306,328,o),
(309,329,o),
(312,329,cs),
(318,331,o),
(323,331,o),
(327,326,cs),
(329,324,o),
(332,323,o),
(335,322,cs),
(343,320,o),
(351,318,o),
(359,316,cs),
(367,314,o),
(368,314,o),
(373,320,cs),
(386,336,o),
(389,334,o),
(405,326,cs),
(408,325,o),
(411,323,o),
(414,322,cs),
(426,316,o),
(434,308,o),
(438,295,cs),
(439,289,o),
(443,283,o),
(445,277,cs),
(447,273,o),
(450,269,o),
(451,265,cs),
(455,256,o),
(449,250,o),
(443,244,cs),
(440,240,o),
(435,238,o),
(430,235,cs),
(424,232,o),
(417,230,o),
(414,222,c)
);
}
);
width = 854;
},
{
hints = (
{
horizontal = 1;
place = (0, 554);
place = (0, 554);
type = Stem;
},
{
place = (0, 754);
place = (0, 754);
type = Stem;
}
);
layerId = m002;
shapes = (
{
closed = 1;
nodes = (
(546,8,o),
(533,14,o),
(514,22,c),
(523,30,o),
(529,34,o),
(535,39,c),
(534,41,o),
(533,45,o),
(531,46,cs),
(513,58,o),
(494,67,o),
(477,80,cs),
(452,100,o),
(431,124,o),
(395,97,cs),
(380,86,o),
(358,86,o),
(339,80,cs),
(323,73,o),
(307,64,o),
(289,56,c),
(289,29,l),
(284,28,o),
(280,26,o),
(278,27,cs),
(259,35,o),
(240,42,o),
(224,53,cs),
(200,68,o),
(178,81,o),
(179,117,cs),
(179,145,o),
(160,172,o),
(151,199,cs),
(147,211,o),
(144,224,o),
(140,237,cs),
(136,247,o),
(132,257,o),
(127,266,cs),
(120,278,o),
(114,289,o),
(107,300,cs),
(95,315,o),
(85,333,o),
(71,345,cs),
(14,391,o),
(-12,457,o),
(5,526,c),
(20,530,o),
(35,535,o),
(51,539,cs),
(80,547,o),
(106,549,o),
(128,521,cs),
(136,511,o),
(153,506,o),
(167,502,cs),
(206,491,o),
(247,482,o),
(286,471,cs),
(326,460,o),
(332,461,o),
(358,494,cs),
(421,574,o),
(435,564,o),
(517,523,cs),
(531,516,o),
(546,509,o),
(561,501,cs),
(621,473,o),
(664,432,o),
(681,365,cs),
(689,335,o),
(705,307,o),
(719,279,cs),
(728,258,o),
(741,238,o),
(749,216,cs),
(766,171,o),
(737,140,o),
(709,112,cs),
(691,94,o),
(666,83,o),
(643,69,cs),
(614,51,o),
(579,41,o),
(563,0,c)
);
}
);
width = 854;
},
{
hints = (
{
horizontal = 1;
place = (-694, 968);
place = (-694, 968);
type = Stem;
},
{
place = (-694, 1568);
place = (-694, 1568);
type = Stem;
}
);
layerId = m003;
shapes = (
{
closed = 1;
nodes = (
(1638,-530,o),
(1599,-512,o),
(1542,-488,c),
(1569,-464,o),
(1587,-452,o),
(1605,-437,c),
(1602,-431,o),
(1599,-419,o),
(1593,-416,cs),
(1539,-380,o),
(1482,-353,o),
(1431,-314,cs),
(1356,-254,o),
(1293,-182,o),
(1185,-263,cs),
(1140,-296,o),
(1074,-296,o),
(1017,-314,cs),
(969,-335,o),
(921,-362,o),
(867,-386,c),
(867,-467,l),
(852,-470,o),
(840,-476,o),
(834,-473,cs),
(777,-449,o),
(720,-428,o),
(672,-395,cs),
(600,-350,o),
(534,-311,o),
(537,-203,cs),
(537,-119,o),
(480,-38,o),
(453,43,cs),
(441,79,o),
(432,118,o),
(420,157,cs),
(408,187,o),
(396,217,o),
(381,244,cs),
(360,280,o),
(342,313,o),
(321,346,cs),
(285,391,o),
(255,445,o),
(213,481,cs),
(42,619,o),
(-36,817,o),
(15,1024,c),
(60,1036,o),
(105,1051,o),
(153,1063,cs),
(240,1087,o),
(318,1093,o),
(384,1009,cs),
(408,979,o),
(459,964,o),
(501,952,cs),
(618,919,o),
(741,892,o),
(858,859,cs),
(978,826,o),
(996,829,o),
(1074,928,cs),
(1263,1168,o),
(1305,1138,o),
(1551,1015,cs),
(1593,994,o),
(1638,973,o),
(1683,949,cs),
(1863,865,o),
(1992,742,o),
(2043,541,cs),
(2067,451,o),
(2115,367,o),
(2157,283,cs),
(2184,220,o),
(2223,160,o),
(2247,94,cs),
(2298,-41,o),
(2211,-134,o),
(2127,-218,cs),
(2073,-272,o),
(1998,-305,o),
(1929,-347,cs),
(1842,-401,o),
(1737,-431,o),
(1689,-554,c)
);
}
);
width = 2262;
}
);
note = E;
unicode = 69;
},
{
glyphname = F;
lastChange = "2022-03-10 19:58:56 +0000";
layers = (
{
hints = (
{
horizontal = 1;
place = (138, 190);
place = (138, 190);
type = Stem;
},
{
place = (138, 208);
place = (138, 208);
type = Stem;
}
);
layerId = m01;
shapes = (
{
closed = 1;
nodes = (
(203,132,ls),
(202,128,o),
(199,124,o),
(198,119,cs),
(196,112,o),
(189,104,o),
(181,104,cs),
(179,104,o),
(176,104,o),
(173,103,cs),
(167,102,o),
(162,103,o),
(157,108,cs),
(153,112,o),
(148,114,o),
(144,117,cs),
(136,123,o),
(136,129,o),
(144,135,cs),
(150,139,o),
(156,145,o),
(163,147,cs),
(174,151,o),
(186,155,o),
(199,154,cs),
(204,153,o),
(208,150,o),
(208,142,c)
);
}
);
width = 446;
},
{
hints = (
{
horizontal = 1;
place = (0, 257);
place = (0, 257);
type = Stem;
},
{
place = (0, 346);
place = (0, 346);
type = Stem;
}
);
layerId = m002;
shapes = (
{
closed = 1;
nodes = (
(325,146,ls),
(316,124,o),
(305,104,o),
(300,82,cs),
(290,44,o),
(252,8,o),
(214,6,cs),
(201,5,o),
(187,6,o),
(175,3,cs),
(143,-4,o),
(117,1,o),
(93,25,cs),
(75,44,o),
(49,56,o),
(29,72,cs),
(-10,102,o),
(-10,130,o),
(29,159,cs),
(59,182,o),
(89,210,o),
(124,222,cs),
(180,242,o),
(238,263,o),
(301,255,cs),
(329,252,o),
(346,234,o),
(346,197,c)
);
}
);
width = 446;
},
{
hints = (
{
horizontal = 1;
place = (-286, 485);
place = (-286, 485);
type = Stem;
},
{
place = (-286, 752);
place = (-286, 752);
type = Stem;
}
);
layerId = m003;
shapes = (
{
closed = 1;
nodes = (
(976,181,ls),
(949,115,o),
(916,55,o),
(901,-11,cs),
(871,-125,o),
(757,-233,o),
(643,-239,cs),
(604,-242,o),
(562,-239,o),
(526,-248,cs),
(430,-269,o),
(352,-254,o),
(280,-182,cs),
(226,-125,o),
(148,-89,o),
(88,-41,cs),
(-29,49,o),
(-29,133,o),
(88,220,cs),
(178,289,o),
(268,373,o),
(373,409,cs),
(541,469,o),
(715,532,o),
(904,508,cs),
(988,499,o),
(1039,445,o),
(1039,334,c)
);
}
);
width = 1039;
}
);
note = F;
unicode = 70;
},
{
glyphname = G;
lastChange = "2022-03-10 19:58:56 +0000";
layers = (
{
hints = (
{
horizontal = 1;
place = (136, 188);
place = (136, 188);
type = Stem;
},
{
place = (136, 204);
place = (136, 204);
type = Stem;
}
);
layerId = m01;
shapes = (
{
closed = 1;
nodes = (
(136,107,o),
(134,113,o),
(137,124,cs),
(139,130,o),
(141,135,o),
(146,139,cs),
(152,144,o),
(157,147,o),
(164,145,cs),
(169,145,o),
(174,146,o),
(178,150,cs),
(181,152,o),
(186,154,o),
(189,156,c),
(192,153,o),
(190,147,o),
(196,147,c),
(203,139,o),
(204,128,o),
(203,118,cs),
(203,114,o),
(198,111,o),
(193,112,cs),
(190,113,o),
(187,115,o),
(184,117,cs),
(172,126,o),
(162,119,o),
(153,110,cs),
(151,108,o),
(151,106,o),
(149,104,c)
);
}
);
width = 439;
},
{
hints = (
{
horizontal = 1;
place = (0, 260);
place = (0, 260);
type = Stem;
},
{
place = (0, 339);
place = (0, 339);
type = Stem;
}
);
layerId = m002;
shapes = (
{
closed = 1;
nodes = (
(3,16,o),
(-11,43,o),
(8,101,cs),
(18,129,o),
(28,156,o),
(53,176,cs),
(81,198,o),
(106,213,o),
(143,207,cs),
(167,203,o),
(192,210,o),
(212,228,cs),
(228,241,o),
(249,249,o),
(268,260,c),
(283,244,o),
(272,214,o),
(300,215,c),
(338,173,o),
(342,122,o),
(338,70,cs),
(336,48,o),
(311,35,o),
(287,41,cs),
(271,45,o),
(256,53,o),
(243,63,cs),
(179,109,o),
(129,76,o),
(84,28,cs),
(77,21,o),
(74,11,o),
(68,0,c)
);
}
);
width = 439;
},
{
hints = (
{
horizontal = 1;
place = (-279, 501);
place = (-279, 501);
type = Stem;
},
{
place = (-279, 738);
place = (-279, 738);
type = Stem;
}
);
layerId = m003;
shapes = (
{
closed = 1;
nodes = (
(8,-212,o),
(-34,-131,o),
(23,43,cs),
(53,127,o),
(83,208,o),
(158,268,cs),
(242,334,o),
(317,379,o),
(428,361,cs),
(500,349,o),
(575,370,o),
(635,424,cs),
(683,463,o),
(746,487,o),
(803,520,c),
(848,472,o),
(815,382,o),
(899,385,c),
(1013,259,o),
(1025,106,o),
(1013,-50,cs),
(1007,-116,o),
(932,-155,o),
(860,-137,cs),
(812,-125,o),
(767,-101,o),
(728,-71,cs),
(536,67,o),
(386,-32,o),
(251,-176,cs),
(230,-197,o),
(221,-227,o),
(203,-260,c)
);
}
);
width = 1017;
}
);
note = G;
unicode = 71;
},
{
glyphname = H;
lastChange = "2022-03-10 19:58:56 +0000";
layers = (
{
hints = (
{
horizontal = 1;
place = (76, 126);
place = (76, 126);
type = Stem;
},
{
place = (76, 114);
place = (76, 114);
type = Stem;
}
);
layerId = m01;
shapes = (
{
closed = 1;
nodes = (
(116,116,o),
(112,111,o),
(108,106,cs),
(101,99,o),
(94,98,o),
(86,103,cs),
(76,110,o),
(74,116,o),
(79,126,cs),
(82,132,o),
(85,137,o),
(88,143,cs),
(93,151,o),
(97,151,o),
(105,145,cs),
(111,139,o),
(116,133,o),
(114,123,c)
);
}
);
width = 291;
},
{
hints = (
{
horizontal = 1;
place = (1, 247);
place = (1, 247);
type = Stem;
},
{
place = (0, 190);
place = (0, 190);
type = Stem;
}
);
layerId = m002;
shapes = (
{
closed = 1;
nodes = (
(197,83,o),
(181,56,o),
(157,30,cs),
(125,-4,o),
(89,-9,o),
(49,17,cs),
(-1,51,o),
(-12,84,o),
(12,130,cs),
(28,160,o),
(43,189,o),
(61,217,cs),
(86,256,o),
(105,258,o),
(142,228,cs),
(175,199,o),
(200,167,o),
(187,119,c)
);
}
);
width = 291;
},
{
hints = (
{
horizontal = 1;
place = (-127, 611);
place = (-127, 611);
type = Stem;
},
{
place = (-130, 440);
place = (-130, 440);
type = Stem;
}
);
layerId = m003;
shapes = (
{
closed = 1;
nodes = (
(592,0,o),
(544,-81,o),
(472,-159,cs),
(376,-261,o),
(268,-276,o),
(148,-198,cs),
(-2,-96,o),
(-35,3,o),
(37,141,cs),
(85,231,o),
(130,318,o),
(184,402,cs),
(259,519,o),
(316,525,o),
(427,435,cs),
(526,348,o),
(601,252,o),
(562,108,c)
);
}
);
width = 573;
}
);
note = H;
unicode = 72;
},
{
glyphname = I;
lastChange = "2022-03-10 19:58:56 +0000";
layers = (
{
hints = (
{
horizontal = 1;
place = (98, 174);
place = (98, 174);
type = Stem;
},
{
place = (97, 146);
place = (97, 146);
type = Stem;
}
);
layerId = m01;
shapes = (
{
closed = 1;
nodes = (
(101,167,o),
(104,173,o),
(107,179,cs),
(111,188,o),
(110,197,o),
(105,205,cs),
(99,215,o),
(101,222,o),
(111,227,cs),
(119,232,o),
(127,235,o),
(136,232,cs),
(145,230,o),
(148,225,o),
(144,217,cs),
(138,205,o),
(137,194,o),
(141,181,cs),
(142,178,o),
(142,173,o),
(141,170,cs),
(141,167,o),
(138,162,o),
(135,161,cs),
(127,159,o),
(118,157,o),
(109,156,cs),
(104,155,o),
(99,157,o),
(97,161,c)
);
}
);
width = 343;
},
{
hints = (
{
horizontal = 1;
place = (2, 386);
place = (2, 386);
type = Stem;
},
{
place = (0, 242);
place = (0, 242);
type = Stem;
}
);
layerId = m002;
shapes = (
{
closed = 1;
nodes = (
(18,59,o),
(36,87,o),
(49,116,cs),
(69,161,o),
(66,206,o),
(39,249,cs),
(10,295,o),
(21,330,o),
(67,357,cs),
(107,381,o),
(149,396,o),
(196,383,cs),
(241,371,o),
(254,348,o),
(233,307,cs),
(203,249,o),
(201,190,o),
(217,129,cs),
(222,110,o),
(226,89,o),
(221,71,cs),
(218,55,o),
(204,33,o),
(191,29,cs),
(148,16,o),
(104,7,o),
(60,2,cs),
(35,-2,o),
(11,8,o),
(0,27,c)
);
}
);
width = 343;
},
{
hints = (
{
horizontal = 1;
place = (-177, 975);
place = (-177, 975);
type = Stem;
},
{
place = (-183, 543);
place = (-183, 543);
type = Stem;
}
);
layerId = m003;
shapes = (
{
closed = 1;
nodes = (
(54,-212,o),
(108,-128,o),
(147,-41,cs),
(207,94,o),
(198,229,o),
(117,358,cs),
(30,496,o),
(63,601,o),
(201,682,cs),
(321,754,o),
(447,799,o),
(588,760,cs),
(723,724,o),
(762,655,o),
(699,532,cs),
(609,358,o),
(603,181,o),
(651,-2,cs),
(666,-59,o),
(678,-122,o),
(663,-176,cs),
(654,-224,o),
(612,-290,o),
(573,-302,cs),
(444,-341,o),
(312,-368,o),
(180,-383,cs),
(105,-395,o),
(33,-365,o),
(0,-308,c)
);
}
);
width = 728;
}
);
note = I;
unicode = 73;
},
{
glyphname = J;
lastChange = "2022-03-10 19:58:56 +0000";
layers = (
{
hints = (
{
horizontal = 1;
place = (81, 148);
place = (81, 148);
type = Stem;
},
{
place = (81, 122);
place = (81, 122);
type = Stem;
}
);
layerId = m01;
shapes = (
{
closed = 1;
nodes = (
(96,136,o),
(95,138,o),
(94,140,cs),
(90,147,o),
(88,155,o),
(83,162,cs),
(80,166,o),
(82,172,o),
(82,178,cs),
(82,182,o),
(82,187,o),
(82,191,cs),
(82,194,o),
(83,198,o),
(85,199,cs),
(86,200,o),
(90,200,o),
(93,199,cs),
(95,198,o),
(97,196,o),
(100,195,cs),
(106,191,o),
(112,188,o),
(120,191,c),
(122,184,o),
(122,179,o),
(120,173,cs),
(117,166,o),
(114,160,o),
(111,153,cs),
(109,148,o),
(108,144,o),
(103,141,cs),
(101,140,o),
(100,137,o),
(98,133,c)
);
}
);
width = 303;
},
{
hints = (
{
horizontal = 1;
place = (0, 333);
place = (0, 333);
type = Stem;
},
{
place = (0, 203);
place = (0, 203);
type = Stem;
}
);
layerId = m002;
shapes = (
{
closed = 1;
nodes = (
(75,13,o),
(68,23,o),
(63,34,cs),
(44,71,o),
(35,111,o),
(8,145,cs),
(-5,162,o),
(2,195,o),
(2,222,cs),
(2,244,o),
(2,267,o),
(4,290,cs),
(6,304,o),
(8,322,o),
(17,329,cs),
(26,335,o),
(45,333,o),
(58,329,cs),
(70,325,o),
(80,315,o),
(92,308,cs),
(123,289,o),
(155,274,o),
(195,288,c),
(206,256,o),
(206,228,o),
(193,199,cs),
(177,166,o),
(162,133,o),
(149,99,cs),
(141,75,o),
(132,54,o),
(108,40,cs),
(98,34,o),
(93,17,o),
(83,0,c)
);
}
);
width = 303;
},
{
hints = (
{
horizontal = 1;
place = (-143, 856);
place = (-143, 856);
type = Stem;
},
{
place = (-143, 466);
place = (-143, 466);
type = Stem;
}
);
layerId = m003;
shapes = (
{
closed = 1;
nodes = (
(225,-294,o),
(204,-264,o),
(189,-231,cs),
(132,-120,o),
(105,0,o),
(24,102,cs),
(-15,153,o),
(6,252,o),
(6,333,cs),
(6,399,o),
(6,468,o),
(12,537,cs),
(18,579,o),
(24,633,o),
(51,654,cs),
(78,672,o),
(135,666,o),
(174,654,cs),
(210,642,o),
(240,612,o),
(276,591,cs),
(369,534,o),
(465,489,o),
(585,531,c),
(618,435,o),
(618,351,o),
(579,264,cs),
(531,165,o),
(486,66,o),
(447,-36,cs),
(423,-108,o),
(396,-171,o),
(324,-213,cs),
(294,-231,o),
(279,-282,o),
(249,-333,c)
);
}
);
width = 609;
}
);
note = J;
unicode = 74;
},
{
glyphname = K;
lastChange = "2022-03-10 19:58:56 +0000";
layers = (
{
hints = (
{
horizontal = 1;
place = (146, 219);
place = (146, 219);
type = Stem;
},
{
place = (145, 218);
place = (145, 218);
type = Stem;
}
);
layerId = m01;
shapes = (
{
closed = 1;
nodes = (
(149,212,l),
(149,212,o),
(149,212,o),
(149,212,c),
(150,212,l),
(150,212,o),
(150,212,o),
(150,211,c)
);
},
{
closed = 1;
nodes = (
(144,204,o),
(146,208,o),
(149,212,c),
(149,212,o),
(150,212,o),
(150,212,c),
(153,214,o),
(156,216,o),
(159,218,cs),
(163,222,o),
(167,222,o),
(171,219,cs),
(174,217,o),
(176,214,o),
(179,212,cs),
(185,207,o),
(189,208,o),
(194,213,cs),
(195,214,o),
(196,215,o),
(197,216,cs),
(200,220,o),
(203,221,o),
(207,217,cs),
(215,206,o),
(220,194,o),
(218,179,cs),
(217,174,o),
(213,170,o),
(209,167,cs),
(206,165,o),
(203,163,o),
(202,160,cs),
(200,154,o),
(197,151,o),
(191,150,cs),
(189,150,o),
(187,149,o),
(185,149,cs),
(177,147,o),
(178,147,o),
(173,154,cs),
(168,162,o),
(162,170,o),
(157,179,cs),
(153,185,o),
(150,192,o),
(147,199,cs)
);
},
{
closed = 1;
nodes = (
(151,211,o),
(152,210,o),
(153,209,c),
(154,210,l),
(152,211,o),
(151,211,o),
(150,211,c)
);
}
);
width = 464;
},
{
hints = (
{
horizontal = 1;
place = (1, 367);
place = (1, 367);
type = Stem;
},
{
place = (0, 363);
place = (0, 363);
type = Stem;
}
);
layerId = m002;
shapes = (
{
closed = 1;
nodes = (
(20,321,l),
(20,321,o),
(20,321,o),
(20,321,c),
(21,322,l),
(22,321,o),
(23,321,o),
(24,320,c)
);
},
{
closed = 1;
nodes = (
(-8,283,o),
(2,302,o),
(20,321,c),
(20,321,o),
(21,322,o),
(21,322,c),
(38,332,o),
(55,342,o),
(69,355,cs),
(89,373,o),
(108,371,o),
(128,356,cs),
(141,346,o),
(153,335,o),
(166,324,cs),
(196,299,o),
(216,301,o),
(243,329,cs),
(248,334,o),
(251,340,o),
(256,345,cs),
(274,364,o),
(290,366,o),
(306,346,cs),
(347,291,o),
(372,231,o),
(361,160,cs),
(356,131,o),
(340,113,o),
(317,97,cs),
(304,88,o),
(290,76,o),
(285,62,cs),
(274,34,o),
(257,18,o),
(227,15,cs),
(217,14,o),
(208,9,o),
(198,6,cs),
(159,-4,o),
(161,-3,o),
(140,31,cs),
(113,74,o),
(82,115,o),
(56,159,cs),
(37,190,o),
(24,224,o),
(7,256,cs)
);
},
{
closed = 1;
nodes = (
(29,316,o),
(33,312,o),
(38,308,c),
(41,314,l),
(35,316,o),
(30,318,o),
(24,320,c)
);
}
);
width = 464;
},
{
hints = (
{
horizontal = 1;
place = (-300, 798);
place = (-300, 798);
type = Stem;
},
{
place = (-303, 786);
place = (-303, 786);
type = Stem;
}
);
layerId = m003;
shapes = (
{
closed = 1;
nodes = (
(61,595,l),
(61,595,o),
(61,595,o),
(61,595,c),
(64,598,l),
(67,595,o),
(70,595,o),
(73,592,c)
);
},
{
closed = 1;
nodes = (
(-23,481,o),
(7,538,o),
(61,595,c),
(61,595,o),
(64,598,o),
(64,598,c),
(115,628,o),
(166,658,o),
(208,697,cs),
(268,751,o),
(325,745,o),
(385,700,cs),
(424,670,o),
(460,637,o),
(499,604,cs),
(589,529,o),
(649,535,o),
(730,619,cs),
(745,634,o),
(754,652,o),
(769,667,cs),
(823,724,o),
(871,730,o),
(919,670,cs),
(1042,505,o),
(1117,325,o),
(1084,112,cs),
(1069,25,o),
(1021,-29,o),
(952,-77,cs),
(913,-104,o),
(871,-140,o),
(856,-182,cs),
(823,-266,o),
(772,-314,o),
(682,-323,cs),
(652,-326,o),
(625,-341,o),
(595,-350,cs),
(478,-380,o),
(484,-377,o),
(421,-275,cs),
(340,-146,o),
(247,-23,o),
(169,109,cs),
(112,202,o),
(73,304,o),
(22,400,cs)
);
},
{
closed = 1;
nodes = (
(88,580,o),
(100,568,o),
(115,556,c),
(124,574,l),
(106,580,o),
(91,586,o),
(73,592,c)
);
}
);
width = 1092;
}
);
note = K;
unicode = 75;
},
{
glyphname = L;
lastChange = "2022-03-10 19:58:56 +0000";
layers = (
{
hints = (
{
horizontal = 1;
place = (194, 191);
place = (194, 191);
type = Stem;
},
{
place = (123, 184);
place = (123, 184);
type = Stem;
}
);
layerId = m01;
shapes = (
{
closed = 1;
nodes = (
(156,559,o),
(162,556,o),
(169,553,cs),
(172,550,o),
(176,548,o),
(177,543,cs),
(177,542,o),
(178,541,o),
(179,540,cs),
(187,531,o),
(185,522,o),
(182,512,cs),
(180,505,o),
(174,503,o),
(170,498,cs),
(167,495,o),
(162,493,o),
(158,491,cs),
(156,490,o),
(153,490,o),
(151,491,cs),
(148,492,o),
(145,494,o),
(143,496,cs),
(125,510,o),
(114,530,o),
(132,552,cs),
(137,558,o),
(138,558,o),
(150,558,c)
);
}
);
width = 407;
},
{
hints = (
{
horizontal = 1;
place = (355, 338);
place = (355, 338);
type = Stem;
},
{
place = (0, 307);
place = (0, 307);
type = Stem;
}
);
layerId = m002;
shapes = (
{
closed = 1;
nodes = (
(166,697,o),
(197,685,o),
(228,666,cs),
(247,655,o),
(264,643,o),
(269,620,cs),
(271,614,o),
(274,607,o),
(279,602,cs),
(320,560,o),
(308,512,o),
(295,462,cs),
(286,427,o),
(254,416,o),
(233,394,cs),
(218,377,o),
(194,368,o),
(173,358,cs),
(164,354,o),
(151,355,o),
(141,359,cs),
(126,365,o),
(111,373,o),
(98,383,cs),
(11,455,o),
(-43,555,o),
(46,661,cs),
(72,691,o),
(77,693,o),
(134,692,c)
);
}
);
width = 407;
},
{
hints = (
{
horizontal = 1;
place = (817, 766);
place = (817, 766);
type = Stem;
},
{
place = (-248, 673);
place = (-248, 673);
type = Stem;
}
);
layerId = m003;
shapes = (
{
closed = 1;
nodes = (
(497,1042,o),
(590,1006,o),
(683,949,cs),
(740,916,o),
(791,880,o),
(806,811,cs),
(812,793,o),
(821,772,o),
(836,757,cs),
(959,631,o),
(923,487,o),
(884,337,cs),
(857,232,o),
(761,199,o),
(698,133,cs),
(653,82,o),
(581,55,o),
(518,25,cs),
(491,13,o),
(452,16,o),
(422,28,cs),
(377,46,o),
(332,70,o),
(293,100,cs),
(32,316,o),
(-130,616,o),
(137,934,cs),
(215,1024,o),
(230,1030,o),
(401,1027,c)
);
}
);
width = 921;
}
);
note = L;
unicode = 76;
},
{
glyphname = M;
lastChange = "2022-03-10 19:58:56 +0000";
layers = (
{
hints = (
{
horizontal = 1;
place = (347, 471);
place = (347, 471);
type = Stem;
},
{
place = (347, 521);
place = (347, 521);
type = Stem;
}
);
layerId = m01;
shapes = (
{
closed = 1;
nodes = (
(505,370,o),
(506,369,o),
(507,369,cs),
(516,363,o),
(517,354,o),
(518,345,cs),
(520,333,o),
(520,322,o),
(521,310,cs),
(521,306,o),
(518,301,o),
(515,298,cs),
(511,291,o),
(506,285,o),
(500,279,cs),
(495,274,o),
(489,269,o),
(481,269,cs),
(476,269,o),
(472,268,o),
(468,266,cs),
(455,261,o),
(442,255,o),
(428,250,cs),
(417,246,o),
(407,248,o),
(396,253,cs),
(386,258,o),
(380,265,o),
(373,272,cs),
(366,279,o),
(359,285,o),
(352,292,cs),
(345,298,o),
(346,303,o),
(350,310,cs),
(356,319,o),
(361,328,o),
(365,338,cs),
(369,348,o),
(375,351,o),
(384,344,cs),
(392,339,o),
(399,341,o),
(407,340,cs),
(409,340,o),
(411,341,o),
(412,342,cs),
(416,349,o),
(422,349,o),
(428,348,cs),
(436,348,o),
(443,349,o),
(450,353,cs),
(451,354,o),
(453,356,o),
(454,355,cs),
(470,353,o),
(482,363,o),
(495,368,cs),
(498,369,o),
(501,370,o),
(504,372,c)
);
}
);
width = 968;
},
{
hints = (
{
horizontal = 1;
place = (0, 619);
place = (0, 619);
type = Stem;
},
{
place = (0, 868);
place = (0, 868);
type = Stem;
}
);
layerId = m002;
shapes = (
{
closed = 1;
nodes = (
(791,612,o),
(794,607,o),
(798,604,cs),
(844,577,o),
(848,529,o),
(854,485,cs),
(863,427,o),
(867,369,o),
(868,311,cs),
(868,290,o),
(855,267,o),
(842,249,cs),
(820,217,o),
(795,185,o),
(767,157,cs),
(741,130,o),
(711,106,o),
(668,106,cs),
(647,107,o),
(626,100,o),
(606,93,cs),
(539,67,o),
(474,37,o),
(407,12,cs),
(351,-9,o),
(298,0,o),
(244,26,cs),
(197,49,o),
(166,87,o),
(130,122,cs),
(96,155,o),
(59,187,o),
(25,220,cs),
(-8,252,o),
(-7,274,o),
(17,313,cs),
(43,357,o),
(69,402,o),
(88,450,cs),
(108,499,o),
(141,514,o),
(186,482,cs),
(224,456,o),
(262,467,o),
(300,461,cs),
(308,459,o),
(322,466,o),
(326,472,cs),
(345,504,o),
(375,506,o),
(405,503,cs),
(445,500,o),
(481,507,o),
(514,528,cs),
(521,533,o),
(530,539,o),
(537,538,cs),
(616,524,o),
(674,576,o),
(740,601,cs),
(754,607,o),
(768,612,o),
(785,619,c)
);
}
);
width = 968;
},
{
hints = (
{
horizontal = 1;
place = (-808, 1049);
place = (-808, 1049);
type = Stem;
},
{
place = (-808, 1796);
place = (-808, 1796);
type = Stem;
}
);
layerId = m003;
shapes = (
{
closed = 1;
nodes = (
(2374,1217,o),
(2383,1202,o),
(2395,1193,cs),
(2533,1112,o),
(2545,968,o),
(2563,836,cs),
(2590,662,o),
(2602,488,o),
(2605,314,cs),
(2605,251,o),
(2566,182,o),
(2527,128,cs),
(2461,32,o),
(2386,-64,o),
(2302,-148,cs),
(2224,-229,o),
(2134,-301,o),
(2005,-301,cs),
(1942,-298,o),
(1879,-319,o),
(1819,-340,cs),
(1618,-418,o),
(1423,-508,o),
(1222,-583,cs),
(1054,-646,o),
(895,-619,o),
(733,-541,cs),
(592,-472,o),
(499,-358,o),
(391,-253,cs),
(289,-154,o),
(178,-58,o),
(76,41,cs),
(-23,137,o),
(-20,203,o),
(52,320,cs),
(130,452,o),
(208,587,o),
(265,731,cs),
(325,878,o),
(424,923,o),
(559,827,cs),
(673,749,o),
(787,782,o),
(901,764,cs),
(925,758,o),
(967,779,o),
(979,797,cs),
(1036,893,o),
(1126,899,o),
(1216,890,cs),
(1336,881,o),
(1444,902,o),
(1543,965,cs),
(1564,980,o),
(1591,998,o),
(1612,995,cs),
(1849,953,o),
(2023,1109,o),
(2221,1184,cs),
(2263,1202,o),
(2305,1217,o),
(2356,1238,c)
);
}
);
width = 2605;
}
);
note = M;
unicode = 77;
},
{
glyphname = N;
lastChange = "2022-03-10 19:58:56 +0000";
layers = (
{
hints = (
{
horizontal = 1;
place = (157, 281);
place = (157, 281);
type = Stem;
},
{
place = (157, 236);
place = (157, 236);
type = Stem;
}
);
layerId = m01;
shapes = (
{
closed = 1;
nodes = (
(175,329,o),
(177,334,o),
(181,337,cs),
(189,345,o),
(192,354,o),
(193,365,cs),
(194,369,o),
(194,373,o),
(200,374,c),
(203,367,o),
(205,360,o),
(204,352,cs),
(203,341,o),
(204,330,o),
(206,319,cs),
(208,305,o),
(214,294,o),
(221,282,cs),
(222,281,o),
(223,279,o),
(224,278,cs),
(233,276,o),
(232,268,o),
(236,261,c),
(232,260,o),
(229,259,o),
(226,258,cs),
(216,255,o),
(205,253,o),
(195,250,cs),
(187,248,o),
(177,251,o),
(173,259,cs),
(171,265,o),
(168,271,o),
(168,278,cs),
(167,285,o),
(165,290,o),
(161,296,cs),
(155,304,o),
(156,306,o),
(161,314,cs),
(164,319,o),
(167,323,o),
(172,323,c)
);
}
);
width = 493;
},
{
hints = (
{
horizontal = 1;
place = (1, 622);
place = (1, 622);
type = Stem;
},
{
place = (0, 393);
place = (0, 393);
type = Stem;
}
);
layerId = m002;
shapes = (
{
closed = 1;
nodes = (
(92,397,o),
(102,423,o),
(120,440,cs),
(160,478,o),
(176,524,o),
(182,576,cs),
(184,597,o),
(186,616,o),
(214,623,c),
(228,587,o),
(241,555,o),
(236,514,cs),
(228,459,o),
(236,403,o),
(245,347,cs),
(256,278,o),
(284,221,o),
(320,165,cs),
(325,158,o),
(329,147,o),
(335,145,cs),
(379,134,o),
(375,93,o),
(393,58,c),
(374,52,o),
(360,46,o),
(345,42,cs),
(293,29,o),
(241,19,o),
(190,4,cs),
(149,-7,o),
(100,8,o),
(82,47,cs),
(68,76,o),
(55,109,o),
(54,141,cs),
(52,177,o),
(41,205,o),
(21,233,cs),
(-9,274,o),
(-6,281,o),
(21,324,cs),
(36,349,o),
(52,366,o),
(74,366,c)
);
}
);
width = 493;
},
{
hints = (
{
horizontal = 1;
place = (-330, 1533);
place = (-330, 1533);
type = Stem;
},
{
place = (-333, 846);
place = (-333, 846);
type = Stem;
}
);
layerId = m003;
shapes = (
{
closed = 1;
nodes = (
(277,568,o),
(307,646,o),
(361,697,cs),
(481,811,o),
(529,949,o),
(547,1105,cs),
(553,1168,o),
(559,1225,o),
(643,1246,c),
(685,1138,o),
(724,1042,o),
(709,919,cs),
(685,754,o),
(709,586,o),
(736,418,cs),
(769,211,o),
(853,40,o),
(961,-128,cs),
(976,-149,o),
(988,-182,o),
(1006,-188,cs),
(1138,-221,o),
(1126,-344,o),
(1180,-449,c),
(1123,-467,o),
(1081,-485,o),
(1036,-497,cs),
(880,-536,o),
(724,-566,o),
(571,-611,cs),
(448,-644,o),
(301,-599,o),
(247,-482,cs),
(205,-395,o),
(166,-296,o),
(163,-200,cs),
(157,-92,o),
(124,-8,o),
(64,76,cs),
(-26,199,o),
(-17,220,o),
(64,349,cs),
(109,424,o),
(157,475,o),
(223,475,c)
);
}
);
width = 1180;
}
);
note = N;
unicode = 78;
},
{
glyphname = O;
lastChange = "2022-03-10 19:58:56 +0000";
layers = (
{
hints = (
{
horizontal = 1;
place = (125, 179);
place = (125, 179);
type = Stem;
},
{
place = (106, 159);
place = (106, 159);
type = Stem;
}
);
layerId = m01;
shapes = (
{
closed = 1;
nodes = (
(135,310,o),
(145,302,o),
(155,294,cs),
(160,290,o),
(160,287,o),
(155,283,cs),
(151,279,o),
(149,275,o),
(148,269,cs),
(147,263,o),
(145,258,o),
(143,253,cs),
(140,245,o),
(131,243,o),
(126,249,cs),
(119,259,o),
(111,268,o),
(108,280,cs),
(105,288,o),
(105,297,o),
(109,305,cs),
(112,310,o),
(119,314,o),
(124,319,c)
);
}
);
width = 365;
},
{
hints = (
{
horizontal = 1;
place = (98, 368);
place = (98, 368);
type = Stem;
},
{
place = (0, 265);
place = (0, 265);
type = Stem;
}
);
layerId = m002;
shapes = (
{
closed = 1;
nodes = (
(147,422,o),
(198,383,o),
(247,342,cs),
(270,323,o),
(271,309,o),
(247,288,cs),
(224,268,o),
(215,245,o),
(211,215,cs),
(208,188,o),
(198,160,o),
(187,135,cs),
(171,95,o),
(128,85,o),
(102,118,cs),
(65,165,o),
(27,211,o),
(9,270,cs),
(-4,312,o),
(-4,358,o),
(17,395,cs),
(33,424,o),
(66,443,o),
(91,466,c)
);
}
);
width = 365;
},
{
hints = (
{
horizontal = 1;
place = (89, 899);
place = (89, 899);
type = Stem;
},
{
place = (-205, 590);
place = (-205, 590);
type = Stem;
}
);
layerId = m003;
shapes = (
{
closed = 1;
nodes = (
(441,702,o),
(594,585,o),
(741,462,cs),
(810,405,o),
(813,363,o),
(741,300,cs),
(672,240,o),
(645,171,o),
(633,81,cs),
(624,0,o),
(594,-84,o),
(561,-159,cs),
(513,-279,o),
(384,-309,o),
(306,-210,cs),
(195,-69,o),
(81,69,o),
(27,246,cs),
(-12,372,o),
(-12,510,o),
(51,621,cs),
(99,708,o),
(198,765,o),
(273,834,c)
);
}
);
width = 794;
}
);
note = O;
unicode = 79;
},
{
glyphname = P;
lastChange = "2022-03-10 19:58:56 +0000";
layers = (
{
hints = (
{
horizontal = 1;
place = (77, 167);
place = (77, 167);
type = Stem;
},
{
place = (72, 107);
place = (72, 107);
type = Stem;
}
);
layerId = m01;
shapes = (
{
closed = 1;
nodes = (
(108,310,o),
(108,306,o),
(106,301,cs),
(106,300,o),
(106,299,o),
(106,298,cs),
(97,285,o),
(99,271,o),
(102,257,cs),
(103,252,o),
(103,247,o),
(100,243,cs),
(97,236,o),
(94,229,o),
(89,222,cs),
(85,215,o),
(78,216,o),
(75,224,cs),
(71,233,o),
(71,242,o),
(74,252,cs),
(76,257,o),
(77,261,o),
(75,266,cs),
(72,275,o),
(73,285,o),
(77,294,cs),
(80,300,o),
(86,304,o),
(92,309,cs),
(94,311,o),
(98,311,o),
(101,313,c)
);
}
);
width = 279;
},
{
hints = (
{
horizontal = 1;
place = (27, 477);
place = (27, 477);
type = Stem;
},
{
place = (0, 179);
place = (0, 179);
type = Stem;
}
);
layerId = m002;
shapes = (
{
closed = 1;
nodes = (
(180,491,o),
(184,469,o),
(174,442,cs),
(172,437,o),
(172,432,o),
(170,428,cs),
(129,362,o),
(138,292,o),
(150,222,cs),
(155,198,o),
(156,176,o),
(144,154,cs),
(125,119,o),
(110,82,o),
(88,49,cs),
(65,16,o),
(30,20,o),
(15,57,cs),
(-4,103,o),
(-5,151,o),
(12,198,cs),
(21,222,o),
(25,245,o),
(17,270,cs),
(3,316,o),
(7,366,o),
(26,407,cs),
(40,437,o),
(74,459,o),
(101,482,cs),
(113,492,o),
(130,496,o),
(147,504,c)
);
}
);
width = 279;
},
{
hints = (
{
horizontal = 1;
place = (-38, 1312);
place = (-38, 1312);
type = Stem;
},
{
place = (-119, 418);
place = (-119, 418);
type = Stem;
}
);
layerId = m003;
shapes = (
{
closed = 1;
nodes = (
(540,942,o),
(552,876,o),
(522,795,cs),
(516,780,o),
(516,765,o),
(510,753,cs),
(387,555,o),
(414,345,o),
(450,135,cs),
(465,63,o),
(468,-3,o),
(432,-69,cs),
(375,-174,o),
(330,-285,o),
(264,-384,cs),
(195,-483,o),
(90,-471,o),
(45,-360,cs),
(-12,-222,o),
(-15,-78,o),
(36,63,cs),
(63,135,o),
(75,204,o),
(51,279,cs),
(9,417,o),
(21,567,o),
(78,690,cs),
(120,780,o),
(222,846,o),
(303,915,cs),
(339,945,o),
(390,957,o),
(441,981,c)
);
}
);
width = 536;
}
);
note = P;
unicode = 80;
},
{
glyphname = Q;
lastChange = "2022-03-10 19:58:56 +0000";
layers = (
{
hints = (
{
horizontal = 1;
place = (184, 260);
place = (184, 260);
type = Stem;
},
{
place = (172, 258);
place = (172, 258);
type = Stem;
}
);
layerId = m01;
shapes = (
{
closed = 1;
nodes = (
(188,324,o),
(193,323,o),
(197,318,cs),
(209,304,o),
(223,295,o),
(241,292,cs),
(249,290,o),
(253,285,o),
(255,277,cs),
(256,271,o),
(257,266,o),
(258,260,cs),
(260,252,o),
(257,245,o),
(250,238,c),
(249,245,o),
(247,250,o),
(247,255,cs),
(247,264,o),
(242,270,o),
(235,275,cs),
(229,280,o),
(225,279,o),
(222,272,cs),
(221,270,o),
(220,267,o),
(219,264,cs),
(218,258,o),
(215,254,o),
(209,251,cs),
(205,250,o),
(202,245,o),
(199,242,cs),
(194,235,o),
(189,234,o),
(182,240,cs),
(174,249,o),
(172,259,o),
(172,270,cs),
(173,280,o),
(173,289,o),
(174,298,cs),
(175,307,o),
(178,315,o),
(181,324,c)
);
}
);
width = 531;
},
{
hints = (
{
horizontal = 1;
place = (60, 439);
place = (60, 439);
type = Stem;
},
{
place = (0, 430);
place = (0, 430);
type = Stem;
}
);
layerId = m002;
shapes = (
{
closed = 1;
nodes = (
(78,502,o),
(103,495,o),
(126,469,cs),
(183,401,o),
(256,357,o),
(344,339,cs),
(385,331,o),
(405,303,o),
(412,264,cs),
(418,236,o),
(423,208,o),
(428,181,cs),
(437,140,o),
(422,107,o),
(387,69,c),
(382,103,o),
(374,128,o),
(374,153,cs),
(375,201,o),
(348,231,o),
(314,257,cs),
(286,279,o),
(266,273,o),
(251,241,cs),
(245,228,o),
(241,213,o),
(236,199,cs),
(227,171,o),
(214,150,o),
(184,137,cs),
(165,129,o),
(149,107,o),
(136,89,cs),
(109,53,o),
(83,51,o),
(51,82,cs),
(7,123,o),
(-1,176,o),
(0,232,cs),
(2,278,o),
(2,325,o),
(9,370,cs),
(16,414,o),
(31,456,o),
(43,499,c)
);
}
);
width = 531;
},
{
hints = (
{
horizontal = 1;
place = (-190, 947);
place = (-190, 947);
type = Stem;
},
{
place = (-370, 920);
place = (-370, 920);
type = Stem;
}
);
layerId = m003;
shapes = (
{
closed = 1;
nodes = (
(234,946,o),
(309,925,o),
(378,847,cs),
(549,643,o),
(768,511,o),
(1032,457,cs),
(1155,433,o),
(1215,349,o),
(1236,232,cs),
(1254,148,o),
(1269,64,o),
(1284,-17,cs),
(1311,-140,o),
(1266,-239,o),
(1161,-353,c),
(1146,-251,o),
(1122,-176,o),
(1122,-101,cs),
(1125,43,o),
(1044,133,o),
(942,211,cs),
(858,277,o),
(798,259,o),
(753,163,cs),
(735,124,o),
(723,79,o),
(708,37,cs),
(681,-47,o),
(642,-110,o),
(552,-149,cs),
(495,-173,o),
(447,-239,o),
(408,-293,cs),
(327,-401,o),
(249,-407,o),
(153,-314,cs),
(21,-191,o),
(-3,-32,o),
(0,136,cs),
(6,274,o),
(6,415,o),
(27,550,cs),
(48,682,o),
(93,808,o),
(129,937,c)
);
}
);
width = 1292;
}
);
note = Q;
unicode = 81;
},
{
glyphname = R;
lastChange = "2022-03-10 19:58:56 +0000";
layers = (
{
hints = (
{
horizontal = 1;
place = (144, 289);
place = (144, 289);
type = Stem;
},
{
place = (191, 287);
place = (191, 287);
type = Stem;
}
);
layerId = m01;
shapes = (
{
closed = 1;
nodes = (
(213,33,o),
(218,32,o),
(223,32,cs),
(230,31,o),
(236,33,o),
(241,38,cs),
(243,40,o),
(246,42,o),
(248,44,cs),
(252,51,o),
(259,54,o),
(266,56,cs),
(272,57,o),
(278,58,o),
(283,53,cs),
(288,47,o),
(288,40,o),
(286,34,cs),
(281,21,o),
(270,13,o),
(256,12,cs),
(246,11,o),
(240,4,o),
(236,-3,cs),
(232,-10,o),
(230,-17,o),
(227,-24,cs),
(225,-28,o),
(224,-32,o),
(221,-36,cs),
(218,-40,o),
(213,-43,o),
(207,-40,cs),
(206,-40,o),
(205,-39,o),
(204,-39,cs),
(198,-39,o),
(194,-36,o),
(192,-31,cs),
(190,-25,o),
(192,-19,o),
(197,-14,cs),
(199,-12,o),
(202,-10,o),
(205,-8,cs),
(215,0,o),
(215,1,o),
(212,13,cs),
(211,16,o),
(208,19,o),
(208,23,cs),
(207,25,o),
(207,29,o),
(207,33,c)
);
}
);
width = 578;
},
{
hints = (
{
horizontal = 1;
place = (-237, 489);
place = (-237, 489);
type = Stem;
},
{
place = (0, 478);
place = (0, 478);
type = Stem;
}
);
layerId = m002;
shapes = (
{
closed = 1;
nodes = (
(106,132,o),
(131,131,o),
(156,127,cs),
(191,122,o),
(221,133,o),
(246,158,cs),
(258,169,o),
(274,178,o),
(282,191,cs),
(304,226,o),
(337,238,o),
(373,248,cs),
(404,255,o),
(434,257,o),
(457,233,cs),
(482,206,o),
(483,170,o),
(471,139,cs),
(446,73,o),
(391,34,o),
(324,28,cs),
(271,22,o),
(244,-9,o),
(221,-47,cs),
(202,-80,o),
(193,-118,o),
(178,-153,cs),
(170,-173,o),
(161,-193,o),
(148,-210,cs),
(131,-232,o),
(108,-246,o),
(78,-231,cs),
(74,-229,o),
(69,-227,o),
(64,-227,cs),
(33,-228,o),
(12,-212,o),
(4,-184,cs),
(-5,-154,o),
(1,-124,o),
(26,-102,cs),
(39,-90,o),
(55,-80,o),
(69,-69,cs),
(117,-33,o),
(120,-24,o),
(103,32,cs),
(97,49,o),
(85,64,o),
(81,82,cs),
(77,96,o),
(80,113,o),
(80,135,c)
);
}
);
width = 578;
},
{
hints = (
{
horizontal = 1;
place = (-1130, 1048);
place = (-1130, 1048);
type = Stem;
},
{
place = (-419, 1015);
place = (-419, 1015);
type = Stem;
}
);
layerId = m003;
shapes = (
{
closed = 1;
nodes = (
(318,381,o),
(393,378,o),
(468,366,cs),
(573,351,o),
(663,384,o),
(738,459,cs),
(774,492,o),
(822,519,o),
(846,558,cs),
(912,663,o),
(1011,699,o),
(1119,729,cs),
(1212,750,o),
(1302,756,o),
(1371,684,cs),
(1446,603,o),
(1449,495,o),
(1413,402,cs),
(1338,204,o),
(1173,87,o),
(972,69,cs),
(813,51,o),
(732,-42,o),
(663,-156,cs),
(606,-255,o),
(579,-369,o),
(534,-474,cs),
(510,-534,o),
(483,-594,o),
(444,-645,cs),
(393,-711,o),
(324,-753,o),
(234,-708,cs),
(222,-702,o),
(207,-696,o),
(192,-696,cs),
(99,-699,o),
(36,-651,o),
(12,-567,cs),
(-15,-477,o),
(3,-387,o),
(78,-321,cs),
(117,-285,o),
(165,-255,o),
(207,-222,cs),
(351,-114,o),
(360,-87,o),
(309,81,cs),
(291,132,o),
(255,177,o),
(243,231,cs),
(231,273,o),
(240,324,o),
(240,390,c)
);
}
);
width = 1435;
}
);
note = R;
unicode = 82;
},
{
glyphname = S;
lastChange = "2022-03-10 19:58:56 +0000";
layers = (
{
hints = (
{
horizontal = 1;
place = (249, 378);
place = (249, 378);
type = Stem;
},
{
place = (245, 367);
place = (245, 367);
type = Stem;
}
);
layerId = m01;
shapes = (
{
closed = 1;
nodes = (
(350,284,o),
(345,287,o),
(341,299,c),
(341,301,o),
(341,302,o),
(340,303,cs),
(338,308,o),
(334,311,o),
(329,311,cs),
(324,312,o),
(322,308,o),
(320,304,cs),
(320,303,o),
(319,302,o),
(319,301,c),
(314,291,o),
(309,288,o),
(299,292,cs),
(282,298,o),
(266,305,o),
(255,320,cs),
(252,324,o),
(249,329,o),
(248,334,cs),
(244,344,o),
(242,355,o),
(252,363,cs),
(258,368,o),
(263,373,o),
(268,379,cs),
(273,387,o),
(277,395,o),
(282,402,cs),
(283,405,o),
(284,409,o),
(286,412,cs),
(289,419,o),
(294,422,o),
(301,417,cs),
(312,408,o),
(326,401,o),
(328,384,cs),
(330,373,o),
(333,362,o),
(335,352,cs),
(336,345,o),
(335,338,o),
(335,331,cs),
(335,321,o),
(340,316,o),
(349,316,cs),
(362,316,o),
(369,309,o),
(367,296,cs),
(366,293,o),
(365,290,o),
(364,287,c)
);
}
);
width = 712;
},
{
hints = (
{
horizontal = 1;
place = (19, 667);
place = (19, 667);
type = Stem;
},
{
place = (1, 611);
place = (1, 611);
type = Stem;
}
);
layerId = m002;
shapes = (
{
closed = 1;
nodes = (
(527,9,o),
(502,23,o),
(483,85,c),
(482,92,o),
(480,98,o),
(477,104,cs),
(465,128,o),
(444,144,o),
(419,146,cs),
(397,147,o),
(386,127,o),
(377,108,cs),
(375,104,o),
(373,99,o),
(370,95,c),
(345,46,o),
(322,31,o),
(270,49,cs),
(187,78,o),
(105,113,o),
(52,189,cs),
(36,211,o),
(23,235,o),
(15,260,cs),
(-3,311,o),
(-13,362,o),
(38,405,cs),
(67,429,o),
(93,456,o),
(116,486,cs),
(142,522,o),
(163,562,o),
(185,601,cs),
(193,615,o),
(198,632,o),
(205,647,cs),
(222,685,o),
(246,698,o),
(279,674,cs),
(338,630,o),
(405,592,o),
(417,507,cs),
(425,453,o),
(441,401,o),
(449,347,cs),
(454,313,o),
(451,277,o),
(451,243,cs),
(451,195,o),
(475,170,o),
(520,170,cs),
(588,171,o),
(620,135,o),
(610,68,cs),
(607,53,o),
(602,39,o),
(598,26,c)
);
}
);
width = 712;
},
{
hints = (
{
horizontal = 1;
place = (-495, 1449);
place = (-495, 1449);
type = Stem;
},
{
place = (-549, 1281);
place = (-549, 1281);
type = Stem;
}
);
layerId = m003;
shapes = (
{
closed = 1;
nodes = (
(1580,-678,o),
(1505,-636,o),
(1448,-450,c),
(1445,-429,o),
(1439,-411,o),
(1430,-393,cs),
(1394,-321,o),
(1331,-273,o),
(1256,-267,cs),
(1190,-264,o),
(1157,-324,o),
(1130,-381,cs),
(1124,-393,o),
(1118,-408,o),
(1109,-420,c),
(1034,-567,o),
(965,-612,o),
(809,-558,cs),
(560,-471,o),
(314,-366,o),
(155,-138,cs),
(107,-72,o),
(68,0,o),
(44,75,cs),
(-10,228,o),
(-40,381,o),
(113,510,cs),
(200,582,o),
(278,663,o),
(347,753,cs),
(425,861,o),
(488,981,o),
(554,1098,cs),
(578,1140,o),
(593,1191,o),
(614,1236,cs),
(665,1350,o),
(737,1389,o),
(836,1317,cs),
(1013,1185,o),
(1214,1071,o),
(1250,816,cs),
(1274,654,o),
(1322,498,o),
(1346,336,cs),
(1361,234,o),
(1352,126,o),
(1352,24,cs),
(1352,-120,o),
(1424,-195,o),
(1559,-195,cs),
(1763,-192,o),
(1859,-300,o),
(1829,-501,cs),
(1820,-546,o),
(1805,-588,o),
(1793,-627,c)
);
}
);
width = 1834;
}
);
note = S;
unicode = 83;
},
{
glyphname = T;
lastChange = "2022-03-10 19:58:56 +0000";
layers = (
{
hints = (
{
horizontal = 1;
place = (169, 341);
place = (169, 341);
type = Stem;
},
{
place = (174, 260);
place = (174, 260);
type = Stem;
}
);
layerId = m01;
shapes = (
{
closed = 1;
nodes = (
(233,342,o),
(228,350,o),
(220,355,cs),
(210,361,o),
(206,371,o),
(201,381,cs),
(198,387,o),
(198,393,o),
(195,399,cs),
(192,404,o),
(189,410,o),
(184,414,cs),
(172,428,o),
(171,442,o),
(178,458,cs),
(181,464,o),
(182,471,o),
(184,477,cs),
(184,479,o),
(186,481,o),
(188,482,cs),
(203,487,o),
(221,473,o),
(221,457,cs),
(221,456,o),
(221,455,o),
(221,454,cs),
(216,446,o),
(218,438,o),
(220,430,cs),
(223,420,o),
(225,409,o),
(228,399,cs),
(230,394,o),
(233,391,o),
(238,390,cs),
(246,387,o),
(250,381,o),
(252,374,cs),
(254,364,o),
(257,354,o),
(259,344,cs),
(262,331,o),
(260,326,o),
(249,318,cs),
(240,312,o),
(234,315,o),
(233,326,cs),
(232,328,o),
(233,330,o),
(233,333,cs)
);
}
);
width = 533;
},
{
hints = (
{
horizontal = 1;
place = (-20, 839);
place = (-20, 839);
type = Stem;
},
{
place = (1, 432);
place = (1, 432);
type = Stem;
}
);
layerId = m002;
shapes = (
{
closed = 1;
nodes = (
(296,116,o),
(272,156,o),
(234,179,cs),
(183,211,o),
(161,260,o),
(137,309,cs),
(124,337,o),
(122,370,o),
(108,398,cs),
(95,426,o),
(77,453,o),
(55,476,cs),
(-7,542,o),
(-14,613,o),
(23,695,cs),
(37,724,o),
(41,758,o),
(52,789,cs),
(55,798,o),
(63,810,o),
(72,813,cs),
(147,839,o),
(240,771,o),
(239,691,cs),
(239,684,o),
(240,677,o),
(237,672,cs),
(213,633,o),
(224,594,o),
(233,555,cs),
(246,502,o),
(260,449,o),
(275,397,cs),
(282,373,o),
(297,359,o),
(323,352,cs),
(362,341,o),
(383,311,o),
(392,274,cs),
(404,224,o),
(416,173,o),
(427,123,cs),
(442,60,o),
(431,32,o),
(379,-5,cs),
(335,-35,o),
(302,-21,o),
(296,32,cs),
(295,44,o),
(296,55,o),
(296,67,cs)
);
}
);
width = 533;
},
{
hints = (
{
horizontal = 1;
place = (-434, 2000);
place = (-434, 2000);
type = Stem;
},
{
place = (-371, 922);
place = (-371, 922);
type = Stem;
}
);
layerId = m003;
shapes = (
{
closed = 1;
nodes = (
(887,-450,o),
(815,-330,o),
(701,-261,cs),
(548,-165,o),
(482,-18,o),
(410,129,cs),
(371,213,o),
(365,312,o),
(323,396,cs),
(284,480,o),
(230,561,o),
(164,630,cs),
(-22,828,o),
(-43,1041,o),
(68,1287,cs),
(110,1374,o),
(122,1476,o),
(155,1569,cs),
(164,1596,o),
(188,1632,o),
(215,1641,cs),
(440,1719,o),
(719,1515,o),
(716,1275,cs),
(716,1254,o),
(719,1233,o),
(710,1218,cs),
(638,1101,o),
(671,984,o),
(698,867,cs),
(737,708,o),
(779,549,o),
(824,393,cs),
(845,321,o),
(890,279,o),
(968,258,cs),
(1085,225,o),
(1148,135,o),
(1175,24,cs),
(1211,-126,o),
(1247,-279,o),
(1280,-429,cs),
(1325,-618,o),
(1292,-702,o),
(1136,-813,cs),
(1004,-903,o),
(905,-861,o),
(887,-702,cs),
(884,-666,o),
(887,-633,o),
(887,-597,cs)
);
}
);
width = 1299;
}
);
note = T;
unicode = 84;
},
{
glyphname = U;
lastChange = "2022-03-10 19:58:56 +0000";
layers = (
{
hints = (
{
horizontal = 1;
place = (262, 278);
place = (262, 278);
type = Stem;
},
{
place = (186, 279);
place = (186, 279);
type = Stem;
}
);
layerId = m01;
shapes = (
{
closed = 1;
nodes = (
(234,606,o),
(230,594,o),
(227,583,cs),
(226,580,o),
(226,577,o),
(226,574,cs),
(226,568,o),
(224,565,o),
(219,566,cs),
(209,569,o),
(200,573,o),
(190,577,cs),
(189,578,o),
(188,580,o),
(188,581,c),
(186,592,o),
(183,603,o),
(191,614,cs),
(196,621,o),
(199,629,o),
(199,638,cs),
(198,641,o),
(201,644,o),
(203,646,cs),
(210,654,o),
(220,656,o),
(230,652,cs),
(232,651,o),
(235,651,o),
(237,650,cs),
(244,647,o),
(251,648,o),
(257,654,cs),
(262,659,o),
(265,658,o),
(271,654,cs),
(280,647,o),
(282,636,o),
(275,628,cs),
(273,627,o),
(271,625,o),
(270,625,cs),
(264,624,o),
(258,624,o),
(253,623,cs),
(248,622,o),
(243,620,o),
(238,618,c)
);
}
);
width = 565;
},
{
hints = (
{
horizontal = 1;
place = (382, 459);
place = (382, 459);
type = Stem;
},
{
place = (0, 464);
place = (0, 464);
type = Stem;
}
);
layerId = m002;
shapes = (
{
closed = 1;
nodes = (
(241,584,o),
(222,526,o),
(205,467,cs),
(201,453,o),
(202,438,o),
(201,423,cs),
(200,392,o),
(190,377,o),
(163,384,cs),
(115,398,o),
(68,420,o),
(21,440,cs),
(15,442,o),
(9,453,o),
(9,460,c),
(2,516,o),
(-13,571,o),
(25,623,cs),
(50,659,o),
(66,698,o),
(63,744,cs),
(62,757,o),
(75,773,o),
(86,784,cs),
(121,824,o),
(171,834,o),
(220,813,cs),
(231,809,o),
(243,807,o),
(254,803,cs),
(292,788,o),
(324,795,o),
(355,823,cs),
(381,847,o),
(397,846,o),
(424,825,cs),
(470,789,o),
(478,735,o),
(443,694,cs),
(437,687,o),
(427,681,o),
(419,680,cs),
(391,676,o),
(362,676,o),
(335,671,cs),
(310,665,o),
(285,654,o),
(260,645,c)
);
}
);
width = 565;
},
{
hints = (
{
horizontal = 1;
place = (741, 972);
place = (741, 972);
type = Stem;
},
{
place = (-405, 987);
place = (-405, 987);
type = Stem;
}
);
layerId = m003;
shapes = (
{
closed = 1;
nodes = (
(723,529,o),
(666,355,o),
(615,178,cs),
(603,136,o),
(606,91,o),
(603,46,cs),
(600,-47,o),
(570,-92,o),
(489,-71,cs),
(345,-29,o),
(204,37,o),
(63,97,cs),
(45,103,o),
(27,136,o),
(27,157,c),
(6,325,o),
(-39,490,o),
(75,646,cs),
(150,754,o),
(198,871,o),
(189,1009,cs),
(186,1048,o),
(225,1096,o),
(258,1129,cs),
(363,1249,o),
(513,1279,o),
(660,1216,cs),
(693,1204,o),
(729,1198,o),
(762,1186,cs),
(876,1141,o),
(972,1162,o),
(1065,1246,cs),
(1143,1318,o),
(1191,1315,o),
(1272,1252,cs),
(1410,1144,o),
(1434,982,o),
(1329,859,cs),
(1311,838,o),
(1281,820,o),
(1257,817,cs),
(1173,805,o),
(1086,805,o),
(1005,790,cs),
(930,772,o),
(855,739,o),
(780,712,c)
);
}
);
width = 1394;
}
);
note = U;
unicode = 85;
},
{
glyphname = V;
lastChange = "2022-03-10 19:58:56 +0000";
layers = (
{
hints = (
{
horizontal = 1;
place = (109, 234);
place = (109, 234);
type = Stem;
},
{
place = (157, 235);
place = (157, 235);
type = Stem;
}
);
layerId = m01;
shapes = (
{
closed = 1;
nodes = (
(157,-24,l),
(159,-21,o),
(161,-18,o),
(163,-15,cs),
(164,-13,o),
(167,-12,o),
(168,-10,cs),
(175,-4,o),
(179,-4,o),
(185,-11,cs),
(189,-15,o),
(193,-20,o),
(197,-24,cs),
(199,-25,o),
(202,-27,o),
(204,-28,cs),
(219,-31,o),
(226,-43,o),
(233,-54,cs),
(238,-62,o),
(234,-74,o),
(227,-80,cs),
(227,-80,o),
(226,-80,o),
(226,-80,cs),
(216,-80,o),
(206,-87,o),
(196,-79,cs),
(191,-75,o),
(184,-72,o),
(176,-72,cs),
(172,-72,o),
(169,-69,o),
(169,-64,cs),
(169,-60,o),
(167,-56,o),
(164,-53,cs),
(162,-48,o),
(161,-43,o),
(159,-38,cs),
(158,-34,o),
(159,-29,o),
(158,-25,c)
);
}
);
width = 492;
},
{
hints = (
{
horizontal = 1;
place = (-237, 386);
place = (-237, 386);
type = Stem;
},
{
place = (0, 392);
place = (0, 392);
type = Stem;
}
);
layerId = m002;
shapes = (
{
closed = 1;
nodes = (
(0,56,l),
(10,72,o),
(19,89,o),
(31,104,cs),
(38,113,o),
(49,118,o),
(57,126,cs),
(89,157,o),
(109,157,o),
(140,123,cs),
(160,101,o),
(180,79,o),
(202,59,cs),
(212,50,o),
(224,42,o),
(236,39,cs),
(310,22,o),
(346,-37,o),
(382,-94,cs),
(405,-132,o),
(386,-192,o),
(350,-221,cs),
(349,-222,o),
(348,-223,o),
(346,-223,cs),
(297,-222,o),
(247,-258,o),
(198,-220,cs),
(169,-198,o),
(137,-182,o),
(98,-183,cs),
(74,-183,o),
(61,-167,o),
(61,-144,cs),
(61,-121,o),
(49,-105,o),
(38,-86,cs),
(26,-64,o),
(19,-37,o),
(13,-12,cs),
(8,9,o),
(9,31,o),
(7,52,c)
);
}
);
width = 492;
},
{
hints = (
{
horizontal = 1;
place = (-1043, 826);
place = (-1043, 826);
type = Stem;
},
{
place = (-332, 844);
place = (-332, 844);
type = Stem;
}
);
layerId = m003;
shapes = (
{
closed = 1;
nodes = (
(0,257,l),
(30,305,o),
(57,356,o),
(93,401,cs),
(114,428,o),
(147,443,o),
(171,467,cs),
(267,560,o),
(327,560,o),
(420,458,cs),
(480,392,o),
(540,326,o),
(606,266,cs),
(636,239,o),
(672,215,o),
(708,206,cs),
(930,155,o),
(1038,-22,o),
(1146,-193,cs),
(1215,-307,o),
(1158,-487,o),
(1050,-574,cs),
(1047,-577,o),
(1044,-580,o),
(1038,-580,cs),
(891,-577,o),
(741,-685,o),
(594,-571,cs),
(507,-505,o),
(411,-457,o),
(294,-460,cs),
(222,-460,o),
(183,-412,o),
(183,-343,cs),
(183,-274,o),
(147,-226,o),
(114,-169,cs),
(78,-103,o),
(57,-22,o),
(39,53,cs),
(24,116,o),
(27,182,o),
(21,245,c)
);
}
);
width = 1176;
}
);
note = V;
unicode = 86;
},
{
glyphname = W;
lastChange = "2022-03-10 19:58:56 +0000";
layers = (
{
hints = (
{
horizontal = 1;
place = (282, 369);
place = (282, 369);
type = Stem;
},
{
place = (282, 422);
place = (282, 422);
type = Stem;
}
);
layerId = m01;
shapes = (
{
closed = 1;
nodes = (
(370,183,o),
(365,179,o),
(358,177,cs),
(354,175,o),
(350,175,o),
(345,177,cs),
(339,181,o),
(332,181,o),
(326,185,cs),
(317,191,o),
(310,199,o),
(302,206,cs),
(298,210,o),
(294,214,o),
(289,217,cs),
(281,221,o),
(281,228,o),
(282,235,cs),
(282,243,o),
(287,247,o),
(293,249,cs),
(304,254,o),
(317,256,o),
(330,255,cs),
(335,254,o),
(341,254,o),
(346,256,cs),
(351,257,o),
(355,261,o),
(359,263,c),
(367,257,o),
(373,249,o),
(373,238,cs),
(374,233,o),
(376,228,o),
(379,223,cs),
(384,215,o),
(393,214,o),
(401,212,cs),
(403,212,o),
(404,213,o),
(406,213,cs),
(418,213,o),
(424,206,o),
(422,194,cs),
(421,189,o),
(417,188,o),
(413,186,cs),
(408,185,o),
(403,184,o),
(398,184,cs),
(397,183,o),
(395,184,o),
(394,185,cs),
(389,190,o),
(382,190,o),
(374,189,c)
);
}
);
width = 804;
},
{
hints = (
{
horizontal = 1;
place = (0, 439);
place = (0, 439);
type = Stem;
},
{
place = (0, 704);
place = (0, 704);
type = Stem;
}
);
layerId = m002;
shapes = (
{
closed = 1;
nodes = (
(443,37,o),
(417,18,o),
(384,6,cs),
(361,-2,o),
(342,-3,o),
(318,9,cs),
(288,26,o),
(250,29,o),
(222,48,cs),
(179,78,o),
(142,117,o),
(103,152,cs),
(82,170,o),
(62,191,o),
(38,205,cs),
(-1,227,o),
(-1,260,o),
(1,299,cs),
(3,337,o),
(25,356,o),
(55,369,cs),
(114,393,o),
(176,402,o),
(240,397,cs),
(268,394,o),
(297,393,o),
(324,400,cs),
(346,406,o),
(365,425,o),
(386,439,c),
(429,407,o),
(455,367,o),
(459,311,cs),
(460,286,o),
(472,260,o),
(485,237,cs),
(510,196,o),
(555,192,o),
(598,184,cs),
(605,182,o),
(614,186,o),
(622,186,cs),
(681,187,o),
(712,150,o),
(702,93,cs),
(697,67,o),
(675,60,o),
(656,53,cs),
(632,45,o),
(607,43,o),
(583,40,cs),
(577,39,o),
(569,41,o),
(564,45,cs),
(536,71,o),
(501,70,o),
(460,68,c)
);
}
);
width = 804;
},
{
hints = (
{
horizontal = 1;
place = (-644, 673);
place = (-644, 673);
type = Stem;
},
{
place = (-644, 1468);
place = (-644, 1468);
type = Stem;
}
);
layerId = m003;
shapes = (
{
closed = 1;
nodes = (
(1328,-328,o),
(1250,-385,o),
(1151,-421,cs),
(1082,-445,o),
(1025,-448,o),
(953,-412,cs),
(863,-361,o),
(749,-352,o),
(665,-295,cs),
(536,-205,o),
(425,-88,o),
(308,17,cs),
(245,71,o),
(185,134,o),
(113,176,cs),
(-4,242,o),
(-4,341,o),
(2,458,cs),
(8,572,o),
(74,629,o),
(164,668,cs),
(341,740,o),
(527,767,o),
(719,752,cs),
(803,743,o),
(890,740,o),
(971,761,cs),
(1037,779,o),
(1094,836,o),
(1157,878,c),
(1286,782,o),
(1364,662,o),
(1376,494,cs),
(1379,419,o),
(1415,341,o),
(1454,272,cs),
(1529,149,o),
(1664,137,o),
(1793,113,cs),
(1814,107,o),
(1841,119,o),
(1865,119,cs),
(2042,122,o),
(2135,11,o),
(2105,-160,cs),
(2090,-238,o),
(2024,-259,o),
(1967,-280,cs),
(1895,-304,o),
(1820,-310,o),
(1748,-319,cs),
(1730,-322,o),
(1706,-316,o),
(1691,-304,cs),
(1607,-226,o),
(1502,-229,o),
(1379,-235,c)
);
}
);
width = 2111;
}
);
note = W;
unicode = 87;
},
{
glyphname = X;
lastChange = "2022-03-10 19:58:56 +0000";
layers = (
{
hints = (
{
horizontal = 1;
place = (498, 510);
place = (498, 510);
type = Stem;
},
{
place = (508, 763);
place = (508, 763);
type = Stem;
},
{
horizontal = 1;
place = (491, 512);
place = (491, 512);
type = Stem;
}
);
layerId = m01;
shapes = (
{
closed = 1;
nodes = (
(658,297,o),
(657,297,o),
(657,297,c),
(654,289,o),
(650,281,o),
(647,273,cs),
(644,268,o),
(643,263,o),
(643,258,cs),
(643,254,o),
(640,250,o),
(639,246,cs),
(637,243,o),
(635,239,o),
(634,235,cs),
(634,231,o),
(631,228,o),
(630,224,cs),
(629,222,o),
(629,220,o),
(629,217,cs),
(629,214,o),
(629,211,o),
(625,209,c),
(629,205,o),
(633,207,o),
(636,208,cs),
(642,209,o),
(648,207,o),
(652,202,cs),
(654,198,o),
(656,195,o),
(657,192,cs),
(659,187,o),
(658,182,o),
(655,178,cs),
(651,174,o),
(647,171,o),
(641,172,cs),
(639,172,o),
(638,173,o),
(637,174,cs),
(632,179,o),
(628,184,o),
(623,189,cs),
(619,192,o),
(619,192,o),
(620,199,c),
(617,200,o),
(614,205,o),
(609,202,c),
(605,205,o),
(599,204,o),
(594,205,cs),
(587,206,o),
(584,212,o),
(581,218,cs),
(575,228,o),
(569,238,o),
(563,248,cs),
(560,253,o),
(557,257,o),
(555,262,cs),
(552,266,o),
(549,268,o),
(544,267,cs),
(542,267,o),
(539,268,o),
(536,268,c),
(534,267,o),
(532,265,o),
(530,264,cs),
(528,264,o),
(526,266,o),
(524,268,cs),
(521,272,o),
(518,277,o),
(516,282,cs),
(514,288,o),
(513,295,o),
(511,301,cs),
(509,305,o),
(510,310,o),
(511,314,cs),
(511,320,o),
(511,326,o),
(511,331,cs),
(512,335,o),
(511,338,o),
(508,339,c),
(510,342,o),
(511,345,o),
(513,347,cs),
(514,349,o),
(518,351,o),
(522,349,cs),
(530,345,o),
(538,347,o),
(545,351,cs),
(547,353,o),
(550,355,o),
(552,356,cs),
(561,360,o),
(570,361,o),
(580,356,cs),
(586,353,o),
(592,353,o),
(597,349,cs),
(599,348,o),
(602,350,o),
(605,351,c),
(607,349,o),
(608,348,o),
(609,346,cs),
(612,343,o),
(615,341,o),
(618,338,cs),
(622,335,o),
(626,332,o),
(630,329,cs),
(637,325,o),
(641,318,o),
(646,312,cs),
(655,302,l),
(658,302,o),
(663,302,o),
(667,302,cs),
(669,302,o),
(672,303,o),
(674,304,cs),
(678,307,o),
(682,307,o),
(686,306,cs),
(691,305,o),
(693,306,o),
(692,311,cs),
(692,312,o),
(692,314,o),
(691,315,cs),
(688,319,o),
(688,324,o),
(688,329,cs),
(688,331,o),
(688,333,o),
(689,335,cs),
(692,338,o),
(692,342,o),
(690,346,cs),
(689,348,o),
(688,349,o),
(687,351,cs),
(684,357,o),
(688,363,o),
(688,369,cs),
(688,369,o),
(690,370,o),
(692,371,cs),
(699,372,o),
(705,369,o),
(708,361,cs),
(711,354,o),
(714,346,o),
(717,339,cs),
(721,331,o),
(727,326,o),
(732,320,cs),
(735,317,o),
(737,315,o),
(740,312,cs),
(742,310,o),
(743,309,o),
(746,309,cs),
(750,309,o),
(754,308,o),
(757,307,cs),
(760,306,o),
(763,299,o),
(763,295,cs),
(762,288,o),
(759,281,o),
(755,275,c),
(748,277,o),
(740,279,o),
(736,271,c),
(733,271,o),
(731,272,o),
(729,272,cs),
(724,272,o),
(722,275,o),
(720,277,cs),
(717,280,o),
(715,284,o),
(710,283,c),
(708,280,o),
(706,277,o),
(704,275,cs),
(701,271,o),
(698,270,o),
(693,269,cs),
(684,269,o),
(678,272,o),
(672,278,cs),
(671,279,o),
(670,280,o),
(668,281,c),
(664,283,o),
(662,287,o),
(662,291,cs),
(661,293,o),
(660,295,o),
(659,297,c)
);
}
);
width = 1371;
},
{
hints = (
{
horizontal = 1;
place = (-52, 10);
place = (-52, 10);
type = Stem;
},
{
place = (0, 1271);
place = (0, 1271);
type = Stem;
},
{
horizontal = 1;
place = (-89, 19);
place = (-89, 19);
type = Stem;
}
);
layerId = m002;
shapes = (
{
closed = 1;
nodes = (
(747,399,o),
(745,399,o),
(745,399,c),
(726,359,o),
(709,320,o),
(691,280,cs),
(680,257,o),
(675,232,o),
(674,206,cs),
(673,186,o),
(660,166,o),
(651,147,cs),
(641,128,o),
(632,110,o),
(630,88,cs),
(627,71,o),
(614,55,o),
(607,37,cs),
(604,26,o),
(602,14,o),
(603,2,cs),
(605,-17,o),
(604,-32,o),
(581,-42,c),
(602,-58,o),
(621,-50,o),
(638,-46,cs),
(670,-39,o),
(700,-48,o),
(716,-76,cs),
(726,-93,o),
(736,-110,o),
(742,-127,cs),
(751,-151,o),
(750,-175,o),
(734,-195,cs),
(715,-217,o),
(692,-231,o),
(661,-227,cs),
(655,-226,o),
(649,-221,o),
(644,-216,cs),
(620,-192,o),
(596,-166,o),
(571,-142,cs),
(554,-124,o),
(554,-124,o),
(559,-89,c),
(541,-83,o),
(528,-61,o),
(504,-75,c),
(481,-58,o),
(453,-66,o),
(428,-61,cs),
(391,-54,o),
(379,-23,o),
(363,4,cs),
(332,54,o),
(301,105,o),
(271,156,cs),
(257,178,o),
(245,202,o),
(232,224,cs),
(219,244,o),
(204,257,o),
(179,251,cs),
(166,249,o),
(151,255,o),
(138,257,c),
(128,250,o),
(118,238,o),
(108,237,cs),
(99,236,o),
(86,247,o),
(80,256,cs),
(64,277,o),
(47,300,o),
(38,325,cs),
(27,356,o),
(23,388,o),
(11,419,cs),
(4,439,o),
(10,464,o),
(11,486,cs),
(11,515,o),
(11,543,o),
(15,572,cs),
(17,590,o),
(13,604,o),
(0,612,c),
(8,627,o),
(14,639,o),
(22,650,cs),
(29,662,o),
(49,668,o),
(67,660,cs),
(108,639,o),
(146,650,o),
(181,672,cs),
(194,680,o),
(206,688,o),
(219,694,cs),
(265,717,o),
(310,719,o),
(359,695,cs),
(386,682,o),
(417,678,o),
(444,662,cs),
(452,657,o),
(468,664,o),
(485,672,c),
(491,662,o),
(497,653,o),
(504,646,cs),
(518,632,o),
(531,619,o),
(546,607,cs),
(567,591,o),
(588,575,o),
(609,561,cs),
(643,538,o),
(665,505,o),
(689,475,cs),
(731,424,l),
(749,424,o),
(771,423,o),
(792,424,cs),
(804,425,o),
(817,428,o),
(826,434,cs),
(846,449,o),
(866,452,o),
(890,444,cs),
(912,438,o),
(921,447,o),
(919,470,cs),
(918,477,o),
(916,485,o),
(912,490,cs),
(896,510,o),
(896,534,o),
(896,558,cs),
(896,568,o),
(899,580,o),
(905,588,cs),
(918,606,o),
(917,625,o),
(907,644,cs),
(903,654,o),
(896,662,o),
(891,672,cs),
(876,702,o),
(897,730,o),
(898,758,cs),
(898,762,o),
(909,766,o),
(916,768,cs),
(954,776,o),
(982,759,o),
(997,722,cs),
(1013,685,o),
(1030,647,o),
(1045,611,cs),
(1062,572,o),
(1091,543,o),
(1119,515,cs),
(1131,502,o),
(1144,489,o),
(1157,477,cs),
(1166,467,o),
(1174,459,o),
(1190,459,cs),
(1208,460,o),
(1226,454,o),
(1243,449,cs),
(1258,445,o),
(1272,411,o),
(1271,391,cs),
(1269,353,o),
(1253,320,o),
(1234,288,c),
(1196,298,o),
(1159,309,o),
(1138,268,c),
(1124,271,o),
(1112,275,o),
(1101,275,cs),
(1080,275,o),
(1069,290,o),
(1056,302,cs),
(1042,315,o),
(1032,333,o),
(1007,328,c),
(997,315,o),
(988,302,o),
(977,289,cs),
(964,271,o),
(946,264,o),
(922,262,cs),
(880,260,o),
(848,275,o),
(819,304,cs),
(813,310,o),
(807,317,o),
(800,320,c),
(780,332,o),
(769,349,o),
(766,372,cs),
(764,382,o),
(759,391,o),
(754,401,c)
);
}
);
width = 1371;
},
{
hints = (
{
horizontal = 1;
place = (-1367, -1181);
place = (-1367, -1181);
type = Stem;
},
{
place = (-1211, 2000);
place = (-1211, 2000);
type = Stem;
},
{
horizontal = 1;
place = (-1478, -1154);
place = (-1478, -1154);
type = Stem;
}
);
layerId = m003;
shapes = (
{
closed = 1;
nodes = (
(2241,655,o),
(2235,655,o),
(2235,655,c),
(2178,535,o),
(2127,418,o),
(2073,298,cs),
(2040,229,o),
(2025,154,o),
(2022,76,cs),
(2019,16,o),
(1980,-44,o),
(1953,-101,cs),
(1923,-158,o),
(1896,-212,o),
(1890,-278,cs),
(1881,-329,o),
(1842,-377,o),
(1821,-431,cs),
(1812,-464,o),
(1806,-500,o),
(1809,-536,cs),
(1815,-593,o),
(1812,-638,o),
(1743,-668,c),
(1806,-716,o),
(1863,-692,o),
(1914,-680,cs),
(2010,-659,o),
(2100,-686,o),
(2148,-770,cs),
(2178,-821,o),
(2208,-872,o),
(2226,-923,cs),
(2253,-995,o),
(2250,-1067,o),
(2202,-1127,cs),
(2145,-1193,o),
(2076,-1235,o),
(1983,-1223,cs),
(1965,-1220,o),
(1947,-1205,o),
(1932,-1190,cs),
(1860,-1118,o),
(1788,-1040,o),
(1713,-968,cs),
(1662,-914,o),
(1662,-914,o),
(1677,-809,c),
(1623,-791,o),
(1584,-725,o),
(1512,-767,c),
(1443,-716,o),
(1359,-740,o),
(1284,-725,cs),
(1173,-704,o),
(1137,-611,o),
(1089,-530,cs),
(996,-380,o),
(903,-227,o),
(813,-74,cs),
(771,-8,o),
(735,64,o),
(696,130,cs),
(657,190,o),
(612,229,o),
(537,211,cs),
(498,205,o),
(453,223,o),
(414,229,c),
(384,208,o),
(354,172,o),
(324,169,cs),
(297,166,o),
(258,199,o),
(240,226,cs),
(192,289,o),
(141,358,o),
(114,433,cs),
(81,526,o),
(69,622,o),
(33,715,cs),
(12,775,o),
(30,850,o),
(33,916,cs),
(33,1003,o),
(33,1087,o),
(45,1174,cs),
(51,1228,o),
(39,1270,o),
(0,1294,c),
(24,1339,o),
(42,1375,o),
(66,1408,cs),
(87,1444,o),
(147,1462,o),
(201,1438,cs),
(324,1375,o),
(438,1408,o),
(543,1474,cs),
(582,1498,o),
(618,1522,o),
(657,1540,cs),
(795,1609,o),
(930,1615,o),
(1077,1543,cs),
(1158,1504,o),
(1251,1492,o),
(1332,1444,cs),
(1356,1429,o),
(1404,1450,o),
(1455,1474,c),
(1473,1444,o),
(1491,1417,o),
(1512,1396,cs),
(1554,1354,o),
(1593,1315,o),
(1638,1279,cs),
(1701,1231,o),
(1764,1183,o),
(1827,1141,cs),
(1929,1072,o),
(1995,973,o),
(2067,883,cs),
(2193,730,l),
(2247,730,o),
(2313,727,o),
(2376,730,cs),
(2412,733,o),
(2451,742,o),
(2478,760,cs),
(2538,805,o),
(2598,814,o),
(2670,790,cs),
(2736,772,o),
(2763,799,o),
(2757,868,cs),
(2754,889,o),
(2748,913,o),
(2736,928,cs),
(2688,988,o),
(2688,1060,o),
(2688,1132,cs),
(2688,1162,o),
(2697,1198,o),
(2715,1222,cs),
(2754,1276,o),
(2751,1333,o),
(2721,1390,cs),
(2709,1420,o),
(2688,1444,o),
(2673,1474,cs),
(2628,1564,o),
(2691,1648,o),
(2694,1732,cs),
(2694,1744,o),
(2727,1756,o),
(2748,1762,cs),
(2862,1786,o),
(2946,1735,o),
(2991,1624,cs),
(3039,1513,o),
(3090,1399,o),
(3135,1291,cs),
(3186,1174,o),
(3273,1087,o),
(3357,1003,cs),
(3393,964,o),
(3432,925,o),
(3471,889,cs),
(3498,859,o),
(3522,835,o),
(3570,835,cs),
(3624,838,o),
(3678,820,o),
(3729,805,cs),
(3774,793,o),
(3816,691,o),
(3813,631,cs),
(3807,517,o),
(3759,418,o),
(3702,322,c),
(3588,352,o),
(3477,385,o),
(3414,262,c),
(3372,271,o),
(3336,283,o),
(3303,283,cs),
(3240,283,o),
(3207,328,o),
(3168,364,cs),
(3126,403,o),
(3096,457,o),
(3021,442,c),
(2991,403,o),
(2964,364,o),
(2931,325,cs),
(2892,271,o),
(2838,250,o),
(2766,244,cs),
(2640,238,o),
(2544,283,o),
(2457,370,cs),
(2439,388,o),
(2421,409,o),
(2400,418,c),
(2340,454,o),
(2307,505,o),
(2298,574,cs),
(2292,604,o),
(2277,631,o),
(2262,661,c)
);
}
);
width = 3813;
}
);
note = X;
unicode = 88;
},
{
glyphname = Y;
lastChange = "2022-03-10 19:58:56 +0000";
layers = (
{
hints = (
{
horizontal = 1;
place = (173, 303);
place = (173, 303);
type = Stem;
},
{
place = (181, 272);
place = (181, 272);
type = Stem;
}
);
layerId = m01;
shapes = (
{
closed = 1;
nodes = (
(183,274,l),
(191,276,o),
(194,280,o),
(194,288,cs),
(194,290,o),
(195,293,o),
(196,295,cs),
(199,299,o),
(200,303,o),
(200,308,cs),
(200,314,o),
(205,319,o),
(210,321,cs),
(216,322,o),
(222,320,o),
(225,315,cs),
(229,308,o),
(232,301,o),
(235,294,cs),
(238,287,o),
(243,280,o),
(252,277,cs),
(255,276,o),
(258,273,o),
(260,270,cs),
(267,261,o),
(271,250,o),
(271,238,cs),
(271,232,o),
(272,227,o),
(272,222,cs),
(272,211,o),
(267,205,o),
(254,201,cs),
(246,198,o),
(238,202,o),
(232,210,cs),
(225,220,o),
(228,229,o),
(232,238,cs),
(233,241,o),
(238,243,o),
(241,244,cs),
(245,245,o),
(250,246,o),
(249,250,cs),
(249,254,o),
(245,258,o),
(242,262,cs),
(242,263,o),
(238,262,o),
(236,261,cs),
(231,259,o),
(226,256,o),
(222,252,cs),
(215,247,o),
(208,245,o),
(199,246,cs),
(186,246,o),
(179,254,o),
(182,267,cs)
);
}
);
width = 553;
},
{
hints = (
{
horizontal = 1;
place = (-42, 606);
place = (-42, 606);
type = Stem;
},
{
place = (0, 453);
place = (0, 453);
type = Stem;
}
);
layerId = m002;
shapes = (
{
closed = 1;
nodes = (
(10,328,l),
(49,336,o),
(64,359,o),
(62,397,cs),
(62,408,o),
(66,421,o),
(73,430,cs),
(88,451,o),
(94,473,o),
(95,499,cs),
(95,528,o),
(119,554,o),
(145,561,cs),
(172,569,o),
(201,559,o),
(217,531,cs),
(236,499,o),
(251,463,o),
(267,429,cs),
(285,390,o),
(310,359,o),
(353,343,cs),
(368,337,o),
(383,323,o),
(393,308,cs),
(428,260,o),
(448,207,o),
(447,146,cs),
(447,119,o),
(452,93,o),
(453,66,cs),
(454,10,o),
(430,-18,o),
(365,-38,cs),
(322,-51,o),
(282,-32,o),
(254,7,cs),
(219,55,o),
(233,103,o),
(251,149,cs),
(256,163,o),
(282,173,o),
(300,178,cs),
(319,182,o),
(343,186,o),
(340,206,cs),
(337,228,o),
(320,249,o),
(305,268,cs),
(302,272,o),
(283,268,o),
(274,263,cs),
(249,250,o),
(224,236,o),
(202,219,cs),
(168,194,o),
(132,184,o),
(90,186,cs),
(24,189,o),
(-10,229,o),
(3,294,cs)
);
}
);
width = 553;
},
{
hints = (
{
horizontal = 1;
place = (-519, 1425);
place = (-519, 1425);
type = Stem;
},
{
place = (-393, 966);
place = (-393, 966);
type = Stem;
}
);
layerId = m003;
shapes = (
{
closed = 1;
nodes = (
(29,462,l),
(146,486,o),
(191,555,o),
(185,669,cs),
(185,702,o),
(197,741,o),
(218,768,cs),
(263,831,o),
(281,897,o),
(284,975,cs),
(284,1062,o),
(356,1140,o),
(434,1161,cs),
(515,1185,o),
(602,1155,o),
(650,1071,cs),
(707,975,o),
(752,867,o),
(800,765,cs),
(854,648,o),
(929,555,o),
(1058,507,cs),
(1103,489,o),
(1148,447,o),
(1178,402,cs),
(1283,258,o),
(1343,99,o),
(1340,-84,cs),
(1340,-165,o),
(1355,-243,o),
(1358,-324,cs),
(1361,-492,o),
(1289,-576,o),
(1094,-636,cs),
(965,-675,o),
(845,-618,o),
(761,-501,cs),
(656,-357,o),
(698,-213,o),
(752,-75,cs),
(767,-33,o),
(845,-3,o),
(899,12,cs),
(956,24,o),
(1028,36,o),
(1019,96,cs),
(1010,162,o),
(959,225,o),
(914,282,cs),
(905,294,o),
(848,282,o),
(821,267,cs),
(746,228,o),
(671,186,o),
(605,135,cs),
(503,60,o),
(395,30,o),
(269,36,cs),
(71,45,o),
(-31,165,o),
(8,360,cs)
);
}
);
width = 1358;
}
);
note = Y;
unicode = 89;
},
{
glyphname = Z;
lastChange = "2022-03-10 19:58:56 +0000";
layers = (
{
hints = (
{
horizontal = 1;
place = (115, 373);
place = (115, 373);
type = Stem;
},
{
place = (213, 320);
place = (213, 320);
type = Stem;
}
);
layerId = m01;
shapes = (
{
closed = 1;
nodes = (
(245,-141,o),
(246,-140,o),
(248,-140,cs),
(260,-137,o),
(269,-125,o),
(268,-113,cs),
(268,-108,o),
(264,-103,o),
(261,-99,cs),
(254,-91,o),
(248,-84,o),
(244,-75,cs),
(243,-70,o),
(237,-66,o),
(231,-64,cs),
(218,-58,o),
(212,-47,o),
(213,-32,cs),
(214,-25,o),
(216,-19,o),
(224,-15,c),
(227,-19,o),
(229,-23,o),
(231,-27,cs),
(234,-34,o),
(240,-37,o),
(247,-39,cs),
(261,-44,o),
(275,-48,o),
(290,-51,cs),
(297,-52,o),
(301,-57,o),
(302,-64,cs),
(303,-72,o),
(305,-80,o),
(306,-88,cs),
(307,-91,o),
(308,-94,o),
(308,-97,cs),
(308,-102,o),
(309,-107,o),
(308,-112,cs),
(307,-121,o),
(309,-129,o),
(314,-137,cs),
(315,-139,o),
(316,-140,o),
(317,-142,cs),
(323,-152,o),
(320,-160,o),
(309,-166,cs),
(307,-167,o),
(303,-169,o),
(301,-171,cs),
(295,-176,o),
(289,-176,o),
(283,-171,cs),
(279,-169,o),
(276,-167,o),
(272,-169,cs),
(263,-174,o),
(255,-169,o),
(250,-162,cs),
(246,-156,o),
(239,-151,o),
(244,-141,c)
);
}
);
width = 633;
},
{
hints = (
{
horizontal = 1;
place = (-493, 797);
place = (-493, 797);
type = Stem;
},
{
place = (0, 533);
place = (0, 533);
type = Stem;
}
);
layerId = m002;
shapes = (
{
closed = 1;
nodes = (
(158,-326,o),
(165,-322,o),
(173,-320,cs),
(233,-305,o),
(281,-248,o),
(275,-187,cs),
(273,-162,o),
(256,-134,o),
(238,-114,cs),
(205,-78,o),
(175,-43,o),
(156,4,cs),
(147,28,o),
(117,49,o),
(91,61,cs),
(25,90,o),
(-7,145,o),
(1,218,cs),
(5,255,o),
(14,285,o),
(55,304,c),
(67,285,o),
(81,266,o),
(90,246,cs),
(105,210,o),
(132,196,o),
(168,184,cs),
(238,160,o),
(309,140,o),
(382,125,cs),
(417,117,o),
(441,96,o),
(446,57,cs),
(451,18,o),
(459,-21,o),
(465,-60,cs),
(468,-76,o),
(472,-92,o),
(474,-108,cs),
(476,-133,o),
(481,-158,o),
(476,-182,cs),
(468,-228,o),
(479,-268,o),
(503,-305,cs),
(509,-314,o),
(515,-322,o),
(519,-331,cs),
(547,-383,o),
(534,-422,o),
(481,-450,cs),
(467,-458,o),
(451,-464,o),
(438,-474,cs),
(408,-499,o),
(378,-499,o),
(347,-478,cs),
(331,-467,o),
(316,-455,o),
(296,-465,cs),
(247,-490,o),
(211,-467,o),
(184,-430,cs),
(164,-403,o),
(129,-378,o),
(152,-328,c)
);
}
);
width = 633;
},
{
hints = (
{
horizontal = 1;
place = (-1952, 1918);
place = (-1952, 1918);
type = Stem;
},
{
place = (-473, 1126);
place = (-473, 1126);
type = Stem;
}
);
layerId = m003;
shapes = (
{
closed = 1;
nodes = (
(475,-789,o),
(496,-777,o),
(520,-771,cs),
(700,-726,o),
(844,-555,o),
(826,-372,cs),
(820,-297,o),
(769,-213,o),
(715,-153,cs),
(616,-45,o),
(526,60,o),
(469,201,cs),
(442,273,o),
(352,336,o),
(274,372,cs),
(76,459,o),
(-20,624,o),
(4,843,cs),
(16,954,o),
(43,1044,o),
(166,1101,c),
(202,1044,o),
(244,987,o),
(271,927,cs),
(316,819,o),
(397,777,o),
(505,741,cs),
(715,669,o),
(928,609,o),
(1147,564,cs),
(1252,540,o),
(1324,477,o),
(1339,360,cs),
(1354,243,o),
(1378,126,o),
(1396,9,cs),
(1405,-39,o),
(1417,-87,o),
(1423,-135,cs),
(1429,-210,o),
(1444,-285,o),
(1429,-357,cs),
(1405,-495,o),
(1438,-615,o),
(1510,-726,cs),
(1528,-753,o),
(1546,-777,o),
(1558,-804,cs),
(1642,-960,o),
(1603,-1077,o),
(1444,-1161,cs),
(1402,-1185,o),
(1354,-1203,o),
(1315,-1233,cs),
(1225,-1308,o),
(1135,-1308,o),
(1042,-1245,cs),
(994,-1212,o),
(949,-1176,o),
(889,-1206,cs),
(742,-1281,o),
(634,-1212,o),
(553,-1101,cs),
(493,-1020,o),
(388,-945,o),
(457,-795,c)
);
}
);
width = 1601;
}
);
note = Z;
unicode = 90;
},
{
glyphname = a;
lastChange = "2022-03-10 19:58:56 +0000";
layers = (
{
hints = (
{
horizontal = 1;
place = (151, 230);
place = (151, 230);
type = Stem;
},
{
place = (150, 226);
place = (150, 226);
type = Stem;
}
);
layerId = m01;
shapes = (
{
closed = 1;
nodes = (
(210,158,o),
(204,159,o),
(199,164,cs),
(192,172,o),
(191,177,o),
(197,185,cs),
(201,191,o),
(203,197,o),
(203,205,cs),
(202,216,o),
(196,222,o),
(184,223,cs),
(170,223,ls),
(167,224,o),
(165,222,o),
(162,220,cs),
(158,214,o),
(158,214,o),
(150,219,c),
(156,228,o),
(164,234,o),
(174,235,cs),
(178,235,o),
(181,236,o),
(184,237,cs),
(192,240,o),
(200,238,o),
(207,235,cs),
(213,232,o),
(217,227,o),
(220,221,cs),
(222,217,o),
(223,212,o),
(223,207,cs),
(222,201,o),
(221,196,o),
(225,191,cs),
(226,190,o),
(226,188,o),
(225,187,cs),
(223,178,o),
(221,169,o),
(219,160,c)
);
}
);
width = 476;
},
{
hints = (
{
horizontal = 1;
place = (1, 396);
place = (1, 396);
type = Stem;
},
{
place = (0, 376);
place = (0, 376);
type = Stem;
}
);
layerId = m002;
shapes = (
{
closed = 1;
nodes = (
(299,-3,o),
(268,-2,o),
(242,27,cs),
(210,64,o),
(205,90,o),
(233,130,cs),
(254,160,o),
(264,192,o),
(262,228,cs),
(258,286,o),
(227,317,o),
(167,319,cs),
(97,322,ls),
(81,323,o),
(71,317,o),
(60,303,cs),
(38,275,o),
(37,276,o),
(0,302,c),
(28,346,o),
(67,373,o),
(120,379,cs),
(136,381,o),
(153,384,o),
(168,389,cs),
(209,403,o),
(250,397,o),
(285,379,cs),
(311,366,o),
(332,338,o),
(347,312,cs),
(359,292,o),
(361,264,o),
(361,240,cs),
(360,212,o),
(354,184,o),
(372,158,cs),
(376,153,o),
(377,145,o),
(375,139,cs),
(364,95,o),
(353,50,o),
(341,6,c)
);
}
);
width = 476;
},
{
hints = (
{
horizontal = 1;
place = (-313, 872);
place = (-313, 872);
type = Stem;
},
{
place = (-316, 812);
place = (-316, 812);
type = Stem;
}
);
layerId = m003;
shapes = (
{
closed = 1;
nodes = (
(897,-407,o),
(804,-404,o),
(726,-317,cs),
(630,-206,o),
(615,-128,o),
(699,-8,cs),
(762,82,o),
(792,178,o),
(786,286,cs),
(774,460,o),
(681,553,o),
(501,559,cs),
(291,568,ls),
(243,571,o),
(213,553,o),
(180,511,cs),
(114,427,o),
(111,430,o),
(0,508,c),
(84,640,o),
(201,721,o),
(360,739,cs),
(408,745,o),
(459,754,o),
(504,769,cs),
(627,811,o),
(750,793,o),
(855,739,cs),
(933,700,o),
(996,616,o),
(1041,538,cs),
(1077,478,o),
(1083,394,o),
(1083,322,cs),
(1080,238,o),
(1062,154,o),
(1116,76,cs),
(1128,61,o),
(1131,37,o),
(1125,19,cs),
(1092,-113,o),
(1059,-248,o),
(1023,-380,c)
);
}
);
width = 1128;
}
);
note = a;
unicode = 97;
},
{
glyphname = b;
lastChange = "2022-03-10 19:58:56 +0000";
layers = (
{
hints = (
{
horizontal = 1;
place = (82, 149);
place = (82, 149);
type = Stem;
},
{
place = (82, 122);
place = (82, 122);
type = Stem;
}
);
layerId = m01;
shapes = (
{
closed = 1;
nodes = (
(114,138,o),
(112,140,o),
(109,142,cs),
(103,147,o),
(98,152,o),
(92,157,cs),
(82,164,o),
(81,174,o),
(82,185,cs),
(82,187,o),
(83,190,o),
(84,192,cs),
(90,197,o),
(96,202,o),
(105,203,cs),
(111,205,o),
(115,201,o),
(120,199,cs),
(124,197,o),
(123,191,o),
(120,186,cs),
(117,182,o),
(113,179,o),
(111,174,cs),
(106,166,o),
(107,161,o),
(114,155,cs),
(120,150,o),
(120,144,o),
(117,136,c)
);
}
);
width = 304;
},
{
hints = (
{
horizontal = 1;
place = (0, 339);
place = (0, 339);
type = Stem;
},
{
place = (0, 204);
place = (0, 204);
type = Stem;
}
);
layerId = m002;
shapes = (
{
closed = 1;
nodes = (
(162,11,o),
(150,21,o),
(138,31,cs),
(109,55,o),
(80,81,o),
(51,105,cs),
(3,142,o),
(-5,192,o),
(2,247,cs),
(4,258,o),
(7,272,o),
(14,279,cs),
(44,304,o),
(72,331,o),
(115,338,cs),
(147,344,o),
(169,328,o),
(193,315,cs),
(210,305,o),
(207,274,o),
(191,252,cs),
(176,232,o),
(159,214,o),
(146,193,cs),
(121,152,o),
(126,127,o),
(162,94,cs),
(190,69,o),
(194,43,o),
(176,0,c)
);
}
);
width = 304;
},
{
hints = (
{
horizontal = 1;
place = (-144, 873);
place = (-144, 873);
type = Stem;
},
{
place = (-144, 468);
place = (-144, 468);
type = Stem;
}
);
layerId = m003;
shapes = (
{
closed = 1;
nodes = (
(487,-306,o),
(451,-276,o),
(415,-246,cs),
(328,-174,o),
(241,-96,o),
(154,-24,cs),
(10,87,o),
(-14,237,o),
(7,402,cs),
(13,435,o),
(22,477,o),
(43,498,cs),
(133,573,o),
(217,654,o),
(346,675,cs),
(442,693,o),
(508,645,o),
(580,606,cs),
(631,576,o),
(622,483,o),
(574,417,cs),
(529,357,o),
(478,303,o),
(439,240,cs),
(364,117,o),
(379,42,o),
(487,-57,cs),
(571,-132,o),
(583,-210,o),
(529,-339,c)
);
}
);
width = 614;
}
);
note = b;
unicode = 98;
},
{
glyphname = c;
lastChange = "2022-03-10 19:58:56 +0000";
layers = (
{
hints = (
{
horizontal = 1;
place = (338, 456);
place = (338, 456);
type = Stem;
},
{
place = (338, 506);
place = (338, 506);
type = Stem;
}
);
layerId = m01;
shapes = (
{
closed = 1;
nodes = (
(426,290,o),
(422,289,o),
(419,287,cs),
(413,283,o),
(408,283,o),
(402,284,cs),
(395,286,o),
(387,286,o),
(381,290,cs),
(375,294,o),
(369,299,o),
(366,306,cs),
(362,314,o),
(356,320,o),
(348,323,cs),
(345,324,o),
(343,326,o),
(341,327,cs),
(337,331,o),
(337,335,o),
(341,339,c),
(344,342,ls),
(353,349,o),
(357,349,o),
(363,339,cs),
(365,338,o),
(365,336,o),
(367,334,cs),
(373,327,o),
(381,328,o),
(387,336,cs),
(390,340,o),
(393,344,o),
(396,348,cs),
(402,355,o),
(409,357,o),
(417,352,cs),
(422,349,o),
(426,344,o),
(430,340,cs),
(436,335,o),
(438,328,o),
(439,320,cs),
(439,318,o),
(439,317,o),
(439,316,cs),
(442,304,o),
(447,302,o),
(456,310,cs),
(464,316,o),
(472,320,o),
(481,321,cs),
(483,321,o),
(486,321,o),
(488,320,cs),
(492,316,o),
(497,311,o),
(501,307,cs),
(507,301,o),
(508,294,o),
(505,287,cs),
(500,274,o),
(495,260,o),
(490,248,cs),
(489,244,o),
(485,242,o),
(481,240,cs),
(476,238,o),
(471,238,o),
(466,237,cs),
(458,236,o),
(454,238,o),
(452,245,cs),
(450,251,o),
(448,256,o),
(448,262,cs),
(447,271,o),
(442,278,o),
(439,285,cs),
(438,290,o),
(434,291,o),
(428,291,c)
);
}
);
width = 944;
},
{
hints = (
{
horizontal = 1;
place = (1, 589);
place = (1, 589);
type = Stem;
},
{
place = (1, 843);
place = (1, 843);
type = Stem;
}
);
layerId = m002;
shapes = (
{
closed = 1;
nodes = (
(440,268,o),
(420,262,o),
(404,252,cs),
(377,233,o),
(353,230,o),
(320,238,cs),
(285,248,o),
(248,249,o),
(216,268,cs),
(184,288,o),
(157,312,o),
(140,346,cs),
(120,385,o),
(93,417,o),
(49,432,cs),
(37,437,o),
(25,445,o),
(15,454,cs),
(-5,473,o),
(-4,493,o),
(16,514,c),
(31,527,ls),
(76,564,o),
(95,561,o),
(128,514,cs),
(134,506,o),
(138,497,o),
(145,489,cs),
(177,453,o),
(217,456,o),
(245,495,cs),
(260,515,o),
(274,536,o),
(290,555,cs),
(320,593,o),
(354,601,o),
(394,576,cs),
(419,560,o),
(440,539,o),
(462,519,cs),
(491,491,o),
(503,455,o),
(506,416,cs),
(507,409,o),
(507,402,o),
(508,396,cs),
(520,336,o),
(545,327,o),
(593,365,cs),
(630,395,o),
(671,417,o),
(718,422,cs),
(728,424,o),
(742,422,o),
(750,416,cs),
(773,396,o),
(796,374,o),
(817,351,cs),
(844,322,o),
(852,288,o),
(836,250,cs),
(811,185,o),
(788,119,o),
(761,55,cs),
(754,39,o),
(734,25,o),
(718,19,cs),
(693,9,o),
(666,7,o),
(640,3,cs),
(601,-3,o),
(583,6,o),
(571,41,cs),
(562,70,o),
(551,99,o),
(550,128,cs),
(548,172,o),
(523,206,o),
(508,244,cs),
(499,266,o),
(481,273,o),
(450,272,c)
);
}
);
width = 944;
},
{
hints = (
{
horizontal = 1;
place = (-782, 982);
place = (-782, 982);
type = Stem;
},
{
place = (-782, 1744);
place = (-782, 1744);
type = Stem;
}
);
layerId = m003;
shapes = (
{
closed = 1;
nodes = (
(1319,212,o),
(1259,194,o),
(1211,164,cs),
(1130,107,o),
(1058,98,o),
(959,122,cs),
(854,152,o),
(743,155,o),
(647,212,cs),
(551,272,o),
(470,344,o),
(419,446,cs),
(359,563,o),
(278,659,o),
(146,704,cs),
(110,719,o),
(74,743,o),
(44,770,cs),
(-16,827,o),
(-13,887,o),
(47,950,c),
(92,989,ls),
(227,1100,o),
(284,1091,o),
(383,950,cs),
(401,926,o),
(413,899,o),
(434,875,cs),
(530,767,o),
(650,776,o),
(734,893,cs),
(779,953,o),
(821,1016,o),
(869,1073,cs),
(959,1187,o),
(1061,1211,o),
(1181,1136,cs),
(1256,1088,o),
(1319,1025,o),
(1385,965,cs),
(1472,881,o),
(1508,773,o),
(1517,656,cs),
(1520,635,o),
(1520,614,o),
(1523,596,cs),
(1559,416,o),
(1634,389,o),
(1778,503,cs),
(1889,593,o),
(2012,659,o),
(2153,674,cs),
(2183,680,o),
(2225,674,o),
(2249,656,cs),
(2318,596,o),
(2387,530,o),
(2450,461,cs),
(2531,374,o),
(2555,272,o),
(2507,158,cs),
(2432,-37,o),
(2363,-235,o),
(2282,-427,cs),
(2261,-475,o),
(2201,-517,o),
(2153,-535,cs),
(2078,-565,o),
(1997,-571,o),
(1919,-583,cs),
(1802,-601,o),
(1748,-574,o),
(1712,-469,cs),
(1685,-382,o),
(1652,-295,o),
(1649,-208,cs),
(1643,-76,o),
(1568,26,o),
(1523,140,cs),
(1496,206,o),
(1442,227,o),
(1349,224,c)
);
}
);
width = 2532;
}
);
note = c;
unicode = 99;
},
{
glyphname = d;
lastChange = "2022-03-10 19:58:56 +0000";
layers = (
{
hints = (
{
horizontal = 1;
place = (268, 401);
place = (268, 401);
type = Stem;
},
{
place = (268, 403);
place = (268, 403);
type = Stem;
}
);
layerId = m01;
shapes = (
{
closed = 1;
nodes = (
(341,379,o),
(350,389,o),
(361,397,cs),
(366,400,o),
(373,398,o),
(379,399,cs),
(383,399,o),
(387,398,o),
(392,397,cs),
(398,397,o),
(404,390,o),
(402,384,cs),
(400,370,o),
(392,364,o),
(378,363,cs),
(371,363,o),
(365,360,o),
(358,358,cs),
(354,356,o),
(350,355,o),
(345,353,c),
(346,349,o),
(345,343,o),
(339,340,cs),
(338,339,o),
(337,337,o),
(337,335,c),
(336,326,o),
(329,320,o),
(324,313,cs),
(323,311,o),
(320,310,o),
(318,310,cs),
(305,309,o),
(302,306,o),
(300,294,cs),
(299,289,o),
(298,285,o),
(296,280,cs),
(292,268,o),
(289,266,o),
(277,266,cs),
(270,266,o),
(267,268,o),
(269,274,cs),
(272,286,o),
(269,298,o),
(269,310,cs),
(269,314,o),
(271,316,o),
(274,317,cs),
(281,320,o),
(285,325,o),
(289,332,cs),
(295,343,o),
(304,352,o),
(319,349,cs),
(322,349,o),
(326,351,o),
(330,353,cs),
(335,356,o),
(339,360,o),
(345,364,c)
);
}
);
width = 771;
},
{
hints = (
{
horizontal = 1;
place = (0, 665);
place = (0, 665);
type = Stem;
},
{
place = (0, 671);
place = (0, 671);
type = Stem;
}
);
layerId = m002;
shapes = (
{
closed = 1;
nodes = (
(362,567,o),
(408,617,o),
(464,655,cs),
(486,670,o),
(522,663,o),
(551,664,cs),
(573,664,o),
(594,660,o),
(616,658,cs),
(649,656,o),
(676,623,o),
(670,590,cs),
(660,520,o),
(618,489,o),
(548,486,cs),
(514,485,o),
(481,469,o),
(449,459,cs),
(428,453,o),
(409,446,o),
(384,437,c),
(386,414,o),
(381,387,o),
(355,369,cs),
(348,365,o),
(342,356,o),
(342,348,c),
(337,302,o),
(301,273,o),
(280,236,cs),
(274,227,o),
(259,220,o),
(248,220,cs),
(185,215,o),
(170,201,o),
(160,142,cs),
(155,118,o),
(147,94,o),
(139,71,cs),
(118,11,o),
(105,2,o),
(42,0,cs),
(10,-1,o),
(-6,11,o),
(2,40,cs),
(17,101,o),
(4,162,o),
(4,222,cs),
(5,241,o),
(13,250,o),
(28,256,cs),
(64,270,o),
(84,297,o),
(104,330,cs),
(135,384,o),
(178,429,o),
(252,418,cs),
(269,416,o),
(290,426,o),
(307,435,cs),
(332,450,o),
(355,469,o),
(384,490,c)
);
}
);
width = 771;
},
{
hints = (
{
horizontal = 1;
place = (-611, 1384);
place = (-611, 1384);
type = Stem;
},
{
place = (-611, 1402);
place = (-611, 1402);
type = Stem;
}
);
layerId = m003;
shapes = (
{
closed = 1;
nodes = (
(1086,1036,o),
(1224,1186,o),
(1392,1300,cs),
(1458,1345,o),
(1566,1324,o),
(1653,1327,cs),
(1719,1327,o),
(1782,1315,o),
(1848,1309,cs),
(1947,1303,o),
(2028,1204,o),
(2010,1105,cs),
(1980,895,o),
(1854,802,o),
(1644,793,cs),
(1542,790,o),
(1443,742,o),
(1347,712,cs),
(1284,694,o),
(1227,673,o),
(1152,646,c),
(1158,577,o),
(1143,496,o),
(1065,442,cs),
(1044,430,o),
(1026,403,o),
(1026,379,c),
(1011,241,o),
(903,154,o),
(840,43,cs),
(822,16,o),
(777,-5,o),
(744,-5,cs),
(555,-20,o),
(510,-62,o),
(480,-239,cs),
(465,-311,o),
(441,-383,o),
(417,-452,cs),
(354,-632,o),
(315,-659,o),
(126,-665,cs),
(30,-668,o),
(-18,-632,o),
(6,-545,cs),
(51,-362,o),
(12,-179,o),
(12,1,cs),
(15,58,o),
(39,85,o),
(84,103,cs),
(192,145,o),
(252,226,o),
(312,325,cs),
(405,487,o),
(534,622,o),
(756,589,cs),
(807,583,o),
(870,613,o),
(921,640,cs),
(996,685,o),
(1065,742,o),
(1152,805,c)
);
}
);
width = 2013;
}
);
note = d;
unicode = 100;
},
{
glyphname = e;
lastChange = "2022-03-10 19:58:56 +0000";
layers = (
{
hints = (
{
horizontal = 1;
place = (267, 380);
place = (267, 380);
type = Stem;
},
{
place = (267, 401);
place = (267, 401);
type = Stem;
}
);
layerId = m01;
shapes = (
{
closed = 1;
nodes = (
(400,297,l),
(400,293,o),
(399,289,o),
(399,284,cs),
(398,278,o),
(396,271,o),
(401,265,c),
(399,260,o),
(399,252,o),
(396,248,cs),
(390,241,o),
(382,234,o),
(375,228,cs),
(370,224,o),
(363,223,o),
(357,226,cs),
(349,231,o),
(340,230,o),
(331,228,cs),
(320,226,o),
(311,229,o),
(301,233,cs),
(294,236,o),
(290,245,o),
(291,253,cs),
(292,259,o),
(294,265,o),
(295,270,cs),
(296,275,o),
(297,280,o),
(298,284,cs),
(300,288,o),
(302,291,o),
(304,295,cs),
(308,300,o),
(308,307,o),
(304,314,cs),
(300,321,o),
(296,322,o),
(289,321,cs),
(286,320,o),
(283,319,o),
(280,319,cs),
(276,318,o),
(272,319,o),
(270,323,cs),
(268,326,o),
(267,330,o),
(268,332,cs),
(269,334,o),
(273,336,o),
(276,336,cs),
(285,337,o),
(294,336,o),
(302,329,cs),
(309,323,o),
(309,324,o),
(317,329,cs),
(322,332,o),
(327,335,o),
(333,335,cs),
(340,334,o),
(348,337,o),
(356,334,cs),
(359,333,o),
(364,334,o),
(368,335,cs),
(378,336,o),
(387,333,o),
(393,324,cs),
(396,321,o),
(400,308,o),
(400,302,cs),
(400,301,o),
(400,299,o),
(400,297,c)
);
}
);
width = 768;
},
{
hints = (
{
horizontal = 1;
place = (-1, 563);
place = (-1, 563);
type = Stem;
},
{
place = (0, 668);
place = (0, 668);
type = Stem;
}
);
layerId = m002;
shapes = (
{
closed = 1;
nodes = (
(665,365,l),
(662,344,o),
(659,323,o),
(657,301,cs),
(654,269,o),
(641,235,o),
(668,206,c),
(660,177,o),
(660,141,o),
(643,119,cs),
(614,82,o),
(575,51,o),
(539,20,cs),
(512,-3,o),
(477,-8,o),
(449,8,cs),
(406,33,o),
(361,27,o),
(319,20,cs),
(264,10,o),
(217,25,o),
(170,45,cs),
(135,60,o),
(112,103,o),
(118,144,cs),
(123,173,o),
(132,202,o),
(139,231,cs),
(144,253,o),
(146,277,o),
(154,298,cs),
(161,318,o),
(172,336,o),
(185,353,cs),
(204,380,o),
(204,413,o),
(182,450,cs),
(162,482,o),
(143,491,o),
(107,484,cs),
(92,481,o),
(78,476,o),
(63,473,cs),
(41,468,o),
(22,475,o),
(12,494,cs),
(4,508,o),
(-3,528,o),
(2,540,cs),
(7,551,o),
(28,558,o),
(43,560,cs),
(90,566,o),
(133,557,o),
(171,524,cs),
(206,494,o),
(208,500,o),
(248,524,cs),
(271,538,o),
(300,552,o),
(326,552,cs),
(365,551,o),
(404,565,o),
(443,550,cs),
(460,543,o),
(483,551,o),
(502,552,cs),
(554,557,o),
(597,542,o),
(630,501,cs),
(643,484,o),
(664,421,o),
(663,390,cs),
(663,382,o),
(662,374,o),
(662,365,c)
);
}
);
width = 768;
},
{
hints = (
{
horizontal = 1;
place = (-611, 1081);
place = (-611, 1081);
type = Stem;
},
{
place = (-608, 1396);
place = (-608, 1396);
type = Stem;
}
);
layerId = m003;
shapes = (
{
closed = 1;
nodes = (
(1994,535,l),
(1985,472,o),
(1976,409,o),
(1970,343,cs),
(1961,247,o),
(1922,145,o),
(2003,58,c),
(1979,-29,o),
(1979,-137,o),
(1928,-203,cs),
(1841,-314,o),
(1724,-407,o),
(1616,-500,cs),
(1535,-569,o),
(1430,-584,o),
(1346,-536,cs),
(1217,-461,o),
(1082,-479,o),
(956,-500,cs),
(791,-530,o),
(650,-485,o),
(509,-425,cs),
(404,-380,o),
(335,-251,o),
(353,-128,cs),
(368,-41,o),
(395,46,o),
(416,133,cs),
(431,199,o),
(437,271,o),
(461,334,cs),
(482,394,o),
(515,448,o),
(554,499,cs),
(611,580,o),
(611,679,o),
(545,790,cs),
(485,886,o),
(428,913,o),
(320,892,cs),
(275,883,o),
(233,868,o),
(188,859,cs),
(122,844,o),
(65,865,o),
(35,922,cs),
(11,964,o),
(-10,1024,o),
(5,1060,cs),
(20,1093,o),
(83,1114,o),
(128,1120,cs),
(269,1138,o),
(398,1111,o),
(512,1012,cs),
(617,922,o),
(623,940,o),
(743,1012,cs),
(812,1054,o),
(899,1096,o),
(977,1096,cs),
(1094,1093,o),
(1211,1135,o),
(1328,1090,cs),
(1379,1069,o),
(1448,1093,o),
(1505,1096,cs),
(1661,1111,o),
(1790,1066,o),
(1889,943,cs),
(1928,892,o),
(1991,703,o),
(1988,610,cs),
(1988,586,o),
(1985,562,o),
(1985,535,c)
);
}
);
width = 2003;
}
);
note = e;
unicode = 101;
},
{
glyphname = f;
lastChange = "2022-03-10 19:58:56 +0000";
layers = (
{
hints = (
{
horizontal = 1;
place = (220, 314);
place = (220, 314);
type = Stem;
},
{
place = (220, 330);
place = (220, 330);
type = Stem;
}
);
layerId = m01;
shapes = (
{
closed = 1;
nodes = (
(221,229,o),
(221,234,o),
(220,239,cs),
(218,251,o),
(224,262,o),
(235,268,cs),
(243,272,o),
(249,280,o),
(259,281,cs),
(263,281,o),
(268,283,o),
(272,282,cs),
(278,281,o),
(284,279,o),
(291,281,cs),
(293,281,o),
(294,280,o),
(296,279,cs),
(307,274,o),
(316,266,o),
(326,259,cs),
(330,256,o),
(331,252,o),
(329,247,cs),
(326,240,o),
(324,232,o),
(322,224,cs),
(321,222,o),
(319,220,o),
(318,219,cs),
(308,213,o),
(299,206,o),
(292,196,cs),
(291,194,o),
(289,193,o),
(287,192,cs),
(277,191,o),
(268,190,o),
(259,189,cs),
(243,187,o),
(231,194,o),
(223,208,cs),
(222,211,o),
(221,214,o),
(221,217,cs),
(220,219,o),
(221,222,o),
(222,225,c)
);
}
);
width = 649;
},
{
hints = (
{
horizontal = 1;
place = (1, 469);
place = (1, 469);
type = Stem;
},
{
place = (0, 549);
place = (0, 549);
type = Stem;
}
);
layerId = m002;
shapes = (
{
closed = 1;
nodes = (
(7,205,o),
(5,228,o),
(2,251,cs),
(-7,312,o),
(20,369,o),
(74,397,cs),
(115,418,o),
(146,457,o),
(195,463,cs),
(217,465,o),
(239,472,o),
(259,469,cs),
(292,464,o),
(323,452,o),
(357,462,cs),
(364,464,o),
(373,459,o),
(381,455,cs),
(436,429,o),
(482,388,o),
(531,352,cs),
(549,338,o),
(554,318,o),
(545,293,cs),
(531,256,o),
(522,218,o),
(509,180,cs),
(505,170,o),
(498,158,o),
(489,153,cs),
(441,121,o),
(395,86,o),
(363,36,cs),
(358,28,o),
(345,21,o),
(334,20,cs),
(288,13,o),
(242,8,o),
(196,3,cs),
(114,-7,o),
(54,26,o),
(17,100,cs),
(11,113,o),
(6,128,o),
(5,142,cs),
(3,155,o),
(7,168,o),
(9,184,c)
);
}
);
width = 649;
},
{
hints = (
{
horizontal = 1;
place = (-487, 917);
place = (-487, 917);
type = Stem;
},
{
place = (-490, 1157);
place = (-490, 1157);
type = Stem;
}
);
layerId = m003;
shapes = (
{
closed = 1;
nodes = (
(20,144,o),
(14,213,o),
(5,282,cs),
(-22,465,o),
(59,636,o),
(221,720,cs),
(344,783,o),
(437,900,o),
(584,918,cs),
(650,924,o),
(716,945,o),
(776,936,cs),
(875,921,o),
(968,885,o),
(1070,915,cs),
(1091,921,o),
(1118,906,o),
(1142,894,cs),
(1307,816,o),
(1445,693,o),
(1592,585,cs),
(1646,543,o),
(1661,483,o),
(1634,408,cs),
(1592,297,o),
(1565,183,o),
(1526,69,cs),
(1514,39,o),
(1493,3,o),
(1466,-12,cs),
(1322,-108,o),
(1184,-213,o),
(1088,-363,cs),
(1073,-387,o),
(1034,-408,o),
(1001,-411,cs),
(863,-432,o),
(725,-447,o),
(587,-462,cs),
(341,-492,o),
(161,-393,o),
(50,-171,cs),
(32,-132,o),
(17,-87,o),
(14,-45,cs),
(8,-6,o),
(20,33,o),
(26,81,c)
);
}
);
width = 1647;
}
);
note = f;
unicode = 102;
},
{
glyphname = g;
lastChange = "2022-03-10 19:58:56 +0000";
layers = (
{
hints = (
{
horizontal = 1;
place = (188, 298);
place = (188, 298);
type = Stem;
},
{
place = (188, 283);
place = (188, 283);
type = Stem;
}
);
layerId = m01;
shapes = (
{
closed = 1;
nodes = (
(244,219,o),
(243,220,o),
(242,220,cs),
(228,230,o),
(213,238,o),
(204,253,cs),
(202,256,o),
(200,259,o),
(197,262,c),
(189,268,o),
(187,277,o),
(189,287,cs),
(190,289,o),
(190,290,o),
(190,291,cs),
(192,299,o),
(194,304,o),
(204,306,cs),
(218,308,o),
(232,314,o),
(244,323,cs),
(254,331,o),
(271,330,o),
(278,322,cs),
(283,317,o),
(284,314,o),
(280,308,cs),
(277,303,o),
(273,299,o),
(268,295,cs),
(264,291,o),
(260,287,o),
(259,280,cs),
(257,270,o),
(251,261,o),
(249,251,cs),
(247,242,o),
(247,232,o),
(247,223,c),
(246,222,o),
(247,221,o),
(247,219,c)
);
}
);
width = 571;
},
{
hints = (
{
horizontal = 1;
place = (0, 547);
place = (0, 547);
type = Stem;
},
{
place = (0, 471);
place = (0, 471);
type = Stem;
}
);
layerId = m002;
shapes = (
{
closed = 1;
nodes = (
(279,3,o),
(271,4,o),
(267,7,cs),
(200,57,o),
(122,95,o),
(79,172,cs),
(70,187,o),
(58,202,o),
(45,214,c),
(1,248,o),
(-6,292,o),
(5,343,cs),
(7,349,o),
(8,356,o),
(9,362,cs),
(16,403,o),
(29,428,o),
(79,436,cs),
(150,447,o),
(219,474,o),
(278,521,cs),
(326,559,o),
(411,554,o),
(448,516,cs),
(473,491,o),
(478,475,o),
(460,445,cs),
(444,421,o),
(422,400,o),
(400,379,cs),
(379,359,o),
(360,343,o),
(353,308,cs),
(344,257,o),
(315,210,o),
(303,159,cs),
(292,115,o),
(294,67,o),
(291,21,c),
(290,16,o),
(291,12,o),
(291,0,c)
);
}
);
width = 571;
},
{
hints = (
{
horizontal = 1;
place = (-411, 1230);
place = (-411, 1230);
type = Stem;
},
{
place = (-411, 1002);
place = (-411, 1002);
type = Stem;
}
);
layerId = m003;
shapes = (
{
closed = 1;
nodes = (
(836,-538,o),
(812,-535,o),
(800,-526,cs),
(599,-376,o),
(365,-262,o),
(236,-31,cs),
(209,14,o),
(173,59,o),
(134,95,c),
(2,197,o),
(-19,329,o),
(14,482,cs),
(20,500,o),
(23,521,o),
(26,539,cs),
(47,662,o),
(86,737,o),
(236,761,cs),
(449,794,o),
(656,875,o),
(833,1016,cs),
(977,1130,o),
(1232,1115,o),
(1343,1001,cs),
(1418,926,o),
(1433,878,o),
(1379,788,cs),
(1331,716,o),
(1265,653,o),
(1199,590,cs),
(1136,530,o),
(1079,482,o),
(1058,377,cs),
(1031,224,o),
(944,83,o),
(908,-70,cs),
(875,-202,o),
(881,-346,o),
(872,-484,c),
(869,-499,o),
(872,-511,o),
(872,-547,c)
);
}
);
width = 1411;
}
);
note = g;
unicode = 103;
},
{
glyphname = h;
lastChange = "2022-03-10 19:58:56 +0000";
layers = (
{
hints = (
{
horizontal = 1;
place = (87, 209);
place = (87, 209);
type = Stem;
},
{
place = (87, 130);
place = (87, 130);
type = Stem;
}
);
layerId = m01;
shapes = (
{
closed = 1;
nodes = (
(124,248,o),
(123,253,o),
(122,257,cs),
(120,261,o),
(120,266,o),
(116,265,cs),
(113,265,o),
(110,261,o),
(108,258,cs),
(107,257,o),
(107,255,o),
(106,252,c),
(101,258,o),
(99,265,o),
(99,272,cs),
(99,281,o),
(100,291,o),
(97,300,cs),
(92,312,o),
(92,325,o),
(89,337,cs),
(87,344,o),
(85,350,o),
(89,357,cs),
(93,367,o),
(105,371,o),
(114,366,cs),
(121,363,o),
(126,359,o),
(127,350,cs),
(129,335,o),
(132,321,o),
(127,306,cs),
(125,299,o),
(124,291,o),
(122,283,cs),
(121,277,o),
(124,270,o),
(125,263,cs),
(126,257,o),
(128,251,o),
(130,245,c)
);
}
);
width = 316;
},
{
hints = (
{
horizontal = 1;
place = (0, 613);
place = (0, 613);
type = Stem;
},
{
place = (1, 215);
place = (1, 215);
type = Stem;
}
);
layerId = m002;
shapes = (
{
closed = 1;
nodes = (
(186,12,o),
(182,37,o),
(175,59,cs),
(169,76,o),
(169,102,o),
(145,98,cs),
(131,96,o),
(119,77,o),
(108,64,cs),
(102,57,o),
(100,46,o),
(95,31,c),
(72,64,o),
(61,96,o),
(61,131,cs),
(61,179,o),
(67,227,o),
(50,274,cs),
(28,333,o),
(27,396,o),
(12,456,cs),
(2,493,o),
(-7,524,o),
(10,559,cs),
(33,606,o),
(90,627,o),
(137,604,cs),
(170,587,o),
(196,568,o),
(202,524,cs),
(211,450,o),
(226,379,o),
(202,304,cs),
(191,267,o),
(186,227,o),
(178,189,cs),
(171,158,o),
(185,121,o),
(192,87,cs),
(199,58,o),
(208,29,o),
(216,0,c)
);
}
);
width = 316;
},
{
hints = (
{
horizontal = 1;
place = (-156, 1683);
place = (-156, 1683);
type = Stem;
},
{
place = (-153, 489);
place = (-153, 489);
type = Stem;
}
);
layerId = m003;
shapes = (
{
closed = 1;
nodes = (
(557,-577,o),
(545,-502,o),
(524,-436,cs),
(506,-385,o),
(506,-307,o),
(434,-319,cs),
(392,-325,o),
(356,-382,o),
(323,-421,cs),
(305,-442,o),
(299,-475,o),
(284,-520,c),
(215,-421,o),
(182,-325,o),
(182,-220,cs),
(182,-76,o),
(200,68,o),
(149,209,cs),
(83,386,o),
(80,575,o),
(35,755,cs),
(5,866,o),
(-22,959,o),
(29,1064,cs),
(98,1205,o),
(269,1268,o),
(410,1199,cs),
(509,1148,o),
(587,1091,o),
(605,959,cs),
(632,737,o),
(677,524,o),
(605,299,cs),
(572,188,o),
(557,68,o),
(533,-46,cs),
(512,-139,o),
(554,-250,o),
(575,-352,cs),
(596,-439,o),
(623,-526,o),
(647,-613,c)
);
}
);
width = 647;
}
);
note = h;
unicode = 104;
},
{
glyphname = i;
lastChange = "2022-03-10 19:58:56 +0000";
layers = (
{
hints = (
{
horizontal = 1;
place = (179, 150);
place = (179, 150);
type = Stem;
},
{
place = (156, 153);
place = (156, 153);
type = Stem;
},
{
place = (153, 156);
place = (153, 156);
type = Stem;
}
);
layerId = m01;
shapes = (
{
closed = 1;
nodes = (
(159,137,o),
(157,137,o),
(157,136,c),
(156,135,o),
(156,134,o),
(157,134,cs),
(158,134,o),
(158,133,o),
(158,133,cs),
(160,133,o),
(161,133,o),
(162,133,c),
(162,134,l),
(162,135,o),
(162,136,o),
(162,137,cs),
(162,138,o),
(162,139,o),
(161,140,cs),
(161,141,o),
(160,141,o),
(160,142,cs),
(159,143,o),
(159,143,o),
(160,144,cs),
(160,145,o),
(161,146,o),
(161,146,cs),
(162,147,o),
(162,147,o),
(163,148,cs),
(165,148,o),
(168,147,o),
(169,145,cs),
(170,143,o),
(170,141,o),
(171,140,cs),
(171,139,o),
(170,136,o),
(169,136,cs),
(169,136,o),
(168,136,o),
(168,136,c),
(165,136,l),
(165,134,o),
(166,133,o),
(168,131,cs),
(174,124,l),
(174,124,o),
(174,124,o),
(174,124,cs),
(178,120,l),
(176,119,o),
(175,119,o),
(174,120,cs),
(173,122,o),
(172,123,o),
(170,124,cs),
(169,125,o),
(168,125,o),
(167,124,cs),
(166,122,ls),
(166,120,o),
(166,120,o),
(168,119,cs),
(168,119,o),
(168,118,o),
(169,118,cs),
(169,117,o),
(170,117,o),
(171,117,cs),
(174,117,o),
(176,114,o),
(177,111,cs),
(177,111,o),
(178,110,o),
(178,109,cs),
(179,108,o),
(180,107,o),
(181,106,c),
(182,105,l),
(183,105,o),
(184,104,o),
(185,103,cs),
(186,101,o),
(186,101,o),
(188,102,c),
(187,104,o),
(190,105,o),
(189,107,c),
(191,108,o),
(191,108,o),
(193,107,cs),
(193,106,o),
(193,106,o),
(194,105,c),
(196,104,o),
(197,101,o),
(198,99,cs),
(198,99,o),
(198,98,o),
(198,98,c),
(197,96,o),
(197,94,o),
(196,93,cs),
(195,92,o),
(195,91,o),
(196,90,cs),
(197,89,o),
(197,89,o),
(198,88,cs),
(199,88,o),
(201,87,o),
(201,86,cs),
(202,86,o),
(202,85,o),
(202,85,cs),
(203,85,o),
(204,84,o),
(206,83,c),
(206,82,o),
(208,82,o),
(208,83,c),
(208,87,l),
(208,89,o),
(208,90,o),
(211,90,cs),
(211,90,o),
(212,90,o),
(213,90,c),
(214,90,o),
(215,91,o),
(215,92,cs),
(216,94,o),
(217,94,o),
(218,94,cs),
(219,93,o),
(221,92,o),
(221,91,cs),
(221,88,l),
(219,88,o),
(218,88,o),
(217,86,cs),
(217,85,o),
(215,84,o),
(214,84,c),
(214,83,o),
(213,82,o),
(212,82,cs),
(210,80,o),
(210,79,o),
(211,77,cs),
(211,75,o),
(212,74,o),
(211,72,c),
(211,72,o),
(211,71,o),
(211,71,cs),
(212,69,o),
(213,68,o),
(213,66,c),
(214,65,o),
(214,63,o),
(212,62,c),
(212,62,o),
(211,62,o),
(211,63,cs),
(210,63,o),
(209,64,o),
(208,65,cs),
(208,66,o),
(207,66,o),
(207,67,cs),
(206,67,o),
(206,68,o),
(205,68,c),
(204,73,o),
(202,76,o),
(199,79,c),
(198,79,o),
(198,80,o),
(198,80,cs),
(195,81,o),
(193,83,o),
(190,85,cs),
(189,86,o),
(187,87,o),
(185,88,cs),
(185,89,o),
(184,89,o),
(184,90,cs),
(184,90,o),
(184,91,o),
(184,91,c),
(182,94,o),
(182,94,o),
(178,92,c),
(175,94,o),
(175,97,o),
(177,99,cs),
(178,101,l),
(178,101,o),
(179,101,o),
(179,101,c),
(182,99,ls),
(183,99,o),
(183,99,o),
(183,99,c),
(183,99,o),
(184,99,o),
(184,99,cs),
(183,100,o),
(183,101,o),
(183,101,cs),
(181,103,o),
(180,105,o),
(179,107,cs),
(178,108,o),
(177,109,o),
(176,110,cs),
(175,110,o),
(174,110,o),
(173,109,cs),
(172,107,o),
(171,105,o),
(170,104,c),
(169,103,o),
(169,103,o),
(169,102,cs),
(169,101,o),
(169,100,o),
(167,100,cs),
(166,100,o),
(165,100,o),
(165,101,c),
(165,102,l),
(165,102,o),
(165,103,o),
(165,103,cs),
(166,104,o),
(166,104,o),
(166,106,c),
(166,107,o),
(166,109,o),
(166,111,cs),
(166,112,o),
(166,112,o),
(167,113,c),
(168,114,o),
(169,113,o),
(170,114,c),
(170,115,o),
(169,116,o),
(168,116,cs),
(166,118,o),
(163,121,o),
(161,123,cs),
(161,124,o),
(161,124,o),
(160,124,c),
(158,128,ls),
(157,130,o),
(155,132,o),
(154,134,c),
(153,133,o),
(153,132,o),
(153,131,cs),
(154,130,o),
(153,129,o),
(152,128,cs),
(151,127,o),
(150,128,o),
(150,129,cs),
(148,130,o),
(149,132,o),
(148,134,cs),
(148,135,o),
(147,136,o),
(148,137,cs),
(149,138,o),
(149,138,o),
(148,139,c),
(148,139,o),
(147,140,o),
(147,141,c),
(147,141,o),
(148,140,o),
(148,140,cs),
(148,140,l),
(149,142,o),
(148,144,o),
(147,146,cs),
(147,148,o),
(148,150,o),
(150,150,cs),
(151,150,l),
(151,148,o),
(153,149,o),
(154,148,c),
(155,148,o),
(155,147,o),
(156,146,c),
(157,145,o),
(156,144,o),
(156,143,cs),
(156,142,o),
(157,141,o),
(157,140,cs),
(157,139,o),
(158,139,o),
(159,138,c),
(159,138,o),
(159,138,o),
(159,138,c)
);
}
);
width = 468;
},
{
hints = (
{
horizontal = 1;
place = (159, 13);
place = (159, 13);
type = Stem;
},
{
place = (45, 31);
place = (45, 31);
type = Stem;
},
{
place = (31, 45);
place = (31, 45);
type = Stem;
}
);
layerId = m002;
shapes = (
{
closed = 1;
nodes = (
(57,263,o),
(51,260,o),
(48,256,c),
(43,252,o),
(45,248,o),
(50,245,cs),
(52,244,o),
(54,243,o),
(56,243,cs),
(62,242,o),
(69,241,o),
(76,240,c),
(76,245,l),
(74,251,o),
(74,257,o),
(75,263,cs),
(76,268,o),
(74,273,o),
(70,277,cs),
(67,279,o),
(65,282,o),
(63,285,cs),
(60,289,o),
(60,292,o),
(63,296,cs),
(65,300,o),
(67,304,o),
(70,307,cs),
(72,310,o),
(75,313,o),
(79,314,cs),
(90,318,o),
(104,312,o),
(109,301,cs),
(113,293,o),
(116,283,o),
(119,274,cs),
(120,269,o),
(115,257,o),
(110,255,cs),
(108,254,o),
(105,254,o),
(103,254,c),
(91,257,l),
(91,246,o),
(96,239,o),
(103,232,cs),
(133,197,l),
(134,197,o),
(134,196,o),
(135,195,cs),
(153,176,l),
(146,170,o),
(139,171,o),
(135,178,cs),
(130,186,o),
(122,192,o),
(114,197,cs),
(108,202,o),
(102,200,o),
(99,194,cs),
(96,186,ls),
(93,176,o),
(93,175,o),
(103,171,cs),
(105,170,o),
(106,168,o),
(107,166,cs),
(109,162,o),
(113,159,o),
(118,159,cs),
(133,159,o),
(146,148,o),
(150,133,cs),
(151,129,o),
(154,125,o),
(156,121,cs),
(160,115,o),
(165,110,o),
(169,104,c),
(173,101,l),
(180,99,o),
(185,95,o),
(189,89,cs),
(192,83,o),
(194,83,o),
(204,87,c),
(201,96,o),
(212,102,o),
(207,112,c),
(218,118,o),
(219,118,o),
(227,109,cs),
(229,107,o),
(231,104,o),
(233,103,c),
(244,94,o),
(249,83,o),
(252,70,cs),
(252,69,o),
(253,66,o),
(252,65,c),
(250,56,o),
(247,48,o),
(243,40,cs),
(241,35,o),
(241,30,o),
(245,26,cs),
(248,23,o),
(251,20,o),
(255,18,cs),
(261,15,o),
(267,11,o),
(271,5,cs),
(272,4,o),
(272,2,o),
(273,2,cs),
(281,0,o),
(286,-6,o),
(292,-11,c),
(296,-16,o),
(303,-13,o),
(304,-7,c),
(304,9,l),
(302,21,o),
(305,25,o),
(318,26,cs),
(321,26,o),
(324,27,o),
(327,28,c),
(334,28,o),
(338,31,o),
(341,36,cs),
(346,45,o),
(348,46,o),
(353,44,cs),
(361,42,o),
(368,35,o),
(368,29,cs),
(368,15,l),
(359,18,o),
(353,15,o),
(350,7,cs),
(347,0,o),
(341,-2,o),
(335,-4,c),
(334,-9,o),
(330,-13,o),
(325,-16,cs),
(316,-22,o),
(314,-30,o),
(317,-41,cs),
(320,-48,o),
(323,-55,o),
(319,-63,c),
(318,-64,o),
(319,-67,o),
(320,-69,cs),
(323,-78,o),
(327,-86,o),
(331,-95,c),
(335,-101,o),
(332,-110,o),
(325,-113,c),
(323,-113,o),
(319,-112,o),
(318,-111,cs),
(313,-107,o),
(310,-103,o),
(306,-99,cs),
(303,-96,o),
(299,-93,o),
(297,-90,cs),
(295,-87,o),
(292,-85,o),
(291,-83,c),
(285,-61,o),
(272,-44,o),
(257,-29,c),
(256,-27,o),
(254,-26,o),
(252,-25,cs),
(238,-19,o),
(227,-9,o),
(216,0,cs),
(208,7,o),
(199,12,o),
(191,18,cs),
(188,20,o),
(186,21,o),
(186,25,cs),
(186,27,o),
(185,29,o),
(183,31,c),
(173,46,o),
(172,46,o),
(155,37,c),
(141,45,o),
(138,61,o),
(148,73,cs),
(154,80,l),
(156,81,o),
(158,81,o),
(161,81,c),
(175,73,ls),
(177,72,o),
(179,72,o),
(181,71,c),
(181,72,o),
(182,72,o),
(182,73,cs),
(181,76,o),
(179,80,o),
(177,83,cs),
(169,92,o),
(164,102,o),
(158,112,cs),
(155,117,o),
(150,121,o),
(145,124,cs),
(138,128,o),
(133,126,o),
(129,119,cs),
(124,111,o),
(120,102,o),
(113,95,c),
(110,93,o),
(110,89,o),
(109,85,cs),
(107,81,o),
(107,75,o),
(101,75,cs),
(95,75,o),
(90,77,o),
(87,83,c),
(87,85,l),
(88,87,o),
(89,89,o),
(91,91,cs),
(94,95,o),
(94,98,o),
(94,104,c),
(92,112,o),
(93,121,o),
(94,129,cs),
(94,134,o),
(96,138,o),
(97,142,c),
(102,147,o),
(110,141,o),
(115,147,c),
(114,152,o),
(110,155,o),
(106,158,cs),
(93,168,o),
(81,180,o),
(71,193,cs),
(69,195,o),
(67,196,o),
(65,198,c),
(53,215,ls),
(47,225,o),
(41,236,o),
(33,246,c),
(29,240,o),
(31,236,o),
(31,232,cs),
(32,226,o),
(30,221,o),
(25,217,cs),
(21,213,o),
(16,215,o),
(12,219,cs),
(5,227,o),
(7,237,o),
(4,246,cs),
(2,251,o),
(1,257,o),
(6,262,cs),
(9,264,o),
(8,268,o),
(5,270,c),
(3,273,o),
(1,275,o),
(0,279,c),
(1,279,o),
(2,278,o),
(3,278,cs),
(6,278,l),
(7,288,o),
(4,297,o),
(1,305,cs),
(-3,316,o),
(4,326,o),
(16,325,cs),
(19,325,l),
(21,318,o),
(29,320,o),
(33,316,c),
(37,314,o),
(39,309,o),
(43,306,c),
(47,301,o),
(45,297,o),
(45,293,cs),
(45,288,o),
(47,282,o),
(47,277,cs),
(48,271,o),
(53,270,o),
(58,268,c),
(59,268,o),
(60,266,o),
(61,266,c)
);
}
);
width = 468;
},
{
hints = (
{
horizontal = 1;
place = (169, -269);
place = (169, -269);
type = Stem;
},
{
place = (-173, -215);
place = (-173, -215);
type = Stem;
},
{
place = (-215, -173);
place = (-215, -173);
type = Stem;
}
);
layerId = m003;
shapes = (
{
closed = 1;
nodes = (
(171,577,o),
(153,568,o),
(144,556,c),
(129,544,o),
(135,532,o),
(150,523,cs),
(156,520,o),
(162,517,o),
(168,517,cs),
(186,514,o),
(207,511,o),
(228,508,c),
(228,523,l),
(222,541,o),
(222,559,o),
(225,577,cs),
(228,592,o),
(222,607,o),
(210,619,cs),
(201,625,o),
(195,634,o),
(189,643,cs),
(180,655,o),
(180,664,o),
(189,676,cs),
(195,688,o),
(201,700,o),
(210,709,cs),
(216,718,o),
(225,727,o),
(237,730,cs),
(270,742,o),
(312,724,o),
(327,691,cs),
(339,667,o),
(348,637,o),
(357,610,cs),
(360,595,o),
(345,559,o),
(330,553,cs),
(324,550,o),
(315,550,o),
(309,550,c),
(273,559,l),
(273,526,o),
(288,505,o),
(309,484,cs),
(399,379,l),
(402,379,o),
(402,376,o),
(405,373,cs),
(459,316,l),
(438,298,o),
(417,301,o),
(405,322,cs),
(390,346,o),
(366,364,o),
(342,379,cs),
(324,394,o),
(306,388,o),
(297,370,cs),
(288,346,ls),
(279,316,o),
(279,313,o),
(309,301,cs),
(315,298,o),
(318,292,o),
(321,286,cs),
(327,274,o),
(339,265,o),
(354,265,cs),
(399,265,o),
(438,232,o),
(450,187,cs),
(453,175,o),
(462,163,o),
(468,151,cs),
(480,133,o),
(495,118,o),
(507,100,c),
(519,91,l),
(540,85,o),
(555,73,o),
(567,55,cs),
(576,37,o),
(582,37,o),
(612,49,c),
(603,76,o),
(636,94,o),
(621,124,c),
(654,142,o),
(657,142,o),
(681,115,cs),
(687,109,o),
(693,100,o),
(699,97,c),
(732,70,o),
(747,37,o),
(756,-2,cs),
(756,-5,o),
(759,-14,o),
(756,-17,c),
(750,-44,o),
(741,-68,o),
(729,-92,cs),
(723,-107,o),
(723,-122,o),
(735,-134,cs),
(744,-143,o),
(753,-152,o),
(765,-158,cs),
(783,-167,o),
(801,-179,o),
(813,-197,cs),
(816,-200,o),
(816,-206,o),
(819,-206,cs),
(843,-212,o),
(858,-230,o),
(876,-245,c),
(888,-260,o),
(909,-251,o),
(912,-233,c),
(912,-185,l),
(906,-149,o),
(915,-137,o),
(954,-134,cs),
(963,-134,o),
(972,-131,o),
(981,-128,c),
(1002,-128,o),
(1014,-119,o),
(1023,-104,cs),
(1038,-77,o),
(1044,-74,o),
(1059,-80,cs),
(1083,-86,o),
(1104,-107,o),
(1104,-125,cs),
(1104,-167,l),
(1077,-158,o),
(1059,-167,o),
(1050,-191,cs),
(1041,-212,o),
(1023,-218,o),
(1005,-224,c),
(1002,-239,o),
(990,-251,o),
(975,-260,cs),
(948,-278,o),
(942,-302,o),
(951,-335,cs),
(960,-356,o),
(969,-377,o),
(957,-401,c),
(954,-404,o),
(957,-413,o),
(960,-419,cs),
(969,-446,o),
(981,-470,o),
(993,-497,c),
(1005,-515,o),
(996,-542,o),
(975,-551,c),
(969,-551,o),
(957,-548,o),
(954,-545,cs),
(939,-533,o),
(930,-521,o),
(918,-509,cs),
(909,-500,o),
(897,-491,o),
(891,-482,cs),
(885,-473,o),
(876,-467,o),
(873,-461,c),
(855,-395,o),
(816,-344,o),
(771,-299,c),
(768,-293,o),
(762,-290,o),
(756,-287,cs),
(714,-269,o),
(681,-239,o),
(648,-212,cs),
(624,-191,o),
(597,-176,o),
(573,-158,cs),
(564,-152,o),
(558,-149,o),
(558,-137,cs),
(558,-131,o),
(555,-125,o),
(549,-119,c),
(519,-74,o),
(516,-74,o),
(465,-101,c),
(423,-77,o),
(414,-29,o),
(444,7,cs),
(462,28,l),
(468,31,o),
(474,31,o),
(483,31,c),
(525,7,ls),
(531,4,o),
(537,4,o),
(543,1,c),
(543,4,o),
(546,4,o),
(546,7,cs),
(543,16,o),
(537,28,o),
(531,37,cs),
(507,64,o),
(492,94,o),
(474,124,cs),
(465,139,o),
(450,151,o),
(435,160,cs),
(414,172,o),
(399,166,o),
(387,145,cs),
(372,121,o),
(360,94,o),
(339,73,c),
(330,67,o),
(330,55,o),
(327,43,cs),
(321,31,o),
(321,13,o),
(303,13,cs),
(285,13,o),
(270,19,o),
(261,37,c),
(261,43,l),
(264,49,o),
(267,55,o),
(273,61,cs),
(282,73,o),
(282,82,o),
(282,100,c),
(276,124,o),
(279,151,o),
(282,175,cs),
(282,190,o),
(288,202,o),
(291,214,c),
(306,229,o),
(330,211,o),
(345,229,c),
(342,244,o),
(330,253,o),
(318,262,cs),
(279,292,o),
(243,328,o),
(213,367,cs),
(207,373,o),
(201,376,o),
(195,382,c),
(159,433,ls),
(141,463,o),
(123,496,o),
(99,526,c),
(87,508,o),
(93,496,o),
(93,484,cs),
(96,466,o),
(90,451,o),
(75,439,cs),
(63,427,o),
(48,433,o),
(36,445,cs),
(15,469,o),
(21,499,o),
(12,526,cs),
(6,541,o),
(3,559,o),
(18,574,cs),
(27,580,o),
(24,592,o),
(15,598,c),
(9,607,o),
(3,613,o),
(0,625,c),
(3,625,o),
(6,622,o),
(9,622,cs),
(18,622,l),
(21,652,o),
(12,679,o),
(3,703,cs),
(-9,736,o),
(12,766,o),
(48,763,cs),
(57,763,l),
(63,742,o),
(87,748,o),
(99,736,c),
(111,730,o),
(117,715,o),
(129,706,c),
(141,691,o),
(135,679,o),
(135,667,cs),
(135,652,o),
(141,634,o),
(141,619,cs),
(144,601,o),
(159,598,o),
(174,592,c),
(177,592,o),
(180,586,o),
(183,586,c)
);
}
);
width = 1104;
}
);
note = i;
unicode = 105;
},
{
glyphname = j;
lastChange = "2022-03-10 19:58:56 +0000";
layers = (
{
hints = (
{
horizontal = 1;
place = (96, 220);
place = (96, 220);
type = Stem;
},
{
place = (96, 145);
place = (96, 145);
type = Stem;
}
);
layerId = m01;
shapes = (
{
closed = 1;
nodes = (
(123,248,l),
(116,245,o),
(111,248,o),
(105,252,cs),
(100,255,o),
(99,263,o),
(104,268,cs),
(111,277,o),
(111,291,o),
(105,301,cs),
(104,301,o),
(103,302,o),
(103,303,cs),
(95,313,o),
(95,323,o),
(100,335,cs),
(103,341,o),
(105,348,o),
(107,354,cs),
(110,360,o),
(112,366,o),
(120,364,cs),
(121,364,o),
(123,365,o),
(124,366,cs),
(131,371,o),
(131,371,o),
(138,367,c),
(138,361,o),
(138,354,o),
(138,348,cs),
(138,344,o),
(135,342,o),
(132,341,cs),
(121,338,o),
(120,337,o),
(123,326,cs),
(127,310,o),
(132,294,o),
(141,279,cs),
(142,278,o),
(143,277,o),
(143,276,c),
(144,271,o),
(144,266,o),
(145,261,c),
(141,260,o),
(136,260,o),
(132,259,cs),
(130,259,o),
(128,260,o),
(125,260,c)
);
}
);
width = 341;
},
{
hints = (
{
horizontal = 1;
place = (0, 616);
place = (0, 616);
type = Stem;
},
{
place = (0, 241);
place = (0, 241);
type = Stem;
}
);
layerId = m002;
shapes = (
{
closed = 1;
nodes = (
(134,5,l),
(99,-8,o),
(71,8,o),
(45,25,cs),
(17,44,o),
(15,80,o),
(36,108,cs),
(71,154,o),
(73,222,o),
(41,270,cs),
(39,274,o),
(35,278,o),
(32,282,cs),
(-6,332,o),
(-9,384,o),
(17,441,cs),
(31,473,o),
(42,506,o),
(55,538,cs),
(67,566,o),
(78,595,o),
(117,589,cs),
(124,588,o),
(133,592,o),
(139,597,cs),
(172,621,o),
(171,622,o),
(209,603,c),
(209,570,o),
(210,537,o),
(209,505,cs),
(208,485,o),
(194,478,o),
(176,473,cs),
(124,457,o),
(119,451,o),
(131,399,cs),
(152,316,o),
(180,235,o),
(225,160,cs),
(228,156,o),
(233,152,o),
(233,148,c),
(237,122,o),
(239,97,o),
(241,71,c),
(221,69,o),
(200,65,o),
(179,64,cs),
(168,63,o),
(157,65,o),
(143,67,c)
);
}
);
width = 341;
},
{
hints = (
{
horizontal = 1;
place = (-181, 1667);
place = (-181, 1667);
type = Stem;
},
{
place = (-181, 542);
place = (-181, 542);
type = Stem;
}
);
layerId = m003;
shapes = (
{
closed = 1;
nodes = (
(402,-601,l),
(297,-640,o),
(213,-592,o),
(135,-541,cs),
(51,-484,o),
(45,-376,o),
(108,-292,cs),
(213,-154,o),
(219,50,o),
(123,194,cs),
(117,206,o),
(105,218,o),
(96,230,cs),
(-18,380,o),
(-27,536,o),
(51,707,cs),
(93,803,o),
(126,902,o),
(165,998,cs),
(201,1082,o),
(234,1169,o),
(351,1151,cs),
(372,1148,o),
(399,1160,o),
(417,1175,cs),
(516,1247,o),
(513,1250,o),
(627,1193,c),
(627,1094,o),
(630,995,o),
(627,899,cs),
(624,839,o),
(582,818,o),
(528,803,cs),
(372,755,o),
(357,737,o),
(393,581,cs),
(456,332,o),
(540,89,o),
(675,-136,cs),
(684,-148,o),
(699,-160,o),
(699,-172,c),
(711,-250,o),
(717,-325,o),
(723,-403,c),
(663,-409,o),
(600,-421,o),
(537,-424,cs),
(504,-427,o),
(471,-421,o),
(429,-415,c)
);
}
);
width = 723;
}
);
note = j;
unicode = 106;
},
{
glyphname = k;
lastChange = "2022-03-10 19:58:56 +0000";
layers = (
{
hints = (
{
horizontal = 1;
place = (182, 383);
place = (182, 383);
type = Stem;
},
{
place = (222, 334);
place = (222, 334);
type = Stem;
}
);
layerId = m01;
shapes = (
{
closed = 1;
nodes = (
(275,131,o),
(267,128,o),
(260,121,cs),
(258,118,o),
(255,114,o),
(249,117,cs),
(243,119,o),
(239,123,o),
(238,130,cs),
(236,142,o),
(242,150,o),
(249,158,c),
(265,164,o),
(264,178,o),
(263,190,cs),
(262,200,o),
(260,211,o),
(252,218,cs),
(248,222,o),
(244,225,o),
(239,226,cs),
(232,228,o),
(226,231,o),
(223,239,cs),
(221,248,o),
(223,254,o),
(232,262,cs),
(235,265,o),
(238,267,o),
(241,268,cs),
(249,271,o),
(256,273,o),
(263,276,cs),
(267,277,o),
(272,276,o),
(275,272,cs),
(278,269,o),
(277,265,o),
(275,261,cs),
(269,251,o),
(270,241,o),
(273,230,cs),
(274,225,o),
(277,221,o),
(284,221,cs),
(291,220,o),
(299,219,o),
(306,219,cs),
(311,219,o),
(315,217,o),
(317,212,cs),
(321,202,o),
(325,192,o),
(331,182,cs),
(336,173,o),
(333,167,o),
(327,161,cs),
(323,157,o),
(317,153,o),
(312,149,cs),
(310,147,o),
(306,146,o),
(304,146,cs),
(297,147,o),
(294,143,o),
(291,139,cs),
(290,136,o),
(288,132,o),
(285,128,c)
);
}
);
width = 656;
},
{
hints = (
{
horizontal = 1;
place = (-204, 801);
place = (-204, 801);
type = Stem;
},
{
place = (0, 556);
place = (0, 556);
type = Stem;
}
);
layerId = m002;
shapes = (
{
closed = 1;
nodes = (
(264,-129,o),
(224,-143,o),
(190,-177,cs),
(176,-192,o),
(161,-213,o),
(135,-201,cs),
(105,-187,o),
(81,-167,o),
(76,-132,cs),
(67,-75,o),
(98,-34,o),
(133,6,c),
(215,34,o),
(208,105,o),
(204,168,cs),
(200,218,o),
(190,269,o),
(148,307,cs),
(128,326,o),
(109,342,o),
(82,348,cs),
(47,356,o),
(18,372,o),
(5,411,cs),
(-9,456,o),
(5,486,o),
(49,528,cs),
(62,540,o),
(79,550,o),
(95,557,cs),
(131,571,o),
(167,583,o),
(204,594,cs),
(225,600,o),
(247,597,o),
(262,578,cs),
(277,559,o),
(272,543,o),
(261,523,cs),
(234,473,o),
(237,420,o),
(251,368,cs),
(258,341,o),
(274,321,o),
(307,320,cs),
(345,318,o),
(382,311,o),
(420,310,cs),
(445,309,o),
(461,301,o),
(472,278,cs),
(495,227,o),
(515,174,o),
(544,125,cs),
(569,82,o),
(552,52,o),
(525,23,cs),
(502,0,o),
(475,-21,o),
(449,-40,cs),
(437,-49,o),
(420,-55,o),
(407,-53,cs),
(374,-47,o),
(359,-67,o),
(345,-90,cs),
(336,-106,o),
(327,-122,o),
(315,-142,c)
);
}
);
width = 656;
},
{
hints = (
{
horizontal = 1;
place = (-1108, 1907);
place = (-1108, 1907);
type = Stem;
},
{
place = (-496, 1172);
place = (-496, 1172);
type = Stem;
}
);
layerId = m003;
shapes = (
{
closed = 1;
nodes = (
(793,-779,o),
(673,-821,o),
(571,-923,cs),
(529,-968,o),
(484,-1031,o),
(406,-995,cs),
(316,-953,o),
(244,-893,o),
(229,-788,cs),
(202,-617,o),
(295,-494,o),
(400,-374,c),
(646,-290,o),
(625,-77,o),
(613,112,cs),
(601,262,o),
(571,415,o),
(445,529,cs),
(385,586,o),
(328,634,o),
(247,652,cs),
(142,676,o),
(55,724,o),
(16,841,cs),
(-26,976,o),
(16,1066,o),
(148,1192,cs),
(187,1228,o),
(238,1258,o),
(286,1279,cs),
(394,1321,o),
(502,1357,o),
(613,1390,cs),
(676,1408,o),
(742,1399,o),
(787,1342,cs),
(832,1285,o),
(817,1237,o),
(784,1177,cs),
(703,1027,o),
(712,868,o),
(754,712,cs),
(775,631,o),
(823,571,o),
(922,568,cs),
(1036,562,o),
(1147,541,o),
(1261,538,cs),
(1336,535,o),
(1384,511,o),
(1417,442,cs),
(1486,289,o),
(1546,130,o),
(1633,-17,cs),
(1708,-146,o),
(1657,-236,o),
(1576,-323,cs),
(1507,-392,o),
(1426,-455,o),
(1348,-512,cs),
(1312,-539,o),
(1261,-557,o),
(1222,-551,cs),
(1123,-533,o),
(1078,-593,o),
(1036,-662,cs),
(1009,-710,o),
(982,-758,o),
(946,-818,c)
);
}
);
width = 1670;
}
);
note = k;
unicode = 107;
},
{
glyphname = l;
lastChange = "2022-03-10 19:58:56 +0000";
layers = (
{
hints = (
{
horizontal = 1;
place = (92, 150);
place = (92, 150);
type = Stem;
},
{
place = (92, 139);
place = (92, 139);
type = Stem;
}
);
layerId = m01;
shapes = (
{
closed = 1;
nodes = (
(93,144,o),
(94,154,o),
(104,160,cs),
(104,160,o),
(105,161,o),
(105,162,cs),
(108,167,o),
(112,172,o),
(118,171,cs),
(125,169,o),
(132,166,o),
(133,158,cs),
(135,148,o),
(137,138,o),
(139,128,cs),
(139,124,o),
(137,122,o),
(134,121,cs),
(131,120,o),
(128,119,o),
(126,118,cs),
(117,112,o),
(109,114,o),
(101,117,cs),
(94,120,o),
(91,126,o),
(93,131,c)
);
}
);
width = 332;
},
{
hints = (
{
horizontal = 1;
place = (0, 286);
place = (0, 286);
type = Stem;
},
{
place = (0, 231);
place = (0, 231);
type = Stem;
}
);
layerId = m002;
shapes = (
{
closed = 1;
nodes = (
(4,148,o),
(8,198,o),
(56,230,cs),
(60,232,o),
(62,237,o),
(65,242,cs),
(80,267,o),
(96,292,o),
(130,284,cs),
(164,275,o),
(197,261,o),
(204,219,cs),
(212,169,o),
(222,118,o),
(231,68,cs),
(234,50,o),
(224,40,o),
(207,35,cs),
(193,31,o),
(178,27,o),
(166,19,cs),
(125,-10,o),
(83,-2,o),
(43,15,cs),
(9,29,o),
(-5,59,o),
(1,83,c)
);
}
);
width = 332;
},
{
hints = (
{
horizontal = 1;
place = (-171, 687);
place = (-171, 687);
type = Stem;
},
{
place = (-171, 522);
place = (-171, 522);
type = Stem;
}
);
layerId = m003;
shapes = (
{
closed = 1;
nodes = (
(13,159,o),
(25,309,o),
(169,405,cs),
(181,411,o),
(187,426,o),
(196,441,cs),
(241,516,o),
(289,591,o),
(391,567,cs),
(493,540,o),
(592,498,o),
(613,372,cs),
(637,222,o),
(667,69,o),
(694,-81,cs),
(703,-135,o),
(673,-165,o),
(622,-180,cs),
(580,-192,o),
(535,-204,o),
(499,-228,cs),
(376,-315,o),
(250,-291,o),
(130,-240,cs),
(28,-198,o),
(-14,-108,o),
(4,-36,c)
);
}
);
width = 696;
}
);
note = l;
unicode = 108;
},
{
glyphname = m;
lastChange = "2022-03-10 19:58:56 +0000";
layers = (
{
hints = (
{
horizontal = 1;
place = (205, 247);
place = (205, 247);
type = Stem;
},
{
place = (166, 250);
place = (166, 250);
type = Stem;
}
);
layerId = m01;
shapes = (
{
closed = 1;
nodes = (
(208,434,o),
(212,431,o),
(216,426,cs),
(222,420,o),
(226,414,o),
(228,407,cs),
(230,398,o),
(237,393,o),
(242,387,cs),
(251,378,o),
(252,368,o),
(244,357,cs),
(242,354,o),
(238,353,o),
(234,355,cs),
(230,356,o),
(226,355,o),
(222,354,cs),
(216,352,o),
(209,352,o),
(202,352,cs),
(197,352,o),
(191,352,o),
(186,352,cs),
(181,352,o),
(176,352,o),
(172,353,cs),
(166,354,o),
(165,358,o),
(168,364,c),
(169,365,o),
(170,368,o),
(172,369,cs),
(176,373,o),
(177,377,o),
(177,382,cs),
(176,394,o),
(178,406,o),
(180,418,cs),
(180,423,o),
(185,424,o),
(189,425,cs),
(193,427,o),
(197,429,o),
(202,431,cs)
);
}
);
width = 516;
},
{
hints = (
{
horizontal = 1;
place = (191, 402);
place = (191, 402);
type = Stem;
},
{
place = (0, 416);
place = (0, 416);
type = Stem;
}
);
layerId = m002;
shapes = (
{
closed = 1;
nodes = (
(207,601,o),
(227,585,o),
(250,562,cs),
(278,533,o),
(299,504,o),
(307,465,cs),
(316,421,o),
(351,395,o),
(379,366,cs),
(423,320,o),
(429,270,o),
(389,219,cs),
(376,203,o),
(359,199,o),
(340,205,cs),
(318,213,o),
(300,206,o),
(278,200,cs),
(247,191,o),
(213,192,o),
(180,191,cs),
(152,190,o),
(125,192,o),
(97,193,cs),
(73,194,o),
(50,191,o),
(27,196,cs),
(-1,203,o),
(-7,224,o),
(8,250,c),
(15,259,o),
(20,270,o),
(29,278,cs),
(49,296,o),
(51,315,o),
(51,343,cs),
(50,402,o),
(60,461,o),
(66,520,cs),
(69,547,o),
(92,551,o),
(112,559,cs),
(134,568,o),
(155,579,o),
(177,589,cs)
);
}
);
width = 516;
},
{
hints = (
{
horizontal = 1;
place = (217, 850);
place = (217, 850);
type = Stem;
},
{
place = (-356, 892);
place = (-356, 892);
type = Stem;
}
);
layerId = m003;
shapes = (
{
closed = 1;
nodes = (
(621,1019,o),
(681,971,o),
(750,902,cs),
(834,815,o),
(897,728,o),
(921,611,cs),
(948,479,o),
(1053,401,o),
(1137,314,cs),
(1269,176,o),
(1287,26,o),
(1167,-127,cs),
(1128,-175,o),
(1077,-187,o),
(1020,-169,cs),
(954,-145,o),
(900,-166,o),
(834,-184,cs),
(741,-211,o),
(639,-208,o),
(540,-211,cs),
(456,-214,o),
(375,-208,o),
(291,-205,cs),
(219,-202,o),
(150,-211,o),
(81,-196,cs),
(-3,-175,o),
(-21,-112,o),
(24,-34,c),
(45,-7,o),
(60,26,o),
(87,50,cs),
(147,104,o),
(153,161,o),
(153,245,cs),
(150,422,o),
(180,599,o),
(198,776,cs),
(207,857,o),
(276,869,o),
(336,893,cs),
(402,920,o),
(465,953,o),
(531,983,cs)
);
}
);
width = 1247;
}
);
note = m;
unicode = 109;
},
{
glyphname = n;
lastChange = "2022-03-10 19:58:56 +0000";
layers = (
{
hints = (
{
horizontal = 1;
place = (60, 164);
place = (60, 164);
type = Stem;
},
{
place = (76, 114);
place = (76, 114);
type = Stem;
}
);
layerId = m01;
shapes = (
{
closed = 1;
nodes = (
(86,102,o),
(85,106,o),
(83,110,cs),
(79,118,o),
(75,126,o),
(76,135,cs),
(77,142,o),
(77,143,o),
(84,143,cs),
(91,143,o),
(91,143,o),
(93,150,cs),
(94,157,o),
(94,163,o),
(96,169,cs),
(96,172,o),
(97,176,o),
(98,179,cs),
(99,182,o),
(102,187,o),
(106,186,cs),
(109,185,o),
(113,181,o),
(113,177,cs),
(114,172,o),
(113,166,o),
(112,161,cs),
(111,157,o),
(110,153,o),
(112,148,cs),
(116,137,o),
(114,128,o),
(103,121,cs),
(101,120,o),
(98,117,o),
(98,114,cs),
(98,106,o),
(93,102,o),
(87,98,c)
);
}
);
width = 290;
},
{
hints = (
{
horizontal = 1;
place = (-79, 442);
place = (-79, 442);
type = Stem;
},
{
place = (1, 188);
place = (1, 188);
type = Stem;
}
);
layerId = m002;
shapes = (
{
closed = 1;
nodes = (
(50,-59,o),
(47,-37,o),
(37,-19,cs),
(16,21,o),
(-3,61,o),
(1,109,cs),
(3,141,o),
(6,146,o),
(38,147,cs),
(75,148,o),
(77,149,o),
(84,184,cs),
(89,215,o),
(92,247,o),
(98,278,cs),
(100,294,o),
(104,311,o),
(110,326,cs),
(117,344,o),
(128,369,o),
(150,362,cs),
(165,357,o),
(183,336,o),
(186,319,cs),
(190,293,o),
(186,263,o),
(179,236,cs),
(173,215,o),
(169,195,o),
(178,174,cs),
(202,116,o),
(190,71,o),
(135,38,cs),
(123,31,o),
(111,15,o),
(111,3,cs),
(111,-39,o),
(86,-60,o),
(55,-79,c)
);
}
);
width = 290;
},
{
hints = (
{
horizontal = 1;
place = (-367, 1196);
place = (-367, 1196);
type = Stem;
},
{
place = (-127, 434);
place = (-127, 434);
type = Stem;
}
);
layerId = m003;
shapes = (
{
closed = 1;
nodes = (
(149,-461,o),
(140,-395,o),
(110,-341,cs),
(47,-221,o),
(-10,-101,o),
(2,43,cs),
(8,139,o),
(17,154,o),
(113,157,cs),
(224,160,o),
(230,163,o),
(251,268,cs),
(266,361,o),
(275,457,o),
(293,550,cs),
(299,598,o),
(311,649,o),
(329,694,cs),
(350,748,o),
(383,823,o),
(449,802,cs),
(494,787,o),
(548,724,o),
(557,673,cs),
(569,595,o),
(557,505,o),
(536,424,cs),
(518,361,o),
(506,301,o),
(533,238,cs),
(605,64,o),
(569,-71,o),
(404,-170,cs),
(368,-191,o),
(332,-239,o),
(332,-275,cs),
(332,-401,o),
(257,-464,o),
(164,-521,c)
);
}
);
width = 568;
}
);
note = n;
unicode = 110;
},
{
glyphname = o;
lastChange = "2022-03-10 19:58:56 +0000";
layers = (
{
hints = (
{
horizontal = 1;
place = (99, 213);
place = (99, 213);
type = Stem;
},
{
place = (99, 149);
place = (99, 149);
type = Stem;
}
);
layerId = m01;
shapes = (
{
closed = 1;
nodes = (
(104,296,o),
(102,310,o),
(113,320,cs),
(114,322,o),
(116,326,o),
(115,328,cs),
(114,334,o),
(117,336,o),
(121,339,cs),
(125,341,o),
(128,341,o),
(132,338,cs),
(139,334,o),
(140,332,o),
(139,323,cs),
(138,316,o),
(138,309,o),
(137,301,cs),
(136,294,o),
(138,288,o),
(142,281,cs),
(144,278,o),
(145,273,o),
(143,268,cs),
(142,265,o),
(144,261,o),
(145,257,cs),
(146,254,o),
(148,252,o),
(148,249,cs),
(150,242,o),
(149,239,o),
(143,236,cs),
(139,234,o),
(136,231,o),
(132,229,cs),
(125,225,o),
(120,227,o),
(117,234,cs),
(114,239,o),
(113,245,o),
(111,250,cs),
(108,256,o),
(106,262,o),
(104,268,cs),
(102,273,o),
(101,279,o),
(99,284,c)
);
}
);
width = 349;
},
{
hints = (
{
horizontal = 1;
place = (0, 567);
place = (0, 567);
type = Stem;
},
{
place = (0, 248);
place = (0, 248);
type = Stem;
}
);
layerId = m002;
shapes = (
{
closed = 1;
nodes = (
(23,347,o),
(15,417,o),
(67,467,cs),
(75,476,o),
(81,494,o),
(78,507,cs),
(73,534,o),
(88,546,o),
(107,559,cs),
(127,572,o),
(143,568,o),
(162,557,cs),
(200,534,o),
(205,525,o),
(199,480,cs),
(195,444,o),
(193,408,o),
(189,371,cs),
(185,336,o),
(192,303,o),
(211,272,cs),
(222,253,o),
(230,232,o),
(218,206,cs),
(212,192,o),
(224,169,o),
(230,150,cs),
(234,136,o),
(242,123,o),
(245,109,cs),
(253,74,o),
(249,59,o),
(216,45,cs),
(196,37,o),
(181,20,o),
(162,10,cs),
(127,-8,o),
(105,-2,o),
(88,33,cs),
(75,60,o),
(66,88,o),
(56,116,cs),
(45,146,o),
(33,175,o),
(24,204,cs),
(15,231,o),
(8,259,o),
(0,286,c)
);
}
);
width = 349;
},
{
hints = (
{
horizontal = 1;
place = (-189, 1512);
place = (-189, 1512);
type = Stem;
},
{
place = (-189, 555);
place = (-189, 555);
type = Stem;
}
);
layerId = m003;
shapes = (
{
closed = 1;
nodes = (
(69,474,o),
(45,684,o),
(201,834,cs),
(225,861,o),
(243,915,o),
(234,954,cs),
(219,1035,o),
(264,1071,o),
(321,1110,cs),
(381,1149,o),
(429,1137,o),
(486,1104,cs),
(600,1035,o),
(615,1008,o),
(597,873,cs),
(585,765,o),
(579,657,o),
(567,546,cs),
(555,441,o),
(576,342,o),
(633,249,cs),
(666,192,o),
(690,129,o),
(654,51,cs),
(636,9,o),
(672,-60,o),
(690,-117,cs),
(702,-159,o),
(726,-198,o),
(735,-240,cs),
(759,-345,o),
(747,-390,o),
(648,-432,cs),
(588,-456,o),
(543,-507,o),
(486,-537,cs),
(381,-591,o),
(315,-573,o),
(264,-468,cs),
(225,-387,o),
(198,-303,o),
(168,-219,cs),
(135,-129,o),
(99,-42,o),
(72,45,cs),
(45,126,o),
(24,210,o),
(0,291,c)
);
}
);
width = 746;
}
);
note = o;
unicode = 111;
},
{
glyphname = p;
lastChange = "2022-03-10 19:58:56 +0000";
layers = (
{
hints = (
{
horizontal = 1;
place = (132, 196);
place = (132, 196);
type = Stem;
},
{
place = (127, 191);
place = (127, 191);
type = Stem;
}
);
layerId = m01;
shapes = (
{
closed = 1;
nodes = (
(163,205,o),
(165,207,o),
(168,209,cs),
(176,213,o),
(181,212,o),
(185,205,cs),
(191,194,o),
(193,182,o),
(187,170,cs),
(183,160,o),
(171,158,o),
(163,165,cs),
(156,172,o),
(150,180,o),
(144,188,cs),
(142,190,o),
(141,195,o),
(141,198,cs),
(143,204,o),
(140,207,o),
(136,210,cs),
(131,213,o),
(126,218,o),
(127,225,cs),
(127,229,o),
(130,231,o),
(134,229,cs),
(146,224,o),
(154,216,o),
(159,203,c)
);
}
);
width = 418;
},
{
hints = (
{
horizontal = 1;
place = (23, 344);
place = (23, 344);
type = Stem;
},
{
place = (0, 318);
place = (0, 318);
type = Stem;
}
);
layerId = m002;
shapes = (
{
closed = 1;
nodes = (
(178,246,o),
(192,255,o),
(207,263,cs),
(243,282,o),
(270,279,o),
(288,246,cs),
(319,190,o),
(329,129,o),
(302,69,cs),
(280,19,o),
(221,8,o),
(182,46,cs),
(147,81,o),
(115,119,o),
(84,158,cs),
(74,171,o),
(68,193,o),
(71,209,cs),
(78,239,o),
(67,253,o),
(43,269,cs),
(18,285,o),
(-3,308,o),
(0,343,cs),
(2,364,o),
(14,372,o),
(34,364,cs),
(93,340,o),
(135,299,o),
(159,235,c)
);
}
);
width = 418;
},
{
hints = (
{
horizontal = 1;
place = (-188, 775);
place = (-188, 775);
type = Stem;
},
{
place = (-257, 697);
place = (-257, 697);
type = Stem;
}
);
layerId = m003;
shapes = (
{
closed = 1;
nodes = (
(535,348,o),
(577,375,o),
(622,399,cs),
(730,456,o),
(811,447,o),
(865,348,cs),
(958,180,o),
(988,-3,o),
(907,-183,cs),
(841,-333,o),
(664,-366,o),
(547,-252,cs),
(442,-147,o),
(346,-33,o),
(253,84,cs),
(223,123,o),
(205,189,o),
(214,237,cs),
(235,327,o),
(202,369,o),
(130,417,cs),
(55,465,o),
(-8,534,o),
(1,639,cs),
(7,702,o),
(43,726,o),
(103,702,cs),
(280,630,o),
(406,507,o),
(478,315,c)
);
}
);
width = 954;
}
);
note = p;
unicode = 112;
},
{
glyphname = q;
lastChange = "2022-03-10 19:58:56 +0000";
layers = (
{
hints = (
{
horizontal = 1;
place = (120, 182);
place = (120, 182);
type = Stem;
},
{
place = (120, 181);
place = (120, 181);
type = Stem;
}
);
layerId = m01;
shapes = (
{
closed = 1;
nodes = (
(129,130,o),
(129,130,o),
(130,129,cs),
(133,128,o),
(134,126,o),
(132,124,cs),
(131,123,o),
(127,124,o),
(127,125,cs),
(124,128,o),
(122,131,o),
(121,135,cs),
(120,140,o),
(121,146,o),
(120,152,c),
(128,153,o),
(132,156,o),
(134,163,cs),
(136,169,o),
(141,174,o),
(147,177,cs),
(149,178,o),
(150,179,o),
(151,180,c),
(160,188,o),
(161,188,o),
(166,176,cs),
(168,173,o),
(170,169,o),
(173,167,cs),
(179,161,o),
(181,154,o),
(181,147,c),
(175,145,o),
(171,143,o),
(166,141,cs),
(165,141,o),
(162,140,o),
(161,141,cs),
(151,143,o),
(141,145,o),
(130,147,c),
(130,142,o),
(129,136,o),
(128,131,c)
);
}
);
width = 401;
},
{
hints = (
{
horizontal = 1;
place = (0, 309);
place = (0, 309);
type = Stem;
},
{
place = (0, 301);
place = (0, 301);
type = Stem;
}
);
layerId = m002;
shapes = (
{
closed = 1;
nodes = (
(41,33,o),
(45,30,o),
(50,28,cs),
(65,23,o),
(68,12,o),
(56,2,cs),
(52,-2,o),
(35,0,o),
(31,5,cs),
(20,21,o),
(9,38,o),
(5,57,cs),
(0,84,o),
(2,112,o),
(0,143,c),
(37,147,o),
(56,164,o),
(68,196,cs),
(80,226,o),
(101,253,o),
(133,268,cs),
(141,272,o),
(147,277,o),
(153,283,c),
(200,321,o),
(201,320,o),
(228,263,cs),
(236,245,o),
(247,227,o),
(261,215,cs),
(295,188,o),
(302,154,o),
(301,115,c),
(275,106,o),
(253,97,o),
(230,89,cs),
(221,86,o),
(210,83,o),
(201,85,cs),
(153,95,o),
(104,106,o),
(49,119,c),
(46,92,o),
(42,64,o),
(39,35,c)
);
}
);
width = 401;
},
{
hints = (
{
horizontal = 1;
place = (-241, 686);
place = (-241, 686);
type = Stem;
},
{
place = (-241, 662);
place = (-241, 662);
type = Stem;
}
);
layerId = m003;
shapes = (
{
closed = 1;
nodes = (
(123,-210,o),
(135,-219,o),
(150,-225,cs),
(195,-240,o),
(204,-273,o),
(168,-303,cs),
(156,-315,o),
(105,-309,o),
(93,-294,cs),
(60,-246,o),
(27,-195,o),
(15,-138,cs),
(0,-57,o),
(6,27,o),
(0,120,c),
(111,132,o),
(168,183,o),
(204,279,cs),
(240,369,o),
(303,450,o),
(399,495,cs),
(423,507,o),
(441,522,o),
(459,540,c),
(600,654,o),
(603,651,o),
(684,480,cs),
(708,426,o),
(741,372,o),
(783,336,cs),
(885,255,o),
(906,153,o),
(903,36,c),
(825,9,o),
(759,-18,o),
(690,-42,cs),
(663,-51,o),
(630,-60,o),
(603,-54,cs),
(459,-24,o),
(312,9,o),
(147,48,c),
(138,-33,o),
(126,-117,o),
(117,-204,c)
);
}
);
width = 903;
}
);
note = q;
unicode = 113;
},
{
glyphname = r;
lastChange = "2022-03-10 19:58:56 +0000";
layers = (
{
hints = (
{
horizontal = 1;
place = (189, 211);
place = (189, 211);
type = Stem;
},
{
place = (131, 197);
place = (131, 197);
type = Stem;
}
);
layerId = m01;
shapes = (
{
closed = 1;
nodes = (
(179,451,o),
(171,451,o),
(164,455,cs),
(158,458,o),
(155,463,o),
(154,468,cs),
(151,482,o),
(145,495,o),
(136,505,cs),
(134,508,o),
(132,512,o),
(132,515,cs),
(130,525,o),
(137,531,o),
(146,529,cs),
(155,527,o),
(162,523,o),
(166,513,cs),
(170,502,o),
(176,492,o),
(181,482,cs),
(183,479,o),
(185,476,o),
(188,474,cs),
(193,470,o),
(195,465,o),
(196,459,cs),
(198,451,o),
(196,449,o),
(186,449,c)
);
}
);
width = 428;
},
{
hints = (
{
horizontal = 1;
place = (289, 401);
place = (289, 401);
type = Stem;
},
{
place = (0, 328);
place = (0, 328);
type = Stem;
}
);
layerId = m002;
shapes = (
{
closed = 1;
nodes = (
(240,296,o),
(201,296,o),
(165,316,cs),
(135,333,o),
(120,357,o),
(113,385,cs),
(97,454,o),
(69,516,o),
(25,570,cs),
(14,584,o),
(6,602,o),
(2,619,cs),
(-8,667,o),
(27,699,o),
(75,688,cs),
(120,677,o),
(155,656,o),
(174,608,cs),
(195,554,o),
(222,503,o),
(249,452,cs),
(257,436,o),
(271,423,o),
(285,411,cs),
(308,392,o),
(320,368,o),
(325,339,cs),
(333,296,o),
(325,286,o),
(275,289,c)
);
}
);
width = 428;
},
{
hints = (
{
horizontal = 1;
place = (599, 935);
place = (599, 935);
type = Stem;
},
{
place = (-268, 716);
place = (-268, 716);
type = Stem;
}
);
layerId = m003;
shapes = (
{
closed = 1;
nodes = (
(719,-91,o),
(602,-91,o),
(494,-31,cs),
(404,20,o),
(359,92,o),
(338,176,cs),
(290,383,o),
(206,569,o),
(74,731,cs),
(41,773,o),
(17,827,o),
(5,878,cs),
(-25,1022,o),
(80,1118,o),
(224,1085,cs),
(359,1052,o),
(464,989,o),
(521,845,cs),
(584,683,o),
(665,530,o),
(746,377,cs),
(770,329,o),
(812,290,o),
(854,254,cs),
(923,197,o),
(959,125,o),
(974,38,cs),
(998,-91,o),
(974,-121,o),
(824,-112,c)
);
}
);
width = 982;
}
);
note = r;
unicode = 114;
},
{
glyphname = s;
lastChange = "2022-03-10 19:58:56 +0000";
layers = (
{
hints = (
{
horizontal = 1;
place = (268, 206);
place = (268, 206);
type = Stem;
},
{
place = (222, 162);
place = (222, 162);
type = Stem;
}
);
layerId = m01;
shapes = (
{
closed = 1;
nodes = (
(239,638,o),
(234,634,o),
(228,636,cs),
(225,637,o),
(223,639,o),
(220,640,cs),
(215,644,o),
(209,648,o),
(202,648,cs),
(201,648,o),
(200,648,o),
(199,649,cs),
(192,653,o),
(186,654,o),
(181,648,c),
(180,647,o),
(178,646,o),
(177,647,cs),
(170,650,o),
(163,653,o),
(160,660,cs),
(159,663,o),
(160,667,o),
(161,669,cs),
(163,671,o),
(167,672,o),
(169,671,cs),
(175,668,o),
(182,670,o),
(187,666,cs),
(190,663,o),
(193,667,o),
(195,669,cs),
(199,673,o),
(202,677,o),
(206,680,cs),
(213,685,o),
(221,682,o),
(224,674,cs),
(225,673,l),
(222,673,l),
(222,673,l),
(225,673,l),
(225,673,l),
(228,666,o),
(232,660,o),
(235,653,cs),
(237,650,o),
(238,647,o),
(239,645,c)
);
}
);
width = 498;
},
{
hints = (
{
horizontal = 1;
place = (542, 234);
place = (542, 234);
type = Stem;
},
{
place = (313, 15);
place = (313, 15);
type = Stem;
}
);
layerId = m002;
shapes = (
{
closed = 1;
nodes = (
(398,554,o),
(374,534,o),
(345,544,cs),
(331,549,o),
(318,558,o),
(306,566,cs),
(278,584,o),
(251,604,o),
(216,603,cs),
(209,603,o),
(202,606,o),
(197,609,cs),
(166,630,o),
(136,634,o),
(107,605,c),
(104,601,o),
(94,597,o),
(89,599,cs),
(54,613,o),
(17,628,o),
(2,667,cs),
(-3,679,o),
(3,701,o),
(11,711,cs),
(18,719,o),
(39,723,o),
(50,719,cs),
(79,706,o),
(112,716,o),
(139,693,cs),
(154,681,o),
(169,700,o),
(180,712,cs),
(197,730,o),
(212,751,o),
(232,764,cs),
(267,789,o),
(307,774,o),
(326,735,cs),
(328,731,l),
(313,731,l),
(313,729,l),
(328,729,l),
(328,731,l),
(345,696,o),
(364,665,o),
(381,631,cs),
(388,616,o),
(394,601,o),
(398,592,c)
);
}
);
width = 498;
},
{
hints = (
{
horizontal = 1;
place = (1288, 364);
place = (1288, 364);
type = Stem;
},
{
place = (601, -293);
place = (601, -293);
type = Stem;
}
);
layerId = m003;
shapes = (
{
closed = 1;
nodes = (
(1193,344,o),
(1121,284,o),
(1034,314,cs),
(992,329,o),
(953,356,o),
(917,380,cs),
(833,434,o),
(752,494,o),
(647,491,cs),
(626,491,o),
(605,500,o),
(590,509,cs),
(497,572,o),
(407,584,o),
(320,497,c),
(311,485,o),
(281,473,o),
(266,479,cs),
(161,521,o),
(50,566,o),
(5,683,cs),
(-10,719,o),
(8,785,o),
(32,815,cs),
(53,839,o),
(116,851,o),
(149,839,cs),
(236,800,o),
(335,830,o),
(416,761,cs),
(461,725,o),
(506,782,o),
(539,818,cs),
(590,872,o),
(635,935,o),
(695,974,cs),
(800,1049,o),
(920,1004,o),
(977,887,cs),
(983,875,l),
(938,875,l),
(938,869,l),
(983,869,l),
(983,875,l),
(1034,770,o),
(1091,677,o),
(1142,575,cs),
(1163,530,o),
(1181,485,o),
(1193,458,c)
);
}
);
width = 1193;
}
);
note = s;
unicode = 115;
},
{
glyphname = t;
lastChange = "2022-03-10 19:58:56 +0000";
layers = (
{
hints = (
{
horizontal = 1;
place = (177, 283);
place = (177, 283);
type = Stem;
},
{
place = (177, 265);
place = (177, 265);
type = Stem;
}
);
layerId = m01;
shapes = (
{
closed = 1;
nodes = (
(178,304,l),
(190,299,o),
(198,309,o),
(207,314,cs),
(217,320,o),
(222,320,o),
(230,311,cs),
(238,302,o),
(245,292,o),
(247,279,cs),
(249,267,o),
(254,255,o),
(261,245,cs),
(266,236,o),
(267,227,o),
(261,218,cs),
(260,217,o),
(260,215,o),
(259,213,c),
(254,213,o),
(248,212,o),
(242,212,cs),
(234,213,o),
(229,217,o),
(227,225,cs),
(225,234,o),
(222,242,o),
(214,247,cs),
(211,249,o),
(209,253,o),
(207,257,cs),
(203,265,o),
(200,274,o),
(196,282,cs),
(194,285,o),
(192,287,o),
(190,290,cs),
(186,294,o),
(181,298,o),
(177,302,c)
);
}
);
width = 542;
},
{
hints = (
{
horizontal = 1;
place = (0, 530);
place = (0, 530);
type = Stem;
},
{
place = (0, 442);
place = (0, 442);
type = Stem;
}
);
layerId = m002;
shapes = (
{
closed = 1;
nodes = (
(4,460,l),
(68,436,o),
(107,483,o),
(152,510,cs),
(201,538,o),
(227,541,o),
(264,496,cs),
(304,449,o),
(339,399,o),
(350,335,cs),
(361,273,o),
(388,216,o),
(421,162,cs),
(448,117,o),
(449,74,o),
(423,30,cs),
(418,23,o),
(416,15,o),
(411,3,c),
(384,2,o),
(356,-1,o),
(328,0,cs),
(286,2,o),
(260,25,o),
(250,65,cs),
(239,108,o),
(227,147,o),
(187,174,cs),
(171,184,o),
(161,204,o),
(152,222,cs),
(132,263,o),
(114,307,o),
(94,348,cs),
(87,363,o),
(77,376,o),
(65,388,cs),
(44,409,o),
(22,428,o),
(0,448,c)
);
}
);
width = 542;
},
{
hints = (
{
horizontal = 1;
place = (-382, 1208);
place = (-382, 1208);
type = Stem;
},
{
place = (-382, 944);
place = (-382, 944);
type = Stem;
}
);
layerId = m003;
shapes = (
{
closed = 1;
nodes = (
(12,850,l),
(204,778,o),
(321,919,o),
(456,1000,cs),
(603,1084,o),
(681,1093,o),
(792,958,cs),
(912,817,o),
(1017,667,o),
(1050,475,cs),
(1083,289,o),
(1164,118,o),
(1263,-44,cs),
(1344,-179,o),
(1347,-308,o),
(1269,-440,cs),
(1254,-461,o),
(1248,-485,o),
(1233,-521,c),
(1152,-524,o),
(1068,-533,o),
(984,-530,cs),
(858,-524,o),
(780,-455,o),
(750,-335,cs),
(717,-206,o),
(681,-89,o),
(561,-8,cs),
(513,22,o),
(483,82,o),
(456,136,cs),
(396,259,o),
(342,391,o),
(282,514,cs),
(261,559,o),
(231,598,o),
(195,634,cs),
(132,697,o),
(66,754,o),
(0,814,c)
);
}
);
width = 1326;
}
);
note = t;
unicode = 116;
},
{
glyphname = u;
lastChange = "2022-03-10 19:58:56 +0000";
layers = (
{
hints = (
{
horizontal = 1;
place = (250, 190);
place = (250, 190);
type = Stem;
},
{
horizontal = 1;
place = (270, 190);
place = (270, 190);
type = Stem;
},
{
place = (188, 283);
place = (188, 283);
type = Stem;
},
{
horizontal = 1;
place = (270, 190);
place = (270, 190);
type = Stem;
}
);
layerId = m01;
shapes = (
{
closed = 1;
nodes = (
(249,296,o),
(251,294,o),
(252,290,cs),
(256,283,o),
(261,277,o),
(266,271,cs),
(274,264,o),
(279,254,o),
(283,244,c),
(281,242,l),
(279,243,o),
(277,244,o),
(276,245,cs),
(274,247,o),
(273,249,o),
(272,252,cs),
(266,264,o),
(259,274,o),
(250,283,cs),
(246,287,o),
(245,291,o),
(245,296,c)
);
},
{
closed = 1;
nodes = (
(188,364,l),
(190,360,ls),
(194,353,o),
(197,345,o),
(202,338,cs),
(204,334,o),
(209,330,o),
(212,326,c),
(211,326,o),
(210,326,o),
(210,326,cs),
(203,332,o),
(194,347,o),
(190,360,cs),
(190,360,o),
(190,361,o),
(190,362,cs),
(190,363,l),
(198,349,o),
(206,338,o),
(215,325,c),
(213,326,l),
(209,330,o),
(205,334,o),
(202,339,cs),
(197,346,o),
(194,354,o),
(190,362,cs),
(189,364,l)
);
},
{
closed = 1;
nodes = (
(212,326,l),
(214,323,l),
(215,324,l),
(214,324,o),
(214,325,o),
(213,326,c)
);
},
{
closed = 1;
nodes = (
(229,318,o),
(231,316,o),
(228,306,c),
(227,311,l),
(226,311,l),
(227,309,o),
(227,307,o),
(228,306,c),
(223,309,o),
(220,313,o),
(220,319,c)
);
},
{
closed = 1;
nodes = (
(228,306,l),
(228,304,l),
(229,304,l),
(229,304,o),
(228,305,o),
(228,306,c)
);
},
{
closed = 1;
nodes = (
(238,302,o),
(239,303,o),
(240,303,cs),
(241,303,o),
(242,302,o),
(244,301,c),
(242,300,o),
(241,299,o),
(241,299,cs),
(240,300,o),
(239,301,o),
(238,301,cs)
);
},
{
closed = 1;
nodes = (
(248,291,l),
(252,283,o),
(257,277,o),
(263,271,c),
(264,272,l),
(257,277,o),
(253,284,o),
(249,291,c)
);
}
);
width = 571;
},
{
hints = (
{
horizontal = 1;
place = (306, 10);
place = (306, 10);
type = Stem;
},
{
horizontal = 1;
place = (407, 9);
place = (407, 9);
type = Stem;
},
{
place = (0, 471);
place = (0, 471);
type = Stem;
},
{
horizontal = 1;
place = (407, 8.5);
place = (407, 8.5);
type = Stem;
}
);
layerId = m002;
shapes = (
{
closed = 1;
nodes = (
(302,267,o),
(313,256,o),
(320,240,cs),
(338,204,o),
(363,175,o),
(390,145,cs),
(427,106,o),
(451,57,o),
(471,7,c),
(461,0,l),
(454,4,o),
(444,6,o),
(439,12,cs),
(430,22,o),
(423,34,o),
(417,46,cs),
(390,106,o),
(352,158,o),
(306,204,cs),
(288,222,o),
(281,242,o),
(281,269,c)
);
},
{
closed = 1;
nodes = (
(0,606,l),
(10,587,ls),
(28,551,o),
(45,515,o),
(66,480,cs),
(80,457,o),
(101,437,o),
(120,416,c),
(115,417,o),
(110,417,o),
(108,419,cs),
(75,446,o),
(28,525,o),
(10,587,cs),
(9,590,o),
(8,593,o),
(7,596,cs),
(6,601,l),
(50,535,o),
(89,478,o),
(131,415,c),
(124,416,l),
(104,438,o),
(83,458,o),
(68,482,cs),
(45,518,o),
(27,557,o),
(7,596,cs),
(2,606,l)
);
},
{
closed = 1;
nodes = (
(120,416,l),
(130,405,l),
(132,407,l),
(129,410,o),
(127,413,o),
(124,416,c)
);
},
{
closed = 1;
nodes = (
(205,380,o),
(212,370,o),
(198,320,c),
(192,341,l),
(190,341,l),
(192,333,o),
(195,324,o),
(197,316,c),
(175,333,o),
(160,352,o),
(158,384,c)
);
},
{
closed = 1;
nodes = (
(197,316,l),
(200,306,l),
(202,306,l),
(201,310,o),
(199,315,o),
(198,320,c)
);
},
{
closed = 1;
nodes = (
(247,296,o),
(254,305,o),
(256,305,cs),
(261,304,o),
(266,300,o),
(278,293,c),
(269,288,o),
(264,283,o),
(261,284,cs),
(256,286,o),
(251,291,o),
(248,295,cs)
);
},
{
closed = 1;
nodes = (
(300,241,l),
(319,204,o),
(343,171,o),
(375,145,c),
(377,147,l),
(345,173,o),
(321,206,o),
(302,241,c)
);
}
);
width = 571;
},
{
hints = (
{
horizontal = 1;
place = (507, -381);
place = (507, -381);
type = Stem;
},
{
horizontal = 1;
place = (810, -384);
place = (810, -384);
type = Stem;
},
{
place = (-411, 1002);
place = (-411, 1002);
type = Stem;
},
{
horizontal = 1;
place = (810, -386);
place = (810, -386);
type = Stem;
}
);
layerId = m003;
shapes = (
{
closed = 1;
nodes = (
(906,195,o),
(939,162,o),
(960,114,cs),
(1014,6,o),
(1089,-81,o),
(1170,-171,cs),
(1281,-288,o),
(1353,-435,o),
(1413,-585,c),
(1383,-606,l),
(1362,-594,o),
(1332,-588,o),
(1317,-570,cs),
(1290,-540,o),
(1269,-504,o),
(1251,-468,cs),
(1170,-288,o),
(1056,-132,o),
(918,6,cs),
(864,60,o),
(843,120,o),
(843,201,c)
);
},
{
closed = 1;
nodes = (
(0,1212,l),
(30,1155,ls),
(84,1047,o),
(135,939,o),
(198,834,cs),
(240,765,o),
(303,705,o),
(360,642,c),
(345,645,o),
(330,645,o),
(324,651,cs),
(225,732,o),
(84,969,o),
(30,1155,cs),
(27,1164,o),
(24,1173,o),
(21,1182,cs),
(18,1197,l),
(150,999,o),
(267,828,o),
(393,639,c),
(372,642,l),
(312,708,o),
(249,768,o),
(204,840,cs),
(135,948,o),
(81,1065,o),
(21,1182,cs),
(6,1212,l)
);
},
{
closed = 1;
nodes = (
(360,642,l),
(390,609,l),
(396,615,l),
(387,624,o),
(381,633,o),
(372,642,c)
);
},
{
closed = 1;
nodes = (
(615,534,o),
(636,504,o),
(594,354,c),
(576,417,l),
(570,417,l),
(576,393,o),
(585,366,o),
(591,342,c),
(525,393,o),
(480,450,o),
(474,546,c)
);
},
{
closed = 1;
nodes = (
(591,342,l),
(600,312,l),
(606,312,l),
(603,324,o),
(597,339,o),
(594,354,c)
);
},
{
closed = 1;
nodes = (
(741,282,o),
(762,309,o),
(768,309,cs),
(783,306,o),
(798,294,o),
(834,273,c),
(807,258,o),
(792,243,o),
(783,246,cs),
(768,252,o),
(753,267,o),
(744,279,cs)
);
},
{
closed = 1;
nodes = (
(900,117,l),
(957,6,o),
(1029,-93,o),
(1125,-171,c),
(1131,-165,l),
(1035,-87,o),
(963,12,o),
(906,117,c)
);
}
);
width = 1413;
}
);
note = u;
unicode = 117;
},
{
glyphname = v;
lastChange = "2022-03-10 19:58:56 +0000";
layers = (
{
hints = (
{
horizontal = 1;
place = (89, 172);
place = (89, 172);
type = Stem;
},
{
place = (89, 134);
place = (89, 134);
type = Stem;
}
);
layerId = m01;
shapes = (
{
closed = 1;
nodes = (
(125,180,o),
(117,190,o),
(110,201,cs),
(105,209,o),
(99,215,o),
(94,221,cs),
(92,224,o),
(90,227,o),
(89,228,c),
(91,231,o),
(92,234,o),
(94,237,c),
(96,237,o),
(99,238,o),
(101,238,c),
(101,238,l),
(99,238,o),
(96,238,o),
(94,237,c),
(99,247,l),
(110,243,o),
(115,236,o),
(113,226,cs),
(112,212,o),
(115,201,o),
(127,193,cs),
(136,186,o),
(136,180,o),
(128,165,c)
);
},
{
closed = 1;
nodes = (
(93,237,l),
(94,237,ls),
(94,237,o),
(94,237,o),
(94,237,c),
(93,237,l)
);
}
);
width = 324;
},
{
hints = (
{
horizontal = 1;
place = (0, 412);
place = (0, 412);
type = Stem;
},
{
place = (0, 224);
place = (0, 224);
type = Stem;
}
);
layerId = m002;
shapes = (
{
closed = 1;
nodes = (
(179,76,o),
(137,127,o),
(101,182,cs),
(78,219,o),
(49,250,o),
(21,283,cs),
(11,295,o),
(5,311,o),
(0,318,c),
(8,333,o),
(15,347,o),
(22,361,c),
(34,362,o),
(46,364,o),
(58,365,c),
(58,367,l),
(47,366,o),
(35,365,o),
(24,363,c),
(49,412,l),
(102,392,o),
(127,357,o),
(120,305,cs),
(111,236,o),
(130,182,o),
(186,139,cs),
(234,104,o),
(235,76,o),
(195,0,c)
);
},
{
closed = 1;
nodes = (
(18,360,l),
(22,361,ls),
(23,361,o),
(23,362,o),
(24,363,c),
(18,362,l)
);
}
);
width = 324;
},
{
hints = (
{
horizontal = 1;
place = (-164, 1072);
place = (-164, 1072);
type = Stem;
},
{
place = (-164, 508);
place = (-164, 508);
type = Stem;
}
);
layerId = m003;
shapes = (
{
closed = 1;
nodes = (
(537,-184,o),
(411,-31,o),
(303,134,cs),
(234,245,o),
(147,338,o),
(63,437,cs),
(33,473,o),
(15,521,o),
(0,542,c),
(24,587,o),
(45,629,o),
(66,671,c),
(102,674,o),
(138,680,o),
(174,683,c),
(174,689,l),
(141,686,o),
(105,683,o),
(72,677,c),
(147,824,l),
(306,764,o),
(381,659,o),
(360,503,cs),
(333,296,o),
(390,134,o),
(558,5,cs),
(702,-100,o),
(705,-184,o),
(585,-412,c)
);
},
{
closed = 1;
nodes = (
(54,668,l),
(66,671,ls),
(69,671,o),
(69,674,o),
(72,677,c),
(54,674,l)
);
}
);
width = 671;
}
);
note = v;
unicode = 118;
},
{
glyphname = w;
lastChange = "2022-03-10 19:58:56 +0000";
layers = (
{
hints = (
{
horizontal = 1;
place = (64, 115);
place = (64, 115);
type = Stem;
},
{
place = (64, 96);
place = (64, 96);
type = Stem;
}
);
layerId = m01;
shapes = (
{
closed = 1;
nodes = (
(86,145,o),
(91,140,o),
(94,134,cs),
(96,129,o),
(97,123,o),
(95,118,cs),
(94,112,o),
(90,107,o),
(86,103,cs),
(84,101,o),
(78,102,o),
(75,103,cs),
(73,103,o),
(70,105,o),
(69,106,cs),
(67,111,o),
(66,116,o),
(64,121,cs),
(63,125,o),
(65,129,o),
(68,131,cs),
(72,134,o),
(75,138,o),
(75,143,cs),
(75,146,o),
(78,148,o),
(81,153,c)
);
}
);
width = 260;
},
{
hints = (
{
horizontal = 1;
place = (1, 253);
place = (1, 253);
type = Stem;
},
{
place = (0, 160);
place = (0, 160);
type = Stem;
}
);
layerId = m002;
shapes = (
{
closed = 1;
nodes = (
(111,216,o),
(135,190,o),
(148,159,cs),
(159,135,o),
(164,103,o),
(157,78,cs),
(150,51,o),
(131,25,o),
(110,7,cs),
(98,-3,o),
(72,2,o),
(53,4,cs),
(43,5,o),
(30,13,o),
(26,22,cs),
(16,44,o),
(9,69,o),
(2,93,cs),
(-4,114,o),
(3,133,o),
(20,146,cs),
(42,162,o),
(55,179,o),
(57,207,cs),
(57,220,o),
(71,232,o),
(85,254,c)
);
}
);
width = 260;
},
{
hints = (
{
horizontal = 1;
place = (-97, 659);
place = (-97, 659);
type = Stem;
},
{
place = (-100, 380);
place = (-100, 380);
type = Stem;
}
);
layerId = m003;
shapes = (
{
closed = 1;
nodes = (
(333,393,o),
(405,315,o),
(444,222,cs),
(477,150,o),
(492,54,o),
(471,-21,cs),
(450,-102,o),
(393,-180,o),
(330,-234,cs),
(294,-264,o),
(216,-249,o),
(159,-243,cs),
(129,-240,o),
(90,-216,o),
(78,-189,cs),
(48,-123,o),
(27,-48,o),
(6,24,cs),
(-12,87,o),
(9,144,o),
(60,183,cs),
(126,231,o),
(165,282,o),
(171,366,cs),
(171,405,o),
(213,441,o),
(255,507,c)
);
}
);
width = 481;
}
);
note = w;
unicode = 119;
},
{
glyphname = x;
lastChange = "2022-03-10 19:58:56 +0000";
layers = (
{
hints = (
{
horizontal = 1;
place = (92, 139);
place = (92, 139);
type = Stem;
},
{
place = (93, 138);
place = (93, 138);
type = Stem;
}
);
layerId = m01;
shapes = (
{
closed = 1;
nodes = (
(113,95,o),
(110,94,o),
(107,95,cs),
(99,98,o),
(94,103,o),
(93,111,cs),
(92,119,o),
(98,130,o),
(104,133,cs),
(106,135,o),
(109,135,o),
(111,137,cs),
(116,144,o),
(121,141,o),
(126,139,cs),
(135,135,o),
(141,122,o),
(138,113,cs),
(137,111,o),
(136,108,o),
(135,106,cs),
(130,97,o),
(126,95,o),
(116,94,c)
);
}
);
width = 331;
},
{
hints = (
{
horizontal = 1;
place = (0, 235);
place = (0, 235);
type = Stem;
},
{
place = (1, 229);
place = (1, 229);
type = Stem;
}
);
layerId = m002;
shapes = (
{
closed = 1;
nodes = (
(101,2,o),
(86,1,o),
(72,5,cs),
(33,18,o),
(7,45,o),
(1,86,cs),
(-4,122,o),
(26,179,o),
(57,196,cs),
(68,203,o),
(84,206,o),
(91,215,cs),
(116,248,o),
(143,234,o),
(170,223,cs),
(214,204,o),
(242,139,o),
(226,94,cs),
(221,82,o),
(217,69,o),
(211,58,cs),
(188,14,o),
(168,2,o),
(116,0,c)
);
}
);
width = 331;
},
{
hints = (
{
horizontal = 1;
place = (-171, 534);
place = (-171, 534);
type = Stem;
},
{
place = (-168, 516);
place = (-168, 516);
type = Stem;
}
);
layerId = m003;
shapes = (
{
closed = 1;
nodes = (
(302,-230,o),
(257,-233,o),
(215,-221,cs),
(98,-182,o),
(20,-101,o),
(2,22,cs),
(-13,130,o),
(77,301,o),
(170,352,cs),
(203,373,o),
(251,382,o),
(272,409,cs),
(347,508,o),
(428,466,o),
(509,433,cs),
(641,376,o),
(725,181,o),
(677,46,cs),
(662,10,o),
(650,-29,o),
(632,-62,cs),
(563,-194,o),
(503,-230,o),
(347,-236,c)
);
}
);
width = 691;
}
);
note = x;
unicode = 120;
},
{
glyphname = y;
lastChange = "2022-03-10 19:58:56 +0000";
layers = (
{
hints = (
{
horizontal = 1;
place = (100, 156);
place = (100, 156);
type = Stem;
},
{
place = (100, 150);
place = (100, 150);
type = Stem;
}
);
layerId = m01;
shapes = (
{
closed = 1;
nodes = (
(100,153,o),
(105,159,o),
(115,162,cs),
(117,163,o),
(120,165,o),
(122,165,cs),
(126,167,o),
(130,168,o),
(133,168,cs),
(148,169,o),
(153,161,o),
(148,147,cs),
(147,144,o),
(145,142,o),
(145,139,cs),
(143,134,o),
(140,129,o),
(136,126,cs),
(133,125,o),
(131,122,o),
(130,120,cs),
(123,110,o),
(114,109,o),
(109,119,cs),
(105,126,o),
(103,135,o),
(100,142,c)
);
}
);
width = 350;
},
{
hints = (
{
horizontal = 1;
place = (0, 280);
place = (0, 280);
type = Stem;
},
{
place = (0, 250);
place = (0, 250);
type = Stem;
}
);
layerId = m002;
shapes = (
{
closed = 1;
nodes = (
(2,203,o),
(23,236,o),
(74,249,cs),
(87,252,o),
(98,262,o),
(110,266,cs),
(129,272,o),
(148,279,o),
(167,280,cs),
(240,284,o),
(267,243,o),
(239,175,cs),
(233,161,o),
(227,148,o),
(223,133,cs),
(215,107,o),
(201,86,o),
(178,70,cs),
(166,62,o),
(157,50,o),
(148,38,cs),
(115,-10,o),
(71,-14,o),
(43,36,cs),
(23,71,o),
(14,112,o),
(0,151,c)
);
}
);
width = 350;
},
{
hints = (
{
horizontal = 1;
place = (-190, 650);
place = (-190, 650);
type = Stem;
},
{
place = (-190, 560);
place = (-190, 560);
type = Stem;
}
);
layerId = m003;
shapes = (
{
closed = 1;
nodes = (
(6,329,o),
(69,428,o),
(222,467,cs),
(261,476,o),
(294,506,o),
(330,518,cs),
(387,536,o),
(444,557,o),
(501,560,cs),
(720,572,o),
(801,449,o),
(717,245,cs),
(699,203,o),
(681,164,o),
(669,119,cs),
(645,41,o),
(603,-22,o),
(534,-70,cs),
(498,-94,o),
(471,-130,o),
(444,-166,cs),
(345,-310,o),
(213,-322,o),
(129,-172,cs),
(69,-67,o),
(42,56,o),
(0,173,c)
);
}
);
width = 750;
}
);
note = y;
unicode = 121;
},
